KumbhSans-BlackDisplay.ufo
<glyph name="exclam" format="2">
  <advance width="538"/>
  <unicode hex="0021"/>
  <outline>
    <contour>
      <point x="375" y="420" type="line"/>
      <point x="419" y="1500" type="line"/>
      <point x="120" y="1500" type="line"/>
      <point x="164" y="420" type="line"/>
    </contour>
    <contour>
      <point x="268" y="-20" type="curve" smooth="yes"/>
      <point x="358" y="-20"/>
      <point x="428" y="48"/>
      <point x="428" y="135" type="curve" smooth="yes"/>
      <point x="428" y="221"/>
      <point x="358" y="290"/>
      <point x="268" y="290" type="curve" smooth="yes"/>
      <point x="178" y="290"/>
      <point x="110" y="221"/>
      <point x="110" y="135" type="curve" smooth="yes"/>
      <point x="110" y="48"/>
      <point x="178" y="-20"/>
    </contour>
  </outline>
</glyph>
<glyph name="quotedbl" format="2">
  <advance width="848"/>
  <unicode hex="0022"/>
  <outline>
    <contour>
      <point x="346" y="1085" type="line"/>
      <point x="380" y="1520" type="line"/>
      <point x="120" y="1520" type="line"/>
      <point x="154" y="1085" type="line"/>
    </contour>
    <contour>
      <point x="694" y="1085" type="line"/>
      <point x="728" y="1520" type="line"/>
      <point x="468" y="1520" type="line"/>
      <point x="502" y="1085" type="line"/>
    </contour>
  </outline>
</glyph>
<glyph name="numbersign" format="1">
  <advance width="1349"/>
  <unicode hex="0023"/>
  <outline>
    <contour>
      <point x="1302" y="958" type="line"/>
      <point x="1309" y="1000" type="line"/>
      <point x="1115" y="1000" type="line"/>
      <point x="1203" y="1500" type="line"/>
      <point x="914" y="1500" type="line"/>
      <point x="826" y="1000" type="line"/>
      <point x="611" y="1000" type="line"/>
      <point x="699" y="1500" type="line"/>
      <point x="411" y="1500" type="line"/>
      <point x="322" y="1000" type="line"/>
      <point x="118" y="1000" type="line"/>
      <point x="110" y="958" type="line"/>
      <point x="315" y="958" type="line"/>
      <point x="236" y="510" type="line"/>
      <point x="46" y="510" type="line"/>
      <point x="40" y="468" type="line"/>
      <point x="228" y="468" type="line"/>
      <point x="146" y="0" type="line"/>
      <point x="434" y="0" type="line"/>
      <point x="517" y="468" type="line"/>
      <point x="732" y="468" type="line"/>
      <point x="649" y="0" type="line"/>
      <point x="938" y="0" type="line"/>
      <point x="1021" y="468" type="line"/>
      <point x="1231" y="468" type="line"/>
      <point x="1238" y="510" type="line"/>
      <point x="1028" y="510" type="line"/>
      <point x="1107" y="958" type="line"/>
    </contour>
    <contour>
      <point x="524" y="510" type="line"/>
      <point x="603" y="958" type="line"/>
      <point x="818" y="958" type="line"/>
      <point x="739" y="510" type="line"/>
    </contour>
  </outline>
</glyph>
<glyph name="dollar" format="1">
  <advance width="1146"/>
  <unicode hex="0024"/>
  <outline>
    <contour>
      <point x="50" y="239" type="line"/>
      <point x="199" y="123"/>
      <point x="379" y="60"/>
      <point x="568" y="60" type="curve"/>
      <point x="568" y="-120" type="line"/>
      <point x="610" y="-120" type="line"/>
      <point x="610" y="61" type="line"/>
      <point x="896" y="75"/>
      <point x="1086" y="234"/>
      <point x="1086" y="466" type="curve" smooth="yes"/>
      <point x="1086" y="693"/>
      <point x="906" y="777"/>
      <point x="734" y="858" type="curve" smooth="yes"/>
      <point x="578" y="932"/>
      <point x="428" y="1003"/>
      <point x="428" y="1174" type="curve" smooth="yes"/>
      <point x="428" y="1310"/>
      <point x="525" y="1395"/>
      <point x="679" y="1395" type="curve" smooth="yes"/>
      <point x="779" y="1395"/>
      <point x="907" y="1359"/>
      <point x="1031" y="1295" type="curve"/>
      <point x="1047" y="1330" type="line"/>
      <point x="901" y="1402"/>
      <point x="757" y="1440"/>
      <point x="618" y="1440" type="curve"/>
      <point x="618" y="1620" type="line"/>
      <point x="576" y="1620" type="line"/>
      <point x="576" y="1439" type="line"/>
      <point x="307" y="1426"/>
      <point x="132" y="1272"/>
      <point x="132" y="1045" type="curve" smooth="yes"/>
      <point x="132" y="812"/>
      <point x="317" y="733"/>
      <point x="491" y="657" type="curve" smooth="yes"/>
      <point x="647" y="590"/>
      <point x="794" y="525"/>
      <point x="794" y="360" type="curve" smooth="yes"/>
      <point x="794" y="211"/>
      <point x="675" y="113"/>
      <point x="496" y="113" type="curve" smooth="yes"/>
      <point x="350" y="113"/>
      <point x="171" y="179"/>
      <point x="68" y="269" type="curve"/>
    </contour>
  </outline>
</glyph>
<glyph name="ampersand" format="2">
  <advance width="1523"/>
  <unicode hex="0026"/>
  <outline>
    <contour>
      <point x="1483" y="182" type="line"/>
      <point x="1400" y="235"/>
      <point x="1354" y="265"/>
      <point x="1275" y="322" type="curve"/>
      <point x="1348" y="421"/>
      <point x="1406" y="538"/>
      <point x="1443" y="669" type="curve"/>
      <point x="1400" y="680" type="line"/>
      <point x="1367" y="554"/>
      <point x="1311" y="441"/>
      <point x="1239" y="348" type="curve"/>
      <point x="1000" y="520"/>
      <point x="839" y="668"/>
      <point x="741" y="814" type="curve"/>
      <point x="910" y="904"/>
      <point x="1087" y="1000"/>
      <point x="1087" y="1204" type="curve" smooth="yes"/>
      <point x="1087" y="1396"/>
      <point x="929" y="1529"/>
      <point x="707" y="1529" type="curve" smooth="yes"/>
      <point x="467" y="1529"/>
      <point x="300" y="1375"/>
      <point x="300" y="1167" type="curve" smooth="yes"/>
      <point x="300" y="1049"/>
      <point x="354" y="917"/>
      <point x="448" y="776" type="curve"/>
      <point x="266" y="695"/>
      <point x="90" y="616"/>
      <point x="90" y="387" type="curve" smooth="yes"/>
      <point x="90" y="138"/>
      <point x="299" y="-30"/>
      <point x="604" y="-30" type="curve" smooth="yes"/>
      <point x="784" y="-30"/>
      <point x="953" y="29"/>
      <point x="1093" y="136" type="curve"/>
      <point x="1172" y="78"/>
      <point x="1255" y="23"/>
      <point x="1341" y="-30" type="curve"/>
    </contour>
    <contour>
      <point x="688" y="904" type="curve"/>
      <point x="635" y="1008"/>
      <point x="612" y="1113"/>
      <point x="612" y="1226" type="curve" smooth="yes"/>
      <point x="612" y="1382"/>
      <point x="656" y="1489"/>
      <point x="722" y="1489" type="curve" smooth="yes"/>
      <point x="790" y="1489"/>
      <point x="842" y="1374"/>
      <point x="842" y="1228" type="curve" smooth="yes"/>
      <point x="842" y="1067"/>
      <point x="778" y="973"/>
    </contour>
    <contour>
      <point x="535" y="658" type="curve"/>
      <point x="664" y="496"/>
      <point x="841" y="328"/>
      <point x="1046" y="172" type="curve"/>
      <point x="963" y="122"/>
      <point x="873" y="93"/>
      <point x="778" y="93" type="curve" smooth="yes"/>
      <point x="577" y="93"/>
      <point x="443" y="219"/>
      <point x="443" y="415" type="curve" smooth="yes"/>
      <point x="443" y="518"/>
      <point x="479" y="595"/>
    </contour>
  </outline>
</glyph>
<glyph name="quotesingle" format="1">
  <advance width="500"/>
  <unicode hex="0027"/>
  <outline>
    <contour>
      <point x="346" y="1085" type="line"/>
      <point x="380" y="1520" type="line"/>
      <point x="120" y="1520" type="line"/>
      <point x="154" y="1085" type="line"/>
    </contour>
  </outline>
</glyph>
<glyph name="parenleft" format="2">
  <advance width="712"/>
  <unicode hex="0028"/>
  <outline>
    <contour>
      <point x="672" y="-289" type="line" name="av02"/>
      <point x="469" y="-23"/>
      <point x="360" y="297"/>
      <point x="360" y="627" type="curve" smooth="yes"/>
      <point x="360" y="957"/>
      <point x="469" y="1276"/>
      <point x="672" y="1540" type="curve" name="av01"/>
      <point x="316" y="1540" type="line"/>
      <point x="139" y="1300"/>
      <point x="40" y="972"/>
      <point x="40" y="625" type="curve" smooth="yes"/>
      <point x="40" y="278"/>
      <point x="139" y="-50"/>
      <point x="316" y="-289" type="curve"/>
    </contour>
  </outline>
</glyph>
<glyph name="parenright" format="1">
  <advance width="712"/>
  <unicode hex="0029"/>
  <outline>
    <contour>
      <point x="396" y="-289" type="line"/>
      <point x="573" y="-50"/>
      <point x="672" y="278"/>
      <point x="672" y="625" type="curve" smooth="yes"/>
      <point x="672" y="972"/>
      <point x="573" y="1300"/>
      <point x="396" y="1540" type="curve"/>
      <point x="40" y="1540" type="line" name="av01"/>
      <point x="243" y="1276"/>
      <point x="352" y="957"/>
      <point x="352" y="627" type="curve" smooth="yes"/>
      <point x="352" y="297"/>
      <point x="243" y="-23"/>
      <point x="40" y="-289" type="curve" name="av02"/>
    </contour>
  </outline>
</glyph>
<glyph name="asterisk" format="2">
  <advance width="1096"/>
  <unicode hex="002A"/>
  <outline>
    <contour>
      <point x="946" y="733" type="line"/>
      <point x="702" y="1000" type="line"/>
      <point x="1056" y="1074" type="line"/>
      <point x="973" y="1330" type="line"/>
      <point x="643" y="1181" type="line"/>
      <point x="683" y="1541" type="line"/>
      <point x="413" y="1541" type="line"/>
      <point x="453" y="1181" type="line"/>
      <point x="123" y="1330" type="line"/>
      <point x="40" y="1074" type="line"/>
      <point x="394" y="1000" type="line"/>
      <point x="150" y="733" type="line"/>
      <point x="369" y="574" type="line"/>
      <point x="548" y="889" type="line"/>
      <point x="727" y="574" type="line"/>
    </contour>
  </outline>
</glyph>
<glyph name="plus" format="2">
  <advance width="1146"/>
  <unicode hex="002B"/>
  <outline>
    <contour>
      <point x="1026" y="463" type="line"/>
      <point x="1026" y="501" type="line"/>
      <point x="733" y="501" type="line"/>
      <point x="733" y="911" type="line"/>
      <point x="413" y="911" type="line"/>
      <point x="413" y="501" type="line"/>
      <point x="120" y="501" type="line"/>
      <point x="120" y="463" type="line"/>
      <point x="413" y="463" type="line"/>
      <point x="413" y="52" type="line"/>
      <point x="733" y="52" type="line"/>
      <point x="733" y="463" type="line"/>
    </contour>
  </outline>
</glyph>
<glyph name="comma" format="2">
  <advance width="511"/>
  <unicode hex="002C"/>
  <outline>
    <contour>
      <point x="340" y="-225" type="line"/>
      <point x="471" y="215" type="line"/>
      <point x="161" y="215" type="line" name="av01"/>
      <point x="80" y="-225" type="line"/>
    </contour>
  </outline>
</glyph>
<glyph name="period" format="2">
  <advance width="500"/>
  <unicode hex="002E"/>
  <outline>
    <contour>
      <point x="250" y="0" type="curve" smooth="yes"/>
      <point x="334" y="0"/>
      <point x="390" y="56"/>
      <point x="390" y="140" type="curve" smooth="yes"/>
      <point x="390" y="224"/>
      <point x="334" y="280"/>
      <point x="250" y="280" type="curve" smooth="yes"/>
      <point x="166" y="280"/>
      <point x="110" y="224"/>
      <point x="110" y="140" type="curve" smooth="yes"/>
      <point x="110" y="56"/>
      <point x="166" y="0"/>
    </contour>
  </outline>
</glyph>
<glyph name="slash" format="2">
  <advance width="741"/>
  <unicode hex="002F"/>
  <outline>
    <contour>
      <point x="74" y="-20" type="line" name="av01"/>
      <point x="711" y="1520" type="line" name="at01"/>
      <point x="667" y="1520" type="line"/>
      <point x="30" y="-20" type="line"/>
    </contour>
  </outline>
</glyph>
<glyph name="zero" format="2">
  <advance width="1294"/>
  <unicode hex="0030"/>
  <outline>
    <contour>
      <point x="647" y="-30" type="curve" smooth="yes"/>
      <point x="1015" y="-30"/>
      <point x="1224" y="253"/>
      <point x="1224" y="751" type="curve" smooth="yes"/>
      <point x="1224" y="1247"/>
      <point x="1014" y="1530"/>
      <point x="647" y="1530" type="curve" smooth="yes"/>
      <point x="280" y="1530"/>
      <point x="70" y="1247"/>
      <point x="70" y="751" type="curve" smooth="yes"/>
      <point x="70" y="253"/>
      <point x="279" y="-30"/>
    </contour>
    <contour>
      <point x="647" y="12" type="curve" smooth="yes"/>
      <point x="540" y="12"/>
      <point x="475" y="289"/>
      <point x="475" y="751" type="curve" smooth="yes"/>
      <point x="475" y="1212"/>
      <point x="539" y="1488"/>
      <point x="647" y="1488" type="curve" smooth="yes"/>
      <point x="755" y="1488"/>
      <point x="819" y="1212"/>
      <point x="819" y="751" type="curve" smooth="yes"/>
      <point x="819" y="289"/>
      <point x="755" y="12"/>
    </contour>
  </outline>
</glyph>
<glyph name="one" format="1">
  <advance width="725"/>
  <unicode hex="0031"/>
  <outline>
    <contour>
      <point x="724" y="0" type="line" name="ab01"/>
      <point x="724" y="1500" type="line" name="dh02"/>
      <point x="680" y="1500" type="line"/>
      <point x="40" y="1371" type="line"/>
      <point x="49" y="1328" type="line"/>
      <point x="328" y="1384" type="line" name="dh01"/>
      <point x="328" y="0" type="line"/>
    </contour>
  </outline>
</glyph>
<glyph name="three" format="2">
  <advance width="1281"/>
  <unicode hex="0033"/>
  <outline>
    <contour>
      <point x="110" y="124" type="line"/>
      <point x="250" y="23"/>
      <point x="416" y="-30"/>
      <point x="595" y="-30" type="curve" smooth="yes"/>
      <point x="925" y="-30"/>
      <point x="1171" y="152"/>
      <point x="1171" y="396" type="curve" smooth="yes"/>
      <point x="1171" y="591"/>
      <point x="1014" y="731"/>
      <point x="765" y="775" type="curve"/>
      <point x="963" y="828"/>
      <point x="1098" y="974"/>
      <point x="1098" y="1153" type="curve" smooth="yes"/>
      <point x="1098" y="1374"/>
      <point x="891" y="1530"/>
      <point x="596" y="1530" type="curve" smooth="yes"/>
      <point x="418" y="1530"/>
      <point x="259" y="1472"/>
      <point x="131" y="1370" type="curve"/>
      <point x="158" y="1337" type="line"/>
      <point x="232" y="1397"/>
      <point x="314" y="1427"/>
      <point x="401" y="1427" type="curve" smooth="yes"/>
      <point x="579" y="1427"/>
      <point x="704" y="1300"/>
      <point x="704" y="1118" type="curve" smooth="yes"/>
      <point x="704" y="932"/>
      <point x="572" y="791"/>
      <point x="396" y="791" type="curve" smooth="yes"/>
      <point x="330" y="791" type="line"/>
      <point x="330" y="747" type="line"/>
      <point x="394" y="747" type="line" smooth="yes"/>
      <point x="607" y="747"/>
      <point x="749" y="617"/>
      <point x="749" y="423" type="curve" smooth="yes"/>
      <point x="749" y="223"/>
      <point x="597" y="73"/>
      <point x="386" y="73" type="curve" smooth="yes"/>
      <point x="293" y="73"/>
      <point x="206" y="102"/>
      <point x="133" y="160" type="curve"/>
    </contour>
  </outline>
</glyph>
<glyph name="four" format="1">
  <advance width="1334"/>
  <unicode hex="0034"/>
  <outline>
    <contour>
      <point x="1111" y="0" type="line"/>
      <point x="1111" y="353" type="line"/>
      <point x="1294" y="353" type="line"/>
      <point x="1294" y="395" type="line"/>
      <point x="1111" y="395" type="line"/>
      <point x="1111" y="1500" type="line"/>
      <point x="977" y="1500" type="line"/>
      <point x="40" y="391" type="line"/>
      <point x="40" y="353" type="line"/>
      <point x="715" y="353" type="line"/>
      <point x="715" y="0" type="line"/>
    </contour>
    <contour>
      <point x="99" y="395" type="line"/>
      <point x="715" y="1126" type="line"/>
      <point x="715" y="395" type="line"/>
    </contour>
  </outline>
</glyph>
<glyph name="five" format="1">
  <advance width="1220"/>
  <unicode hex="0035"/>
  <outline>
    <contour>
      <point x="70" y="151" type="line"/>
      <point x="203" y="36"/>
      <point x="385" y="-30"/>
      <point x="568.062" y="-30" type="curve" smooth="yes"/>
      <point x="900" y="-30"/>
      <point x="1150" y="187"/>
      <point x="1150" y="478" type="curve" smooth="yes"/>
      <point x="1150" y="745"/>
      <point x="939" y="924"/>
      <point x="629.117" y="924" type="curve" smooth="yes"/>
      <point x="589" y="924"/>
      <point x="551" y="921"/>
      <point x="514" y="916" type="curve"/>
      <point x="586" y="1458" type="line"/>
      <point x="1087" y="1458" type="line"/>
      <point x="1087" y="1500" type="line"/>
      <point x="255" y="1500" type="line"/>
      <point x="158" y="770" type="line"/>
      <point x="193" y="743" type="line"/>
      <point x="287" y="802"/>
      <point x="360" y="827"/>
      <point x="432.404" y="827" type="curve" smooth="yes"/>
      <point x="615" y="827"/>
      <point x="746" y="668"/>
      <point x="746" y="447" type="curve" smooth="yes"/>
      <point x="746" y="219"/>
      <point x="608" y="58"/>
      <point x="410.302" y="58" type="curve" smooth="yes"/>
      <point x="313" y="58"/>
      <point x="215" y="97"/>
      <point x="94" y="186" type="curve"/>
    </contour>
  </outline>
</glyph>
<glyph name="six" format="2">
  <advance width="1250"/>
  <unicode hex="0036"/>
  <outline>
    <contour>
      <point x="628" y="-30" type="curve" smooth="yes"/>
      <point x="958" y="-30"/>
      <point x="1180" y="176"/>
      <point x="1180" y="475" type="curve" smooth="yes"/>
      <point x="1180" y="736"/>
      <point x="1007" y="930"/>
      <point x="773" y="930" type="curve" smooth="yes"/>
      <point x="633" y="930"/>
      <point x="533" y="876"/>
      <point x="475" y="762" type="curve"/>
      <point x="522" y="1151"/>
      <point x="675" y="1362"/>
      <point x="967" y="1461" type="curve"/>
      <point x="953" y="1500" type="line"/>
      <point x="428" y="1403"/>
      <point x="70" y="1030"/>
      <point x="70" y="577" type="curve" smooth="yes"/>
      <point x="70" y="198"/>
      <point x="282" y="-30"/>
    </contour>
    <contour>
      <point x="619" y="12" type="curve" smooth="yes"/>
      <point x="543" y="12"/>
      <point x="468" y="148"/>
      <point x="468" y="417" type="curve" smooth="yes"/>
      <point x="468" y="692"/>
      <point x="546" y="828"/>
      <point x="624" y="828" type="curve" smooth="yes"/>
      <point x="700" y="828"/>
      <point x="775" y="699"/>
      <point x="775" y="430" type="curve" smooth="yes"/>
      <point x="775" y="155"/>
      <point x="697" y="12"/>
    </contour>
  </outline>
</glyph>
<glyph name="seven" format="2">
  <advance width="1206"/>
  <unicode hex="0037"/>
  <outline>
    <contour>
      <point x="606" y="0" type="line"/>
      <point x="1166" y="1458" type="line"/>
      <point x="1166" y="1500" type="line"/>
      <point x="40" y="1500" type="line"/>
      <point x="40" y="1458" type="line"/>
      <point x="738" y="1458" type="line"/>
      <point x="177" y="0" type="line"/>
    </contour>
  </outline>
</glyph>
<glyph name="eight" format="2">
  <advance width="1225"/>
  <unicode hex="0038"/>
  <outline>
    <contour>
      <point x="612" y="-30" type="curve" smooth="yes"/>
      <point x="938" y="-30"/>
      <point x="1155" y="138"/>
      <point x="1155" y="389" type="curve" smooth="yes"/>
      <point x="1155" y="596"/>
      <point x="1008" y="746"/>
      <point x="774" y="793" type="curve"/>
      <point x="976" y="838"/>
      <point x="1101" y="969"/>
      <point x="1101" y="1152" type="curve" smooth="yes"/>
      <point x="1101" y="1381"/>
      <point x="908" y="1530"/>
      <point x="612" y="1530" type="curve" smooth="yes"/>
      <point x="316" y="1530"/>
      <point x="123" y="1381"/>
      <point x="123" y="1152" type="curve" smooth="yes"/>
      <point x="123" y="969"/>
      <point x="248" y="838"/>
      <point x="450" y="793" type="curve"/>
      <point x="217" y="746"/>
      <point x="70" y="595"/>
      <point x="70" y="388" type="curve" smooth="yes"/>
      <point x="70" y="136"/>
      <point x="286" y="-30"/>
    </contour>
    <contour>
      <point x="612" y="818" type="curve" smooth="yes"/>
      <point x="556" y="818"/>
      <point x="518" y="953"/>
      <point x="518" y="1152" type="curve" smooth="yes"/>
      <point x="518" y="1352"/>
      <point x="556" y="1488"/>
      <point x="612" y="1488" type="curve" smooth="yes"/>
      <point x="668" y="1488"/>
      <point x="706" y="1352"/>
      <point x="706" y="1152" type="curve" smooth="yes"/>
      <point x="706" y="953"/>
      <point x="668" y="818"/>
    </contour>
    <contour>
      <point x="612" y="12" type="curve" smooth="yes"/>
      <point x="530" y="12"/>
      <point x="475" y="164"/>
      <point x="475" y="388" type="curve" smooth="yes"/>
      <point x="475" y="613"/>
      <point x="530" y="766"/>
      <point x="612" y="766" type="curve" smooth="yes"/>
      <point x="694" y="766"/>
      <point x="750" y="613"/>
      <point x="750" y="388" type="curve" smooth="yes"/>
      <point x="750" y="164"/>
      <point x="694" y="12"/>
    </contour>
  </outline>
</glyph>
<glyph name="nine" format="1">
  <advance width="1251"/>
  <unicode hex="0039"/>
  <outline>
    <contour>
      <point x="297" y="0" type="line"/>
      <point x="822" y="97"/>
      <point x="1181" y="471"/>
      <point x="1181" y="924" type="curve" smooth="yes"/>
      <point x="1181" y="1303"/>
      <point x="969" y="1530"/>
      <point x="623" y="1530" type="curve" smooth="yes"/>
      <point x="293" y="1530"/>
      <point x="70" y="1324"/>
      <point x="70" y="1025" type="curve" smooth="yes"/>
      <point x="70" y="764"/>
      <point x="243" y="570"/>
      <point x="477" y="570" type="curve" smooth="yes"/>
      <point x="617" y="570"/>
      <point x="718" y="624"/>
      <point x="776" y="738" type="curve"/>
      <point x="729" y="349"/>
      <point x="576" y="138"/>
      <point x="284" y="39" type="curve"/>
    </contour>
    <contour>
      <point x="626" y="672" type="curve" smooth="yes"/>
      <point x="550" y="672"/>
      <point x="476" y="801"/>
      <point x="476" y="1070" type="curve" smooth="yes"/>
      <point x="476" y="1345"/>
      <point x="554" y="1488"/>
      <point x="632" y="1488" type="curve" smooth="yes"/>
      <point x="708" y="1488"/>
      <point x="783" y="1352"/>
      <point x="783" y="1083" type="curve" smooth="yes"/>
      <point x="783" y="808"/>
      <point x="704" y="672"/>
    </contour>
  </outline>
</glyph>
<glyph name="colon" format="1">
  <advance width="540"/>
  <unicode hex="003A"/>
  <outline>
    <contour>
      <point x="269" y="658" type="curve" smooth="yes"/>
      <point x="359" y="658"/>
      <point x="430" y="729"/>
      <point x="430" y="819" type="curve" smooth="yes"/>
      <point x="430" y="908"/>
      <point x="359" y="980"/>
      <point x="269" y="980" type="curve" smooth="yes"/>
      <point x="179" y="980"/>
      <point x="110" y="908"/>
      <point x="110" y="819" type="curve" smooth="yes"/>
      <point x="110" y="729"/>
      <point x="179" y="658"/>
    </contour>
    <contour>
      <point x="269" y="-20" type="curve" smooth="yes"/>
      <point x="359" y="-20"/>
      <point x="430" y="51"/>
      <point x="430" y="141" type="curve" smooth="yes"/>
      <point x="430" y="230"/>
      <point x="359" y="301"/>
      <point x="269" y="301" type="curve" smooth="yes"/>
      <point x="179" y="301"/>
      <point x="110" y="230"/>
      <point x="110" y="141" type="curve" smooth="yes"/>
      <point x="110" y="51"/>
      <point x="179" y="-20"/>
    </contour>
  </outline>
</glyph>
<glyph name="semicolon" format="1">
  <advance width="530"/>
  <unicode hex="003B"/>
  <outline>
    <contour>
      <point x="279" y="659" type="curve" smooth="yes"/>
      <point x="369" y="659"/>
      <point x="440" y="729"/>
      <point x="440" y="819" type="curve" smooth="yes"/>
      <point x="440" y="908"/>
      <point x="369" y="980"/>
      <point x="279" y="980" type="curve" smooth="yes"/>
      <point x="189" y="980"/>
      <point x="120" y="908"/>
      <point x="120" y="819" type="curve" smooth="yes"/>
      <point x="120" y="729"/>
      <point x="189" y="659"/>
    </contour>
    <contour>
      <point x="320" y="-240" type="line"/>
      <point x="440" y="200" type="line"/>
      <point x="150" y="200" type="line" name="av01"/>
      <point x="80" y="-240" type="line"/>
    </contour>
  </outline>
</glyph>
<glyph name="less" format="1">
  <advance width="1067"/>
  <unicode hex="003C"/>
  <outline>
    <contour>
      <point x="947" y="0" type="line"/>
      <point x="947" y="300" type="line"/>
      <point x="432" y="509" type="line"/>
      <point x="947" y="719" type="line"/>
      <point x="947" y="1020" type="line"/>
      <point x="40" y="588" type="line"/>
      <point x="40" y="431" type="line"/>
    </contour>
  </outline>
</glyph>
<glyph name="equal" format="1">
  <advance width="1195"/>
  <unicode hex="003D"/>
  <outline>
    <contour>
      <point x="1075" y="608" type="line"/>
      <point x="1075" y="888" type="line"/>
      <point x="120" y="888" type="line"/>
      <point x="120" y="608" type="line"/>
    </contour>
    <contour>
      <point x="1075" y="121" type="line"/>
      <point x="1075" y="401" type="line"/>
      <point x="120" y="401" type="line"/>
      <point x="120" y="121" type="line"/>
    </contour>
  </outline>
</glyph>
<glyph name="greater" format="1">
  <advance width="1067"/>
  <unicode hex="003E"/>
  <outline>
    <contour>
      <point x="120" y="0" type="line"/>
      <point x="1027" y="431" type="line"/>
      <point x="1027" y="588" type="line"/>
      <point x="120" y="1020" type="line"/>
      <point x="120" y="719" type="line"/>
      <point x="635" y="509" type="line"/>
      <point x="120" y="300" type="line"/>
    </contour>
  </outline>
</glyph>
<glyph name="at" format="2">
  <advance width="1899"/>
  <unicode hex="0040"/>
  <outline>
    <contour>
      <point x="841" y="64" type="curve" smooth="yes"/>
      <point x="1012" y="64"/>
      <point x="1157" y="152"/>
      <point x="1241" y="306" type="curve"/>
      <point x="1266" y="162"/>
      <point x="1373" y="64"/>
      <point x="1507" y="64" type="curve" smooth="yes"/>
      <point x="1713" y="64"/>
      <point x="1859" y="295"/>
      <point x="1859" y="625" type="curve" smooth="yes"/>
      <point x="1859" y="1095"/>
      <point x="1510" y="1419"/>
      <point x="1002" y="1419" type="curve" smooth="yes"/>
      <point x="450" y="1419"/>
      <point x="40" y="1034"/>
      <point x="40" y="516" type="curve" smooth="yes"/>
      <point x="40" y="53"/>
      <point x="366" y="-266"/>
      <point x="840" y="-266" type="curve" smooth="yes"/>
      <point x="999" y="-266"/>
      <point x="1159" y="-229"/>
      <point x="1321" y="-157" type="curve"/>
      <point x="1306" y="-121" type="line"/>
      <point x="1163" y="-189"/>
      <point x="1001" y="-227"/>
      <point x="851" y="-227" type="curve" smooth="yes"/>
      <point x="426" y="-227"/>
      <point x="130" y="79"/>
      <point x="130" y="519" type="curve" smooth="yes"/>
      <point x="130" y="1013"/>
      <point x="503" y="1381"/>
      <point x="1003" y="1381" type="curve" smooth="yes"/>
      <point x="1459" y="1381"/>
      <point x="1769" y="1076"/>
      <point x="1769" y="622" type="curve" smooth="yes"/>
      <point x="1769" y="363"/>
      <point x="1668" y="113"/>
      <point x="1561" y="113" type="curve" smooth="yes"/>
      <point x="1502" y="113"/>
      <point x="1468" y="191"/>
      <point x="1468" y="323" type="curve" smooth="yes"/>
      <point x="1468" y="425"/>
      <point x="1505" y="854"/>
      <point x="1525" y="984" type="curve"/>
      <point x="1280" y="984" type="line"/>
      <point x="1268" y="807" type="line"/>
      <point x="1203" y="961"/>
      <point x="1074" y="1045"/>
      <point x="903" y="1045" type="curve" smooth="yes"/>
      <point x="620" y="1045"/>
      <point x="398" y="816"/>
      <point x="398" y="525" type="curve" smooth="yes"/>
      <point x="398" y="259"/>
      <point x="586" y="64"/>
    </contour>
    <contour>
      <point x="929" y="117" type="curve" smooth="yes"/>
      <point x="767" y="117"/>
      <point x="668" y="265"/>
      <point x="668" y="508" type="curve" smooth="yes"/>
      <point x="668" y="791"/>
      <point x="803" y="993"/>
      <point x="992" y="993" type="curve" smooth="yes"/>
      <point x="1126" y="993"/>
      <point x="1228" y="893"/>
      <point x="1262" y="727" type="curve"/>
      <point x="1239" y="383" type="line"/>
      <point x="1181" y="219"/>
      <point x="1062" y="117"/>
    </contour>
  </outline>
</glyph>
<glyph name="A" format="2">
  <advance width="1451"/>
  <unicode hex="0041"/>
  <anchor x="726" y="0" name="bottom"/>
  <anchor x="1301" y="0" name="ogonek"/>
  <anchor x="726" y="1500" name="top"/>
  <outline>
    <contour>
      <point x="78" y="0" type="line" name="n0"/>
      <point x="279" y="468" type="line" name="dv01"/>
      <point x="788" y="468" type="line"/>
      <point x="990" y="0" type="line" name="ab02"/>
      <point x="1421" y="0" type="line"/>
      <point x="774" y="1500" type="line" name="at02"/>
      <point x="675" y="1500" type="line"/>
      <point x="30" y="0" type="line" name="n7"/>
    </contour>
    <contour>
      <point x="297" y="510" type="line" name="dv02"/>
      <point x="533" y="1059" type="line"/>
      <point x="770" y="510" type="line"/>
    </contour>
  </outline>
</glyph>
<glyph name="B" format="2">
  <advance width="1380"/>
  <unicode hex="0042"/>
  <outline>
    <contour>
      <point x="120" y="0" type="line"/>
      <point x="794" y="0" type="line" smooth="yes" name="ab02"/>
      <point x="1110" y="0"/>
      <point x="1310" y="168"/>
      <point x="1310" y="434" type="curve" smooth="yes" name="sh02"/>
      <point x="1310" y="629"/>
      <point x="1199" y="750"/>
      <point x="1017" y="797" type="curve"/>
      <point x="1146" y="849"/>
      <point x="1232" y="961"/>
      <point x="1232" y="1120" type="curve" smooth="yes" name="dh03"/>
      <point x="1232" y="1362"/>
      <point x="1036" y="1500"/>
      <point x="691" y="1500" type="curve" smooth="yes"/>
      <point x="120" y="1500" type="line" name="at01"/>
    </contour>
    <contour>
      <point x="516" y="804" type="line"/>
      <point x="516" y="1458" type="line"/>
      <point x="634" y="1458" type="line" smooth="yes" name="sv03"/>
      <point x="766" y="1458"/>
      <point x="842" y="1336"/>
      <point x="842" y="1135" type="curve" smooth="yes" name="dh02"/>
      <point x="842" y="926"/>
      <point x="767" y="804"/>
      <point x="634" y="804" type="curve" smooth="yes" name="sv02"/>
    </contour>
    <contour>
      <point x="516" y="42" type="line"/>
      <point x="516" y="762" type="line"/>
      <point x="661" y="762" type="line" smooth="yes" name="dv01"/>
      <point x="815" y="762"/>
      <point x="905" y="637"/>
      <point x="905" y="408" type="curve" smooth="yes" name="ih01"/>
      <point x="905" y="176"/>
      <point x="829" y="42"/>
      <point x="661" y="42" type="curve" smooth="yes" name="sv05"/>
    </contour>
  </outline>
</glyph>
<glyph name="D" format="2">
  <advance width="1610"/>
  <unicode hex="0044"/>
  <anchor x="731" y="0" name="bottom"/>
  <anchor x="731" y="1500" name="top"/>
  <outline>
    <contour>
      <point x="120" y="0" type="line"/>
      <point x="646" y="0" type="line" smooth="yes"/>
      <point x="1206" y="0"/>
      <point x="1540" y="280"/>
      <point x="1540" y="750" type="curve" smooth="yes"/>
      <point x="1540" y="1220"/>
      <point x="1206" y="1500"/>
      <point x="646" y="1500" type="curve" smooth="yes"/>
      <point x="120" y="1500" type="line"/>
    </contour>
    <contour>
      <point x="516" y="42" type="line"/>
      <point x="516" y="1458" type="line"/>
      <point x="645" y="1458" type="line" smooth="yes"/>
      <point x="956" y="1458"/>
      <point x="1135" y="1199"/>
      <point x="1135" y="750" type="curve" smooth="yes"/>
      <point x="1135" y="302"/>
      <point x="955" y="42"/>
      <point x="645" y="42" type="curve" smooth="yes"/>
    </contour>
  </outline>
</glyph>
<glyph name="H" format="1">
  <advance width="1555"/>
  <unicode hex="0048"/>
  <outline>
    <contour>
      <point x="516" y="0" type="line" name="ab01"/>
      <point x="516" y="717" type="line" name="dv01"/>
      <point x="1039" y="717" type="line"/>
      <point x="1039" y="0" type="line" name="ab02"/>
      <point x="1435" y="0" type="line" name="sh02"/>
      <point x="1435" y="1500" type="line" name="at01"/>
      <point x="1039" y="1500" type="line" name="sh03"/>
      <point x="1039" y="759" type="line"/>
      <point x="516" y="759" type="line" name="dv02"/>
      <point x="516" y="1500" type="line" name="at02"/>
      <point x="120" y="1500" type="line" name="sh01"/>
      <point x="120" y="0" type="line"/>
    </contour>
  </outline>
</glyph>
<glyph name="I" format="1">
  <advance width="636"/>
  <unicode hex="0049"/>
  <outline>
    <contour>
      <point x="516" y="1500" type="line" name="at01"/>
      <point x="516" y="0" type="line" name="ab01"/>
      <point x="120" y="0" type="line" name="dh01"/>
      <point x="120" y="1500" type="line"/>
    </contour>
  </outline>
</glyph>
<glyph name="J" format="2">
  <advance width="573"/>
  <unicode hex="004A"/>
  <anchor x="253" y="0" name="bottom"/>
  <anchor x="253" y="1500" name="top"/>
  <outline>
    <contour>
      <point x="-228" y="-360" type="line"/>
      <point x="266" y="-360"/>
      <point x="453" y="-222"/>
      <point x="453" y="142" type="curve" smooth="yes"/>
      <point x="453" y="1500" type="line"/>
      <point x="57" y="1500" type="line"/>
      <point x="57" y="142" type="line" smooth="yes"/>
      <point x="57" y="-165"/>
      <point x="-39" y="-318"/>
      <point x="-230" y="-318" type="curve"/>
    </contour>
  </outline>
</glyph>
<glyph name="K" format="1">
  <advance width="1569"/>
  <unicode hex="004B"/>
  <outline>
    <contour>
      <point x="516" y="0" type="line"/>
      <point x="516" y="432" type="line"/>
      <point x="603" y="541" type="line"/>
      <point x="1042" y="0" type="line"/>
      <point x="1559" y="0" type="line"/>
      <point x="859" y="863" type="line"/>
      <point x="1365" y="1500" type="line"/>
      <point x="1310" y="1500" type="line"/>
      <point x="605" y="613" type="line" smooth="yes"/>
      <point x="575" y="575"/>
      <point x="546" y="538"/>
      <point x="516" y="500" type="curve"/>
      <point x="516" y="1500" type="line"/>
      <point x="120" y="1500" type="line"/>
      <point x="120" y="0" type="line"/>
    </contour>
  </outline>
</glyph>
<glyph name="L" format="2">
  <advance width="1180"/>
  <unicode hex="004C"/>
  <anchor x="630" y="0" name="bottom"/>
  <anchor x="347" y="750" name="center"/>
  <anchor x="347" y="1500" name="top"/>
  <anchor x="1160" y="1500" name="topright"/>
  <outline>
    <contour>
      <point x="1140" y="0" type="line"/>
      <point x="1140" y="42" type="line"/>
      <point x="516" y="42" type="line"/>
      <point x="516" y="1500" type="line"/>
      <point x="120" y="1500" type="line"/>
      <point x="120" y="0" type="line"/>
    </contour>
  </outline>
</glyph>
<glyph name="M" format="2">
  <advance width="1851"/>
  <unicode hex="004D"/>
  <outline>
    <contour>
      <point x="1731" y="0" type="line"/>
      <point x="1731" y="1500" type="line"/>
      <point x="1687" y="1500" type="line"/>
      <point x="967" y="580" type="line"/>
      <point x="248" y="1500" type="line"/>
      <point x="120" y="1500" type="line"/>
      <point x="120" y="0" type="line"/>
      <point x="164" y="0" type="line"/>
      <point x="164" y="963" type="line"/>
      <point x="721" y="252" type="line"/>
      <point x="765" y="252" type="line"/>
      <point x="1335" y="982" type="line"/>
      <point x="1335" y="0" type="line"/>
    </contour>
  </outline>
</glyph>
<glyph name="N" format="2">
  <advance width="1479"/>
  <unicode hex="004E"/>
  <anchor x="740" y="0" name="bottom"/>
  <anchor x="740" y="1500" name="top"/>
  <outline>
    <contour>
      <point x="1359" y="0" type="line"/>
      <point x="1359" y="1500" type="line"/>
      <point x="1315" y="1500" type="line"/>
      <point x="1315" y="520" type="line"/>
      <point x="164" y="1500" type="line"/>
      <point x="120" y="1500" type="line"/>
      <point x="120" y="0" type="line"/>
      <point x="164" y="0" type="line"/>
      <point x="164" y="980" type="line"/>
      <point x="1315" y="0" type="line"/>
    </contour>
  </outline>
</glyph>
<glyph name="O" format="2">
  <advance width="1730"/>
  <unicode hex="004F"/>
  <anchor x="865" y="0" name="bottom"/>
  <anchor x="865" y="750" name="center"/>
  <anchor x="1557" y="10" name="ogonek"/>
  <anchor x="865" y="1500" name="top"/>
  <anchor x="20" y="1500" name="topleft"/>
  <anchor x="1710" y="1500" name="topright"/>
  <outline>
    <contour>
      <point x="860" y="-30" type="curve" smooth="yes" name="dv01"/>
      <point x="1313" y="-30"/>
      <point x="1660" y="303"/>
      <point x="1660" y="750" type="curve" smooth="yes" name="sh03"/>
      <point x="1660" y="1197"/>
      <point x="1313" y="1530"/>
      <point x="860" y="1530" type="curve" smooth="yes" name="at01"/>
      <point x="407" y="1530"/>
      <point x="70" y="1197"/>
      <point x="70" y="750" type="curve" smooth="yes" name="sh01"/>
      <point x="70" y="303"/>
      <point x="407" y="-30"/>
    </contour>
    <contour>
      <point x="860" y="12" type="curve" smooth="yes" name="dv02"/>
      <point x="636" y="12"/>
      <point x="475" y="323"/>
      <point x="475" y="752" type="curve" smooth="yes" name="sh02"/>
      <point x="475" y="1181"/>
      <point x="636" y="1488"/>
      <point x="860" y="1488" type="curve" smooth="yes" name="sv01"/>
      <point x="1084" y="1488"/>
      <point x="1255" y="1181"/>
      <point x="1255" y="752" type="curve" smooth="yes" name="ah01"/>
      <point x="1255" y="323"/>
      <point x="1084" y="12"/>
    </contour>
  </outline>
</glyph>
<glyph name="P" format="1">
  <advance width="1396"/>
  <unicode hex="0050"/>
  <outline>
    <contour>
      <point x="120" y="0" type="line"/>
      <point x="516" y="0" type="line"/>
      <point x="516" y="519" type="line"/>
      <point x="692" y="519" type="line" smooth="yes"/>
      <point x="1071" y="519"/>
      <point x="1296" y="702"/>
      <point x="1296" y="1011" type="curve" smooth="yes"/>
      <point x="1296" y="1319"/>
      <point x="1072" y="1500"/>
      <point x="691" y="1500" type="curve" smooth="yes"/>
      <point x="120" y="1500" type="line"/>
    </contour>
    <contour>
      <point x="516" y="561" type="line"/>
      <point x="516" y="1458" type="line"/>
      <point x="569" y="1458" type="line" smooth="yes"/>
      <point x="768" y="1458"/>
      <point x="891" y="1288"/>
      <point x="891" y="1011" type="curve" smooth="yes"/>
      <point x="891" y="734"/>
      <point x="767" y="561"/>
      <point x="569" y="561" type="curve" smooth="yes"/>
    </contour>
  </outline>
</glyph>
<glyph name="Q" format="2">
  <advance width="1730"/>
  <unicode hex="0051"/>
  <outline>
    <contour>
      <point x="1582" y="-275" type="curve"/>
      <point x="1640" y="-12" type="line"/>
      <point x="1460" y="-5"/>
      <point x="1358" y="2"/>
      <point x="1178" y="27" type="curve"/>
      <point x="1469" y="140"/>
      <point x="1660" y="412"/>
      <point x="1660" y="750" type="curve" smooth="yes" name="sh03.1"/>
      <point x="1660" y="1197"/>
      <point x="1326" y="1530"/>
      <point x="866" y="1530" type="curve" smooth="yes" name="at01.1"/>
      <point x="406" y="1530"/>
      <point x="70" y="1197"/>
      <point x="70" y="750" type="curve" smooth="yes" name="sh01.1"/>
      <point x="70" y="303"/>
      <point x="406" y="-29"/>
      <point x="866" y="-29" type="curve" smooth="yes" name="dv01.1"/>
      <point x="913" y="-29" type="line"/>
      <point x="1136" y="-151"/>
      <point x="1297" y="-211"/>
    </contour>
    <contour>
      <point x="866" y="12" type="curve" smooth="yes" name="dv02.1"/>
      <point x="644" y="12"/>
      <point x="475" y="334"/>
      <point x="475" y="749" type="curve" smooth="yes" name="sh02.1"/>
      <point x="475" y="1166"/>
      <point x="644" y="1488"/>
      <point x="866" y="1488" type="curve" smooth="yes" name="sv01.1"/>
      <point x="1088" y="1488"/>
      <point x="1255" y="1166"/>
      <point x="1255" y="749" type="curve" smooth="yes" name="ah01.1"/>
      <point x="1255" y="334"/>
      <point x="1088" y="12"/>
    </contour>
  </outline>
</glyph>
<glyph name="R" format="2">
  <advance width="1474"/>
  <unicode hex="0052"/>
  <anchor x="709" y="0" name="bottom"/>
  <anchor x="667" y="1500" name="top"/>
  <outline>
    <contour>
      <point x="1424" y="0" type="line"/>
      <point x="1028" y="716" type="line"/>
      <point x="1233.58" y="779.799"/>
      <point x="1338" y="906.713"/>
      <point x="1338" y="1092.76" type="curve" smooth="yes"/>
      <point x="1338" y="1350.41"/>
      <point x="1128.99" y="1500"/>
      <point x="769" y="1500" type="curve" smooth="yes"/>
      <point x="120" y="1500" type="line"/>
      <point x="120" y="0" type="line"/>
      <point x="516" y="0" type="line"/>
      <point x="516" y="679" type="line"/>
      <point x="630" y="679" type="line"/>
      <point x="986" y="0" type="line"/>
    </contour>
    <contour>
      <point x="516" y="721" type="line"/>
      <point x="516" y="1458" type="line"/>
      <point x="608" y="1458" type="line" smooth="yes"/>
      <point x="815.483" y="1458"/>
      <point x="933" y="1324.75"/>
      <point x="933" y="1089.5" type="curve" smooth="yes"/>
      <point x="933" y="854.814"/>
      <point x="814.983" y="721"/>
      <point x="608" y="721" type="curve" smooth="yes"/>
    </contour>
  </outline>
</glyph>
<glyph name="S" format="2">
  <advance width="1292"/>
  <unicode hex="0053"/>
  <anchor x="641" y="0" name="bottom"/>
  <anchor x="690" y="1500" name="top"/>
  <outline>
    <contour>
      <point x="50" y="172" type="line"/>
      <point x="219" y="40"/>
      <point x="423" y="-30"/>
      <point x="638" y="-30" type="curve" smooth="yes"/>
      <point x="987" y="-30"/>
      <point x="1222" y="154"/>
      <point x="1222" y="429" type="curve" smooth="yes"/>
      <point x="1222" y="685"/>
      <point x="1018" y="781"/>
      <point x="822" y="873" type="curve" smooth="yes"/>
      <point x="647" y="955"/>
      <point x="478" y="1035"/>
      <point x="478" y="1228" type="curve" smooth="yes"/>
      <point x="478" y="1383"/>
      <point x="587" y="1479"/>
      <point x="761" y="1479" type="curve" smooth="yes"/>
      <point x="874" y="1479"/>
      <point x="1019" y="1438"/>
      <point x="1159" y="1366" type="curve"/>
      <point x="1178" y="1406" type="line"/>
      <point x="1010" y="1488"/>
      <point x="845" y="1530"/>
      <point x="686" y="1530" type="curve" smooth="yes"/>
      <point x="359" y="1530"/>
      <point x="143" y="1352"/>
      <point x="143" y="1084" type="curve" smooth="yes"/>
      <point x="143" y="820"/>
      <point x="353" y="729"/>
      <point x="550" y="644" type="curve" smooth="yes"/>
      <point x="726" y="568"/>
      <point x="892" y="496"/>
      <point x="892" y="309" type="curve" smooth="yes"/>
      <point x="892" y="141"/>
      <point x="757" y="30"/>
      <point x="555" y="30" type="curve" smooth="yes"/>
      <point x="390" y="30"/>
      <point x="187" y="104"/>
      <point x="71" y="206" type="curve"/>
    </contour>
  </outline>
</glyph>
<glyph name="T" format="1">
  <advance width="1308"/>
  <unicode hex="0054"/>
  <outline>
    <contour>
      <point x="852" y="0" type="line"/>
      <point x="852" y="1458" type="line"/>
      <point x="1298" y="1458" type="line"/>
      <point x="1298" y="1500" type="line"/>
      <point x="10" y="1500" type="line"/>
      <point x="10" y="1458" type="line"/>
      <point x="456" y="1458" type="line"/>
      <point x="456" y="0" type="line"/>
    </contour>
  </outline>
</glyph>
<glyph name="U" format="2">
  <advance width="1584"/>
  <unicode hex="0055"/>
  <anchor x="792" y="0" name="bottom"/>
  <anchor x="1045" y="0" name="ogonek"/>
  <anchor x="792" y="1500" name="top"/>
  <anchor x="1564" y="1500" name="topright"/>
  <outline>
    <contour>
      <point x="1464" y="1500" type="line"/>
      <point x="1068" y="1500" type="line"/>
      <point x="1068" y="557" type="line" smooth="yes"/>
      <point x="1068" y="191"/>
      <point x="977" y="12"/>
      <point x="792" y="12" type="curve" smooth="yes"/>
      <point x="607" y="12"/>
      <point x="516" y="191"/>
      <point x="516" y="557" type="curve" smooth="yes"/>
      <point x="516" y="1500" type="line"/>
      <point x="120" y="1500" type="line"/>
      <point x="120" y="657" type="line" smooth="yes"/>
      <point x="120" y="222"/>
      <point x="367" y="-30"/>
      <point x="792" y="-30" type="curve" smooth="yes"/>
      <point x="1217" y="-30"/>
      <point x="1464" y="222"/>
      <point x="1464" y="657" type="curve" smooth="yes"/>
    </contour>
  </outline>
</glyph>
<glyph name="V" format="1">
  <advance width="1450"/>
  <unicode hex="0056"/>
  <outline>
    <contour>
      <point x="775" y="0" type="line"/>
      <point x="1420" y="1500" type="line" name="n7"/>
      <point x="1372" y="1500" type="line" name="n0"/>
      <point x="917" y="441" type="line"/>
      <point x="461" y="1500" type="line" name="ab02"/>
      <point x="30" y="1500" type="line"/>
      <point x="676" y="0" type="line" name="at02"/>
    </contour>
  </outline>
</glyph>
<glyph name="X" format="1">
  <advance width="1592"/>
  <unicode hex="0058"/>
  <outline>
    <contour>
      <point x="1562" y="0" type="line"/>
      <point x="950" y="874" type="line"/>
      <point x="1439" y="1500" type="line"/>
      <point x="1383" y="1500" type="line"/>
      <point x="924" y="912" type="line"/>
      <point x="529" y="1500" type="line"/>
      <point x="30" y="1500" type="line"/>
      <point x="598" y="683" type="line"/>
      <point x="65" y="0" type="line"/>
      <point x="120" y="0" type="line"/>
      <point x="625" y="646" type="line"/>
      <point x="1063" y="0" type="line"/>
    </contour>
  </outline>
</glyph>
<glyph name="Y" format="1">
  <advance width="1497"/>
  <unicode hex="0059"/>
  <outline>
    <contour>
      <point x="984" y="0" type="line"/>
      <point x="984" y="757" type="line"/>
      <point x="1467" y="1500" type="line"/>
      <point x="1415" y="1500" type="line"/>
      <point x="959" y="797" type="line"/>
      <point x="502" y="1500" type="line"/>
      <point x="30" y="1500" type="line"/>
      <point x="588" y="641" type="line"/>
      <point x="588" y="0" type="line"/>
    </contour>
  </outline>
</glyph>
<glyph name="Z" format="2">
  <advance width="1434"/>
  <unicode hex="005A"/>
  <anchor x="717" y="0" name="bottom"/>
  <anchor x="717" y="750" name="center"/>
  <anchor x="717" y="1500" name="top"/>
  <outline>
    <contour>
      <point x="1364" y="0" type="line"/>
      <point x="1364" y="42" type="line"/>
      <point x="559" y="42" type="line"/>
      <point x="1324" y="1448" type="line"/>
      <point x="1324" y="1500" type="line"/>
      <point x="130" y="1500" type="line"/>
      <point x="130" y="1458" type="line"/>
      <point x="847" y="1458" type="line"/>
      <point x="70" y="42" type="line"/>
      <point x="70" y="0" type="line"/>
    </contour>
  </outline>
</glyph>
<glyph name="bracketleft" format="1">
  <advance width="730"/>
  <unicode hex="005B"/>
  <outline>
    <contour>
      <point x="690" y="-289" type="line"/>
      <point x="690" y="-247" type="line"/>
      <point x="440" y="-247" type="line"/>
      <point x="440" y="1498" type="line"/>
      <point x="690" y="1498" type="line"/>
      <point x="690" y="1540" type="line"/>
      <point x="120" y="1540" type="line"/>
      <point x="120" y="-289" type="line"/>
    </contour>
  </outline>
</glyph>
<glyph name="backslash" format="2">
  <advance width="1045"/>
  <unicode hex="005C"/>
  <outline>
    <contour>
      <point x="1015" y="-20" type="line"/>
      <point x="376" y="1520" type="line"/>
      <point x="30" y="1520" type="line"/>
      <point x="669" y="-20" type="line"/>
    </contour>
  </outline>
</glyph>
<glyph name="bracketright" format="2">
  <advance width="730"/>
  <unicode hex="005D"/>
  <outline>
    <contour>
      <point x="610" y="-289" type="line"/>
      <point x="610" y="1540" type="line"/>
      <point x="40" y="1540" type="line"/>
      <point x="40" y="1498" type="line"/>
      <point x="290" y="1498" type="line"/>
      <point x="290" y="-247" type="line"/>
      <point x="40" y="-247" type="line"/>
      <point x="40" y="-289" type="line"/>
    </contour>
  </outline>
</glyph>
<glyph name="asciicircum" format="2">
  <advance width="1129"/>
  <unicode hex="005E"/>
  <outline>
    <contour>
      <point x="1089" y="700" type="line"/>
      <point x="663" y="1500" type="line"/>
      <point x="466" y="1500" type="line"/>
      <point x="40" y="700" type="line"/>
      <point x="318" y="700" type="line"/>
      <point x="565" y="1215" type="line"/>
      <point x="811" y="700" type="line"/>
    </contour>
  </outline>
</glyph>
<glyph name="underscore" format="2">
  <advance width="1343"/>
  <unicode hex="005F"/>
  <outline>
    <contour>
      <point x="1223" y="0" type="line"/>
      <point x="1223" y="290" type="line"/>
      <point x="120" y="290" type="line"/>
      <point x="120" y="0" type="line"/>
    </contour>
  </outline>
</glyph>
<glyph name="grave" format="1">
  <advance width="571"/>
  <unicode hex="0060"/>
  <outline>
    <contour>
      <point x="511" y="1160" type="line"/>
      <point x="380" y="1500" type="line"/>
      <point x="50" y="1500" type="line" name="at01"/>
      <point x="251" y="1160" type="line" name="av01"/>
    </contour>
  </outline>
</glyph>
<glyph name="b" format="1">
  <advance width="1326"/>
  <unicode hex="0062"/>
  <outline>
    <contour>
      <point x="443" y="0" type="line"/>
      <point x="482" y="129" type="line"/>
      <point x="562" y="35"/>
      <point x="676" y="-20"/>
      <point x="807" y="-20" type="curve" smooth="yes" name="dv01"/>
      <point x="1068" y="-20"/>
      <point x="1256" y="200"/>
      <point x="1256" y="500" type="curve" smooth="yes" name="sh03"/>
      <point x="1256" y="800"/>
      <point x="1068" y="1020"/>
      <point x="807" y="1020" type="curve" smooth="yes" name="at01"/>
      <point x="679" y="1020"/>
      <point x="569" y="967"/>
      <point x="489" y="878" type="curve"/>
      <point x="489" y="1500" type="line"/>
      <point x="120" y="1500" type="line" name="at01"/>
      <point x="120" y="0" type="line" name="dh01"/>
    </contour>
    <contour>
      <point x="637" y="86" type="curve" smooth="yes" name="dv02"/>
      <point x="580" y="86"/>
      <point x="529" y="115"/>
      <point x="489" y="166" type="curve" name="dh02"/>
      <point x="489" y="831" type="line"/>
      <point x="529" y="883"/>
      <point x="580" y="913"/>
      <point x="637" y="913" type="curve" smooth="yes" name="sv01"/>
      <point x="776" y="913"/>
      <point x="878" y="736"/>
      <point x="878" y="500" type="curve" smooth="yes" name="ah01"/>
      <point x="878" y="257"/>
      <point x="776" y="86"/>
    </contour>
  </outline>
</glyph>
<glyph name="d" format="2">
  <advance width="1326"/>
  <unicode hex="0064"/>
  <outline>
    <contour>
      <point x="1206" y="0" type="line" name="dh01"/>
      <point x="1206" y="1500" type="line" name="at01"/>
      <point x="838" y="1500" type="line"/>
      <point x="838" y="878" type="line"/>
      <point x="758" y="967"/>
      <point x="647" y="1020"/>
      <point x="519" y="1020" type="curve" smooth="yes" name="at01.1"/>
      <point x="258" y="1020"/>
      <point x="70" y="800"/>
      <point x="70" y="500" type="curve" smooth="yes" name="sh03"/>
      <point x="70" y="200"/>
      <point x="258" y="-20"/>
      <point x="519" y="-20" type="curve" smooth="yes" name="dv01"/>
      <point x="650" y="-20"/>
      <point x="764" y="35"/>
      <point x="844" y="129" type="curve"/>
      <point x="883" y="0" type="line"/>
    </contour>
    <contour>
      <point x="689" y="86" type="curve" smooth="yes" name="dv02"/>
      <point x="550" y="86"/>
      <point x="448" y="258"/>
      <point x="448" y="497" type="curve" smooth="yes" name="ah01"/>
      <point x="448" y="736"/>
      <point x="550" y="913"/>
      <point x="689" y="913" type="curve" smooth="yes" name="sv01"/>
      <point x="747" y="913"/>
      <point x="798" y="883"/>
      <point x="838" y="831" type="curve"/>
      <point x="838" y="166" type="line" name="dh02"/>
      <point x="798" y="115"/>
      <point x="747" y="86"/>
    </contour>
  </outline>
</glyph>
<glyph name="e" format="1">
  <advance width="1223"/>
  <unicode hex="0065"/>
  <outline>
    <contour>
      <point x="1072" y="105" type="curve"/>
      <point x="1055" y="135" type="line"/>
      <point x="944" y="75"/>
      <point x="843" y="43"/>
      <point x="759" y="43" type="curve" smooth="yes"/>
      <point x="558" y="43"/>
      <point x="422" y="220"/>
      <point x="422" y="499" type="curve"/>
      <point x="1153" y="499" type="line"/>
      <point x="1153" y="502" type="line" smooth="yes"/>
      <point x="1153" y="808"/>
      <point x="932" y="1020"/>
      <point x="614" y="1020" type="curve" smooth="yes"/>
      <point x="297" y="1020"/>
      <point x="70" y="809"/>
      <point x="70" y="513" type="curve" smooth="yes"/>
      <point x="70" y="204"/>
      <point x="317" y="-20"/>
      <point x="659" y="-20" type="curve" smooth="yes"/>
      <point x="809" y="-20"/>
      <point x="951" y="23"/>
    </contour>
    <contour>
      <point x="422" y="536" type="line"/>
      <point x="422" y="776"/>
      <point x="517" y="982"/>
      <point x="622" y="982" type="curve" smooth="yes"/>
      <point x="721" y="982"/>
      <point x="801" y="798"/>
      <point x="815" y="536" type="curve"/>
    </contour>
  </outline>
</glyph>
<glyph name="h" format="2">
  <advance width="1259"/>
  <unicode hex="0068"/>
  <anchor x="630" y="0" name="bottom"/>
  <anchor x="630" y="500" name="center"/>
  <anchor x="304" y="1500" name="top"/>
  <outline>
    <contour>
      <point x="120" y="0" type="line" name="at01"/>
      <point x="489" y="0" type="line"/>
      <point x="489" y="669" type="line" smooth="yes"/>
      <point x="489" y="793"/>
      <point x="547" y="867"/>
      <point x="644" y="867" type="curve" smooth="yes" name="sv01"/>
      <point x="737" y="867"/>
      <point x="790" y="796"/>
      <point x="790" y="669" type="curve" smooth="yes"/>
      <point x="790" y="0" type="line" name="dh02"/>
      <point x="1159" y="0" type="line" name="ab02"/>
      <point x="1159" y="583" type="line" smooth="yes"/>
      <point x="1159" y="852"/>
      <point x="1016" y="1020"/>
      <point x="787" y="1020" type="curve" smooth="yes" name="at02"/>
      <point x="652" y="1020"/>
      <point x="550" y="962"/>
      <point x="489" y="855" type="curve"/>
      <point x="489" y="1500" type="line"/>
      <point x="120" y="1500" type="line" name="dh01"/>
    </contour>
  </outline>
</glyph>
<glyph name="i" format="2">
  <advance width="609"/>
  <unicode hex="0069"/>
  <outline>
    <contour>
      <point x="304" y="1188" type="curve" smooth="yes"/>
      <point x="394" y="1188"/>
      <point x="464" y="1259"/>
      <point x="464" y="1349" type="curve" smooth="yes"/>
      <point x="464" y="1438"/>
      <point x="394" y="1510"/>
      <point x="304" y="1510" type="curve" smooth="yes"/>
      <point x="214" y="1510"/>
      <point x="144" y="1438"/>
      <point x="144" y="1349" type="curve" smooth="yes"/>
      <point x="144" y="1259"/>
      <point x="214" y="1188"/>
    </contour>
    <contour>
      <point x="489" y="0" type="line"/>
      <point x="489" y="1000" type="line"/>
      <point x="120" y="1000" type="line"/>
      <point x="120" y="0" type="line"/>
    </contour>
  </outline>
</glyph>
<glyph name="j" format="1">
  <advance width="604"/>
  <unicode hex="006A"/>
  <outline>
    <contour>
      <point x="308" y="1189" type="curve" smooth="yes"/>
      <point x="398" y="1189"/>
      <point x="469" y="1260"/>
      <point x="469" y="1350" type="curve" smooth="yes"/>
      <point x="469" y="1440"/>
      <point x="398" y="1510"/>
      <point x="308" y="1510" type="curve" smooth="yes"/>
      <point x="219" y="1510"/>
      <point x="149" y="1440"/>
      <point x="149" y="1350" type="curve" smooth="yes"/>
      <point x="149" y="1259"/>
      <point x="218" y="1189"/>
    </contour>
    <contour>
      <point x="-149" y="-497" type="line"/>
      <point x="-80" y="-513"/>
      <point x="-15" y="-520"/>
      <point x="48" y="-520" type="curve" smooth="yes"/>
      <point x="335" y="-520"/>
      <point x="494" y="-361"/>
      <point x="494" y="-69" type="curve" smooth="yes"/>
      <point x="494" y="1000" type="line"/>
      <point x="125" y="1000" type="line"/>
      <point x="125" y="-197" type="line" smooth="yes"/>
      <point x="125" y="-367"/>
      <point x="46" y="-463"/>
      <point x="-92" y="-463" type="curve" smooth="yes"/>
      <point x="-109" y="-463"/>
      <point x="-126" y="-462"/>
      <point x="-143" y="-459" type="curve"/>
    </contour>
  </outline>
</glyph>
<glyph name="k" format="2">
  <advance width="1283"/>
  <unicode hex="006B"/>
  <anchor x="586" y="0" name="bottom"/>
  <anchor x="642" y="1500" name="top"/>
  <outline>
    <contour>
      <point x="489" y="0" type="line"/>
      <point x="489" y="304" type="line"/>
      <point x="536" y="356" type="line"/>
      <point x="820" y="0" type="line"/>
      <point x="1253" y="0" type="line"/>
      <point x="759" y="607" type="line"/>
      <point x="1109" y="1000" type="line"/>
      <point x="1058" y="1000" type="line"/>
      <point x="522" y="396" type="line"/>
      <point x="489" y="359" type="line"/>
      <point x="489" y="1500" type="line"/>
      <point x="120" y="1500" type="line"/>
      <point x="120" y="0" type="line"/>
    </contour>
  </outline>
</glyph>
<glyph name="l" format="2">
  <advance width="636"/>
  <unicode hex="006C"/>
  <anchor x="318" y="0" name="bottom"/>
  <anchor x="318" y="500" name="center"/>
  <anchor x="318" y="1500" name="top"/>
  <anchor x="616" y="1500" name="topright"/>
  <outline>
    <contour>
      <point x="516" y="0" type="line"/>
      <point x="516" y="1500" type="line" name="av01"/>
      <point x="120" y="1500" type="line" name="dh01"/>
      <point x="120" y="0" type="line" name="ab01"/>
    </contour>
  </outline>
</glyph>
<glyph name="n" format="2">
  <advance width="1259"/>
  <unicode hex="006E"/>
  <anchor x="630" y="0" name="bottom"/>
  <anchor x="650" y="1000" name="top"/>
  <outline>
    <contour>
      <point x="1159" y="0" type="line" name="ab02"/>
      <point x="1159" y="583" type="line" smooth="yes"/>
      <point x="1159" y="852"/>
      <point x="1016" y="1020"/>
      <point x="787" y="1020" type="curve" smooth="yes" name="at02"/>
      <point x="625" y="1020"/>
      <point x="509" y="935"/>
      <point x="457" y="783" type="curve"/>
      <point x="440" y="1000" type="line"/>
      <point x="120" y="1000" type="line" name="dh01"/>
      <point x="120" y="0" type="line" name="at01"/>
      <point x="489" y="0" type="line"/>
      <point x="489" y="669" type="line" smooth="yes"/>
      <point x="489" y="793"/>
      <point x="547" y="867"/>
      <point x="643" y="867" type="curve" smooth="yes" name="sv01"/>
      <point x="737" y="867"/>
      <point x="790" y="796"/>
      <point x="790" y="669" type="curve" smooth="yes"/>
      <point x="790" y="0" type="line" name="dh02"/>
    </contour>
  </outline>
</glyph>
<glyph name="o" format="1">
  <advance width="1227"/>
  <unicode hex="006F"/>
  <outline>
    <contour>
      <point x="614" y="-20" type="curve" smooth="yes" name="dv01"/>
      <point x="932" y="-20"/>
      <point x="1157" y="195"/>
      <point x="1157" y="500" type="curve" smooth="yes" name="sh03"/>
      <point x="1157" y="800"/>
      <point x="927" y="1020"/>
      <point x="614" y="1020" type="curve" smooth="yes" name="at01"/>
      <point x="300" y="1020"/>
      <point x="70" y="800"/>
      <point x="70" y="500" type="curve" smooth="yes" name="sh01"/>
      <point x="70" y="200"/>
      <point x="300" y="-20"/>
    </contour>
    <contour>
      <point x="614" y="18" type="curve" smooth="yes" name="dv02"/>
      <point x="507" y="18"/>
      <point x="448" y="190"/>
      <point x="448" y="500" type="curve" smooth="yes" name="sh02"/>
      <point x="448" y="810"/>
      <point x="507" y="982"/>
      <point x="614" y="982" type="curve" smooth="yes" name="sv01"/>
      <point x="721" y="982"/>
      <point x="780" y="810"/>
      <point x="780" y="500" type="curve" smooth="yes" name="ah01"/>
      <point x="780" y="190"/>
      <point x="721" y="18"/>
    </contour>
  </outline>
</glyph>
<glyph name="p" format="2">
  <advance width="1326"/>
  <unicode hex="0070"/>
  <outline>
    <contour>
      <point x="489" y="-500" type="line"/>
      <point x="489" y="122" type="line"/>
      <point x="569" y="33"/>
      <point x="679" y="-20"/>
      <point x="807" y="-20" type="curve" smooth="yes" name="at01"/>
      <point x="1067" y="-20"/>
      <point x="1256" y="199"/>
      <point x="1256" y="500" type="curve" smooth="yes" name="sh03"/>
      <point x="1256" y="801"/>
      <point x="1067" y="1020"/>
      <point x="807" y="1020" type="curve" smooth="yes" name="dv01"/>
      <point x="676" y="1020"/>
      <point x="562" y="965"/>
      <point x="482" y="871" type="curve"/>
      <point x="443" y="1000" type="line"/>
      <point x="120" y="1000" type="line" name="dh01"/>
      <point x="120" y="-500" type="line" name="at01"/>
    </contour>
    <contour>
      <point x="637" y="86" type="curve" smooth="yes"/>
      <point x="579" y="86"/>
      <point x="529" y="115"/>
      <point x="489" y="166" type="curve"/>
      <point x="489" y="833" type="line" name="dh02"/>
      <point x="529" y="884"/>
      <point x="579" y="914"/>
      <point x="637" y="914" type="curve" smooth="yes" name="dv02"/>
      <point x="777" y="914"/>
      <point x="878" y="741"/>
      <point x="878" y="499" type="curve" smooth="yes" name="ah01"/>
      <point x="878" y="258"/>
      <point x="778" y="86"/>
    </contour>
  </outline>
</glyph>
<glyph name="q" format="2">
  <advance width="1326"/>
  <unicode hex="0071"/>
  <outline>
    <contour>
      <point x="1206" y="-500" type="line" name="at01"/>
      <point x="1206" y="1000" type="line" name="dh01"/>
      <point x="883" y="1000" type="line"/>
      <point x="844" y="871" type="line"/>
      <point x="764" y="965"/>
      <point x="650" y="1020"/>
      <point x="519" y="1020" type="curve" smooth="yes" name="dv01"/>
      <point x="258" y="1020"/>
      <point x="70" y="800"/>
      <point x="70" y="500" type="curve" smooth="yes" name="sh03"/>
      <point x="70" y="200"/>
      <point x="258" y="-20"/>
      <point x="519" y="-20" type="curve" smooth="yes" name="at01"/>
      <point x="647" y="-20"/>
      <point x="758" y="33"/>
      <point x="838" y="122" type="curve"/>
      <point x="838" y="-500" type="line"/>
    </contour>
    <contour>
      <point x="689" y="87" type="curve" smooth="yes" name="sv01"/>
      <point x="550" y="87"/>
      <point x="448" y="264"/>
      <point x="448" y="503" type="curve" smooth="yes" name="ah01"/>
      <point x="448" y="742"/>
      <point x="550" y="914"/>
      <point x="689" y="914" type="curve" smooth="yes" name="dv02"/>
      <point x="747" y="914"/>
      <point x="798" y="885"/>
      <point x="838" y="834" type="curve" name="dh02"/>
      <point x="838" y="169" type="line"/>
      <point x="798" y="117"/>
      <point x="747" y="87"/>
    </contour>
  </outline>
</glyph>
<glyph name="r" format="1">
  <advance width="939"/>
  <unicode hex="0072"/>
  <outline>
    <contour>
      <point x="489" y="0" type="line"/>
      <point x="489" y="654" type="line" smooth="yes"/>
      <point x="489" y="847"/>
      <point x="611" y="982"/>
      <point x="786" y="982" type="curve" smooth="yes"/>
      <point x="823" y="982"/>
      <point x="860" y="977"/>
      <point x="898" y="965" type="curve"/>
      <point x="909" y="1005" type="line"/>
      <point x="866" y="1015"/>
      <point x="825" y="1020"/>
      <point x="787" y="1020" type="curve" smooth="yes"/>
      <point x="618" y="1020"/>
      <point x="503" y="923"/>
      <point x="459" y="751" type="curve"/>
      <point x="440" y="1000" type="line"/>
      <point x="120" y="1000" type="line" name="dh01"/>
      <point x="120" y="0" type="line" name="at01"/>
    </contour>
  </outline>
</glyph>
<glyph name="s" format="2">
  <advance width="949"/>
  <unicode hex="0073"/>
  <anchor x="475" y="0" name="bottom"/>
  <anchor x="495" y="1000" name="top"/>
  <outline>
    <contour>
      <point x="50" y="84" type="line"/>
      <point x="172" y="16"/>
      <point x="312" y="-20"/>
      <point x="450" y="-20" type="curve" smooth="yes"/>
      <point x="695" y="-20"/>
      <point x="899" y="97"/>
      <point x="899" y="299" type="curve" smooth="yes"/>
      <point x="899" y="462"/>
      <point x="767" y="537"/>
      <point x="644" y="607" type="curve" smooth="yes"/>
      <point x="536" y="668"/>
      <point x="435" y="726"/>
      <point x="435" y="835" type="curve" smooth="yes"/>
      <point x="435" y="918"/>
      <point x="494" y="968"/>
      <point x="591" y="968" type="curve" smooth="yes"/>
      <point x="665" y="968"/>
      <point x="768" y="939"/>
      <point x="839" y="897" type="curve"/>
      <point x="856" y="933" type="line"/>
      <point x="742" y="989"/>
      <point x="616" y="1020"/>
      <point x="495" y="1020" type="curve" smooth="yes"/>
      <point x="244" y="1020"/>
      <point x="67" y="892"/>
      <point x="67" y="710" type="curve" smooth="yes"/>
      <point x="67" y="555"/>
      <point x="194" y="485"/>
      <point x="315" y="417" type="curve" smooth="yes"/>
      <point x="425" y="355"/>
      <point x="531" y="297"/>
      <point x="531" y="179" type="curve" smooth="yes"/>
      <point x="531" y="86"/>
      <point x="465" y="29"/>
      <point x="356" y="29" type="curve" smooth="yes"/>
      <point x="278" y="29"/>
      <point x="187" y="58"/>
      <point x="67" y="120" type="curve"/>
    </contour>
  </outline>
</glyph>
<glyph name="t" format="1">
  <advance width="896"/>
  <unicode hex="0074"/>
  <outline>
    <contour>
      <point x="861" y="28" type="curve"/>
      <point x="852" y="64" type="line"/>
      <point x="816" y="54"/>
      <point x="785" y="49"/>
      <point x="756" y="49" type="curve" smooth="yes"/>
      <point x="650" y="49"/>
      <point x="594" y="118"/>
      <point x="594" y="243" type="curve" smooth="yes"/>
      <point x="594" y="962" type="line"/>
      <point x="857" y="962" type="line"/>
      <point x="857" y="1000" type="line"/>
      <point x="594" y="1000" type="line"/>
      <point x="594" y="1250" type="line"/>
      <point x="225" y="1250" type="line"/>
      <point x="225" y="1000" type="line"/>
      <point x="50" y="1000" type="line"/>
      <point x="50" y="962" type="line"/>
      <point x="225" y="962" type="line"/>
      <point x="225" y="399" type="line" smooth="yes"/>
      <point x="225" y="129"/>
      <point x="363" y="-16"/>
      <point x="604" y="-16" type="curve" smooth="yes"/>
      <point x="680" y="-16"/>
      <point x="766" y="-1"/>
    </contour>
  </outline>
</glyph>
<glyph name="u" format="2">
  <advance width="1259"/>
  <unicode hex="0075"/>
  <anchor x="630" y="0" name="bottom"/>
  <anchor x="1133" y="10" name="ogonek"/>
  <anchor x="630" y="1000" name="top"/>
  <anchor x="1239" y="1000" name="topright"/>
  <outline>
    <contour>
      <point x="1139" y="0" type="line" name="dh01"/>
      <point x="1139" y="1000" type="line" name="at01"/>
      <point x="770" y="1000" type="line"/>
      <point x="770" y="331" type="line" smooth="yes"/>
      <point x="770" y="207"/>
      <point x="712" y="133"/>
      <point x="616" y="133" type="curve" smooth="yes" name="sv01"/>
      <point x="522" y="133"/>
      <point x="469" y="204"/>
      <point x="469" y="331" type="curve" smooth="yes"/>
      <point x="469" y="1000" type="line" name="dh02"/>
      <point x="100" y="1000" type="line" name="ab02"/>
      <point x="100" y="417" type="line" smooth="yes"/>
      <point x="100" y="148"/>
      <point x="243" y="-20"/>
      <point x="472" y="-20" type="curve" smooth="yes" name="at02"/>
      <point x="634" y="-20"/>
      <point x="750" y="65"/>
      <point x="802" y="217" type="curve"/>
      <point x="819" y="0" type="line"/>
    </contour>
  </outline>
</glyph>
<glyph name="v" format="2">
  <advance width="1058"/>
  <unicode hex="0076"/>
  <outline>
    <contour>
      <point x="1018" y="1000" type="line"/>
      <point x="973" y="1000" type="line"/>
      <point x="720" y="409" type="line"/>
      <point x="430" y="1000" type="line"/>
      <point x="40" y="1000" type="line"/>
      <point x="545" y="0" type="line"/>
      <point x="590" y="0" type="line"/>
    </contour>
  </outline>
</glyph>
<glyph name="w" format="1">
  <advance width="1635"/>
  <unicode hex="0077"/>
  <outline>
    <contour>
      <point x="1196" y="0" type="line"/>
      <point x="1605" y="1000" type="line"/>
      <point x="1563" y="1000" type="line"/>
      <point x="1314" y="390" type="line"/>
      <point x="1028" y="1000" type="line"/>
      <point x="928" y="1000" type="line"/>
      <point x="679" y="390" type="line"/>
      <point x="443" y="1000" type="line"/>
      <point x="30" y="1000" type="line"/>
      <point x="463" y="0" type="line"/>
      <point x="562" y="0" type="line"/>
      <point x="807" y="598" type="line"/>
      <point x="1097" y="0" type="line"/>
    </contour>
  </outline>
</glyph>
<glyph name="x" format="2">
  <advance width="1310"/>
  <unicode hex="0078"/>
  <outline>
    <contour>
      <point x="82" y="0" type="line"/>
      <point x="482" y="401" type="line"/>
      <point x="773" y="0" type="line"/>
      <point x="1280" y="0" type="line"/>
      <point x="806" y="652" type="line"/>
      <point x="1127" y="1000" type="line"/>
      <point x="1075" y="1000" type="line"/>
      <point x="782" y="685" type="line"/>
      <point x="553" y="1000" type="line"/>
      <point x="46" y="1000" type="line"/>
      <point x="457" y="435" type="line"/>
      <point x="30" y="0" type="line"/>
    </contour>
  </outline>
</glyph>
<glyph name="z" format="2">
  <advance width="1171"/>
  <unicode hex="007A"/>
  <anchor x="586" y="0" name="bottom"/>
  <anchor x="586" y="500" name="center"/>
  <anchor x="606" y="1000" name="top"/>
  <outline>
    <contour>
      <point x="1131" y="0" type="line"/>
      <point x="1131" y="38" type="line"/>
      <point x="490" y="38" type="line"/>
      <point x="1115" y="964" type="line"/>
      <point x="1115" y="1000" type="line"/>
      <point x="87" y="1000" type="line"/>
      <point x="87" y="962" type="line"/>
      <point x="662" y="962" type="line"/>
      <point x="40" y="38" type="line"/>
      <point x="40" y="0" type="line"/>
    </contour>
  </outline>
</glyph>
<glyph name="braceleft" format="1">
  <advance width="724"/>
  <unicode hex="007B"/>
  <outline>
    <contour>
      <point x="684" y="-289" type="curve"/>
      <point x="684" y="-251" type="line"/>
      <point x="574" y="-251"/>
      <point x="524" y="-200"/>
      <point x="524" y="-87" type="curve" smooth="yes"/>
      <point x="524" y="392" type="line" smooth="yes"/>
      <point x="524" y="497"/>
      <point x="469" y="586"/>
      <point x="383" y="625" type="curve"/>
      <point x="469" y="664"/>
      <point x="524" y="754"/>
      <point x="524" y="859" type="curve" smooth="yes"/>
      <point x="524" y="1338" type="line" smooth="yes"/>
      <point x="524" y="1451"/>
      <point x="574" y="1502"/>
      <point x="684" y="1502" type="curve"/>
      <point x="684" y="1540" type="line"/>
      <point x="359" y="1540"/>
      <point x="204" y="1429"/>
      <point x="204" y="1195" type="curve" smooth="yes"/>
      <point x="204" y="859" type="line" smooth="yes"/>
      <point x="204" y="744"/>
      <point x="132" y="650"/>
      <point x="40" y="643" type="curve"/>
      <point x="40" y="608" type="line"/>
      <point x="132" y="601"/>
      <point x="204" y="507"/>
      <point x="204" y="392" type="curve" smooth="yes"/>
      <point x="204" y="56" type="line" smooth="yes"/>
      <point x="204" y="-178"/>
      <point x="359" y="-289"/>
    </contour>
  </outline>
</glyph>
<glyph name="bar" format="2">
  <advance width="560"/>
  <unicode hex="007C"/>
  <outline>
    <contour>
      <point x="440" y="-250" type="line"/>
      <point x="440" y="1540" type="line" name="av01"/>
      <point x="120" y="1540" type="line" name="dh01"/>
      <point x="120" y="-250" type="line" name="av02"/>
    </contour>
  </outline>
</glyph>
<glyph name="braceright" format="2">
  <advance width="724"/>
  <unicode hex="007D"/>
  <outline>
    <contour>
      <point x="40" y="-289" type="line"/>
      <point x="365" y="-289"/>
      <point x="520" y="-178"/>
      <point x="520" y="56" type="curve" smooth="yes"/>
      <point x="520" y="392" type="line" smooth="yes"/>
      <point x="520" y="507"/>
      <point x="592" y="601"/>
      <point x="684" y="608" type="curve"/>
      <point x="684" y="643" type="line"/>
      <point x="592" y="650"/>
      <point x="520" y="744"/>
      <point x="520" y="859" type="curve" smooth="yes"/>
      <point x="520" y="1195" type="line" smooth="yes"/>
      <point x="520" y="1429"/>
      <point x="365" y="1540"/>
      <point x="40" y="1540" type="curve"/>
      <point x="40" y="1502" type="line"/>
      <point x="150" y="1502"/>
      <point x="200" y="1451"/>
      <point x="200" y="1338" type="curve" smooth="yes"/>
      <point x="200" y="859" type="line" smooth="yes"/>
      <point x="200" y="754"/>
      <point x="256" y="664"/>
      <point x="342" y="625" type="curve"/>
      <point x="256" y="586"/>
      <point x="200" y="497"/>
      <point x="200" y="392" type="curve" smooth="yes"/>
      <point x="200" y="-87" type="line" smooth="yes"/>
      <point x="200" y="-200"/>
      <point x="150" y="-251"/>
      <point x="40" y="-251" type="curve"/>
    </contour>
  </outline>
</glyph>
<glyph name="asciitilde" format="2">
  <advance width="1282"/>
  <unicode hex="007E"/>
  <outline>
    <contour>
      <point x="1162" y="538" type="curve" name="iv01"/>
      <point x="1162" y="800" type="line" name="iv01"/>
      <point x="1070" y="700"/>
      <point x="982" y="652"/>
      <point x="885" y="652" type="curve" smooth="yes"/>
      <point x="804" y="652"/>
      <point x="726" y="686"/>
      <point x="649" y="721" type="curve" smooth="yes"/>
      <point x="571" y="756"/>
      <point x="493" y="791"/>
      <point x="408" y="791" type="curve" smooth="yes"/>
      <point x="311" y="791"/>
      <point x="219" y="744"/>
      <point x="120" y="647" type="curve"/>
      <point x="120" y="385" type="line"/>
      <point x="217" y="482"/>
      <point x="309" y="529"/>
      <point x="406" y="529" type="curve" smooth="yes"/>
      <point x="491" y="529"/>
      <point x="569" y="494"/>
      <point x="647" y="459" type="curve" smooth="yes"/>
      <point x="724" y="424"/>
      <point x="802" y="390"/>
      <point x="883" y="390" type="curve" smooth="yes"/>
      <point x="979" y="390"/>
      <point x="1068" y="438"/>
    </contour>
  </outline>
</glyph>
<glyph name="exclamdown" format="2">
  <advance width="538"/>
  <unicode hex="00A1"/>
  <outline>
    <contour>
      <point x="268" y="710" type="curve" smooth="yes"/>
      <point x="358" y="710"/>
      <point x="428" y="779"/>
      <point x="428" y="865" type="curve" smooth="yes"/>
      <point x="428" y="952"/>
      <point x="358" y="1020"/>
      <point x="268" y="1020" type="curve" smooth="yes"/>
      <point x="178" y="1020"/>
      <point x="110" y="952"/>
      <point x="110" y="865" type="curve" smooth="yes"/>
      <point x="110" y="779"/>
      <point x="178" y="710"/>
    </contour>
    <contour>
      <point x="418" y="-500" type="line"/>
      <point x="373" y="580" type="line"/>
      <point x="163" y="580" type="line"/>
      <point x="118" y="-500" type="line"/>
    </contour>
  </outline>
</glyph>
<glyph name="cent" format="1">
  <advance width="1055"/>
  <unicode hex="00A2"/>
  <outline>
    <contour>
      <point x="995" y="270" type="curve"/>
      <point x="968" y="300" type="line"/>
      <point x="900.4" y="232.4"/>
      <point x="809.5" y="192"/>
      <point x="725" y="192" type="curve" smooth="yes" name="sv01"/>
      <point x="551.098" y="192"/>
      <point x="448" y="362.838"/>
      <point x="448" y="651" type="curve" smooth="yes" name="sh02"/>
      <point x="448" y="939.563"/>
      <point x="552.734" y="1112"/>
      <point x="728" y="1112" type="curve" smooth="yes" name="sv01.1"/>
      <point x="809.667" y="1112"/>
      <point x="895.705" y="1073.28"/>
      <point x="968" y="1004" type="curve"/>
      <point x="995" y="1034" type="line"/>
      <point x="922.851" y="1099.23"/>
      <point x="829.217" y="1143.79"/>
      <point x="726" y="1162" type="curve"/>
      <point x="737" y="1363" type="line"/>
      <point x="497" y="1363" type="line"/>
      <point x="508" y="1163" type="line"/>
      <point x="246.486" y="1118.4"/>
      <point x="70" y="912.5"/>
      <point x="70" y="652" type="curve" smooth="yes" name="sh01"/>
      <point x="70" y="391"/>
      <point x="245.984" y="185.685"/>
      <point x="508" y="141" type="curve"/>
      <point x="497" y="-60" type="line"/>
      <point x="737" y="-60" type="line"/>
      <point x="726" y="141" type="line"/>
      <point x="828.341" y="158.885"/>
      <point x="921.527" y="203.573"/>
    </contour>
  </outline>
</glyph>
<glyph name="sterling" format="2">
  <advance width="1260"/>
  <unicode hex="00A3"/>
  <outline>
    <contour>
      <point x="986" y="744" type="line"/>
      <point x="986" y="782" type="line"/>
      <point x="659" y="782" type="line"/>
      <point x="627" y="875"/>
      <point x="606" y="993"/>
      <point x="606" y="1111" type="curve" smooth="yes"/>
      <point x="606" y="1300"/>
      <point x="703" y="1428"/>
      <point x="847" y="1428" type="curve" smooth="yes"/>
      <point x="949" y="1428"/>
      <point x="1055" y="1361"/>
      <point x="1138" y="1246" type="curve"/>
      <point x="1170" y="1268" type="line"/>
      <point x="1067" y="1426"/>
      <point x="895" y="1520"/>
      <point x="705" y="1520" type="curve" smooth="yes"/>
      <point x="435" y="1520"/>
      <point x="235" y="1332"/>
      <point x="235" y="1073" type="curve" smooth="yes"/>
      <point x="235" y="985"/>
      <point x="258" y="889"/>
      <point x="304" y="782" type="curve"/>
      <point x="90" y="782" type="line"/>
      <point x="90" y="744" type="line"/>
      <point x="315" y="744" type="line"/>
      <point x="334" y="683"/>
      <point x="349" y="622"/>
      <point x="349" y="557" type="curve" smooth="yes"/>
      <point x="349" y="393"/>
      <point x="254" y="262"/>
      <point x="90" y="200" type="curve"/>
      <point x="90" y="0" type="line"/>
      <point x="1140" y="0" type="line"/>
      <point x="1140" y="330" type="line"/>
      <point x="556" y="330" type="line"/>
      <point x="631" y="417"/>
      <point x="673" y="527"/>
      <point x="673" y="660" type="curve" smooth="yes"/>
      <point x="673" y="689"/>
      <point x="670" y="717"/>
      <point x="667" y="744" type="curve"/>
    </contour>
  </outline>
</glyph>
<glyph name="currency" format="1">
  <advance width="1268"/>
  <unicode hex="00A4"/>
  <outline>
    <contour>
      <point x="1177" y="379" type="line"/>
      <point x="1013" y="538" type="line"/>
      <point x="1056" y="607"/>
      <point x="1080" y="691"/>
      <point x="1080" y="784" type="curve" smooth="yes"/>
      <point x="1080" y="876"/>
      <point x="1056" y="958"/>
      <point x="1014" y="1027" type="curve"/>
      <point x="1178" y="1186" type="line"/>
      <point x="1037" y="1327" type="line"/>
      <point x="878" y="1163" type="line"/>
      <point x="809" y="1205"/>
      <point x="727" y="1230"/>
      <point x="634" y="1230" type="curve" smooth="yes"/>
      <point x="542" y="1230"/>
      <point x="458" y="1206"/>
      <point x="389" y="1163" type="curve"/>
      <point x="231" y="1325" type="line"/>
      <point x="90" y="1185" type="line"/>
      <point x="253" y="1027" type="line"/>
      <point x="211" y="958"/>
      <point x="188" y="875"/>
      <point x="188" y="783" type="curve" smooth="yes"/>
      <point x="188" y="690"/>
      <point x="212" y="607"/>
      <point x="254" y="538" type="curve"/>
      <point x="90" y="380" type="line"/>
      <point x="231" y="239" type="line"/>
      <point x="389" y="402" type="line"/>
      <point x="458" y="359"/>
      <point x="541" y="336"/>
      <point x="633" y="336" type="curve" smooth="yes"/>
      <point x="726" y="336"/>
      <point x="810" y="360"/>
      <point x="879" y="403" type="curve"/>
      <point x="1037" y="239" type="line"/>
    </contour>
    <contour>
      <point x="634" y="576" type="curve" smooth="yes"/>
      <point x="527" y="576"/>
      <point x="448" y="663"/>
      <point x="448" y="783" type="curve" smooth="yes"/>
      <point x="448" y="903"/>
      <point x="528" y="990"/>
      <point x="634" y="990" type="curve" smooth="yes"/>
      <point x="741" y="990"/>
      <point x="820" y="903"/>
      <point x="820" y="783" type="curve" smooth="yes"/>
      <point x="820" y="662"/>
      <point x="741" y="576"/>
    </contour>
  </outline>
</glyph>
<glyph name="brokenbar" format="2">
  <advance width="560"/>
  <unicode hex="00A6"/>
  <outline>
    <contour>
      <point x="440" y="820" type="line"/>
      <point x="440" y="1540" type="line" name="av01"/>
      <point x="120" y="1540" type="line" name="dh01"/>
      <point x="120" y="820" type="line"/>
    </contour>
    <contour>
      <point x="440" y="-250" type="line"/>
      <point x="440" y="470" type="line" name="sh01"/>
      <point x="120" y="470" type="line" name="sh02"/>
      <point x="120" y="-250" type="line" name="av02"/>
    </contour>
  </outline>
</glyph>
<glyph name="section" format="1">
  <advance width="1118"/>
  <unicode hex="00A7"/>
  <outline>
    <contour>
      <point x="121" y="17" type="line"/>
      <point x="244" y="-53"/>
      <point x="383" y="-90"/>
      <point x="515" y="-90" type="curve" smooth="yes"/>
      <point x="781" y="-90"/>
      <point x="972" y="61"/>
      <point x="972" y="265" type="curve" smooth="yes"/>
      <point x="972" y="353"/>
      <point x="935" y="415"/>
      <point x="880" y="464" type="curve"/>
      <point x="954" y="529"/>
      <point x="998" y="618"/>
      <point x="998" y="718" type="curve" smooth="yes"/>
      <point x="998" y="897"/>
      <point x="859" y="965"/>
      <point x="728" y="1029" type="curve" smooth="yes"/>
      <point x="609" y="1087"/>
      <point x="495" y="1143"/>
      <point x="495" y="1277" type="curve" smooth="yes"/>
      <point x="495" y="1394"/>
      <point x="583" y="1474"/>
      <point x="712" y="1474" type="curve" smooth="yes"/>
      <point x="793" y="1474"/>
      <point x="888" y="1443"/>
      <point x="978" y="1387" type="curve"/>
      <point x="996" y="1423" type="line"/>
      <point x="873" y="1493"/>
      <point x="735" y="1530"/>
      <point x="603" y="1530" type="curve" smooth="yes"/>
      <point x="337" y="1530"/>
      <point x="146" y="1378"/>
      <point x="146" y="1174" type="curve" smooth="yes"/>
      <point x="146" y="1086"/>
      <point x="182" y="1024"/>
      <point x="237" y="975" type="curve"/>
      <point x="163" y="910"/>
      <point x="120" y="821"/>
      <point x="120" y="721" type="curve" smooth="yes"/>
      <point x="120" y="542"/>
      <point x="258" y="474"/>
      <point x="389" y="410" type="curve" smooth="yes"/>
      <point x="508" y="352"/>
      <point x="622" y="296"/>
      <point x="622" y="162" type="curve" smooth="yes"/>
      <point x="622" y="45"/>
      <point x="535" y="-35"/>
      <point x="406" y="-35" type="curve" smooth="yes"/>
      <point x="325" y="-35"/>
      <point x="230" y="-4"/>
      <point x="140" y="52" type="curve"/>
    </contour>
    <contour>
      <point x="806" y="517" type="curve"/>
      <point x="481" y="594"/>
      <point x="282" y="712"/>
      <point x="282" y="835" type="curve" smooth="yes"/>
      <point x="282" y="863"/>
      <point x="293" y="893"/>
      <point x="312" y="922" type="curve"/>
      <point x="659" y="843"/>
      <point x="836" y="737"/>
      <point x="836" y="608" type="curve" smooth="yes"/>
      <point x="836" y="577"/>
      <point x="825" y="546"/>
    </contour>
  </outline>
</glyph>
<glyph name="dieresis" format="1">
  <advance width="969"/>
  <unicode hex="00A8"/>
  <outline>
    <contour>
      <point x="719" y="1189" type="curve" smooth="yes"/>
      <point x="803" y="1189"/>
      <point x="859" y="1245"/>
      <point x="859" y="1329" type="curve" smooth="yes"/>
      <point x="859" y="1413"/>
      <point x="803" y="1469"/>
      <point x="719" y="1469" type="curve" smooth="yes"/>
      <point x="635" y="1469"/>
      <point x="579" y="1413"/>
      <point x="579" y="1329" type="curve" smooth="yes"/>
      <point x="579" y="1245"/>
      <point x="635" y="1189"/>
    </contour>
    <contour>
      <point x="250" y="1189" type="curve" smooth="yes"/>
      <point x="334" y="1189"/>
      <point x="390" y="1245"/>
      <point x="390" y="1329" type="curve" smooth="yes"/>
      <point x="390" y="1413"/>
      <point x="334" y="1469"/>
      <point x="250" y="1469" type="curve" smooth="yes"/>
      <point x="166" y="1469"/>
      <point x="110" y="1413"/>
      <point x="110" y="1329" type="curve" smooth="yes"/>
      <point x="110" y="1245"/>
      <point x="166" y="1189"/>
    </contour>
  </outline>
</glyph>
<glyph name="ordfeminine" format="1">
  <advance width="843"/>
  <unicode hex="00AA"/>
  <outline>
    <contour>
      <point x="723" y="813" type="line" name="n0"/>
      <point x="723" y="1217" type="line" smooth="yes" name="n1"/>
      <point x="723" y="1411"/>
      <point x="609" y="1520"/>
      <point x="406" y="1520" type="curve" smooth="yes"/>
      <point x="300" y="1520"/>
      <point x="205" y="1489"/>
      <point x="123" y="1430" type="curve" name="n7"/>
      <point x="144" y="1400" type="line"/>
      <point x="192" y="1438"/>
      <point x="244" y="1456"/>
      <point x="303" y="1456" type="curve" smooth="yes"/>
      <point x="436" y="1456"/>
      <point x="516" y="1364"/>
      <point x="516" y="1209" type="curve"/>
      <point x="516" y="1204" type="line" name="n14"/>
      <point x="466" y="1224"/>
      <point x="411" y="1235"/>
      <point x="357" y="1235" type="curve" smooth="yes"/>
      <point x="195" y="1235"/>
      <point x="70" y="1137"/>
      <point x="70" y="1008" type="curve" smooth="yes" name="n20"/>
      <point x="70" y="889" name="n21"/>
      <point x="176" y="799" name="n22"/>
      <point x="320" y="799" type="curve" smooth="yes" name="n23"/>
      <point x="404" y="799"/>
      <point x="474" y="829" name="n24"/>
      <point x="520" y="885" type="curve" name="n15"/>
      <point x="533" y="813" type="line" name="n16"/>
    </contour>
    <contour>
      <point x="403" y="870" type="curve" smooth="yes"/>
      <point x="332" y="870"/>
      <point x="280" y="935"/>
      <point x="280" y="1025" type="curve" smooth="yes"/>
      <point x="280" y="1125"/>
      <point x="343" y="1196"/>
      <point x="433" y="1196" type="curve" smooth="yes"/>
      <point x="460" y="1196"/>
      <point x="488" y="1189"/>
      <point x="516" y="1176" type="curve"/>
      <point x="516" y="956" type="line" smooth="yes"/>
      <point x="516" y="911"/>
      <point x="461" y="870"/>
    </contour>
  </outline>
</glyph>
<glyph name="guillemotleft" format="2">
  <advance width="1286"/>
  <unicode hex="00AB"/>
  <outline>
    <contour>
      <point x="1166" y="111" type="line"/>
      <point x="824" y="496" type="line"/>
      <point x="1166" y="882" type="line"/>
      <point x="827" y="882" type="line"/>
      <point x="504" y="497" type="line"/>
      <point x="827" y="111" type="line"/>
    </contour>
    <contour>
      <point x="702" y="111" type="line"/>
      <point x="360" y="496" type="line"/>
      <point x="702" y="882" type="line"/>
      <point x="363" y="882" type="line"/>
      <point x="40" y="497" type="line"/>
      <point x="363" y="111" type="line"/>
    </contour>
  </outline>
</glyph>
<glyph name="logicalnot" format="1">
  <advance width="1069"/>
  <unicode hex="00AC"/>
  <outline>
    <contour>
      <point x="949" y="52" type="line"/>
      <point x="949" y="627" type="line"/>
      <point x="120" y="627" type="line"/>
      <point x="120" y="337" type="line"/>
      <point x="629" y="337" type="line"/>
      <point x="629" y="52" type="line"/>
    </contour>
  </outline>
</glyph>
<glyph name="uni00AD" format="1">
  <advance width="1146"/>
  <unicode hex="00AD"/>
  <outline>
    <contour>
      <point x="1026" y="337" type="line"/>
      <point x="1026" y="627" type="line"/>
      <point x="120" y="627" type="line"/>
      <point x="120" y="337" type="line"/>
    </contour>
  </outline>
</glyph>
<glyph name="registered" format="1">
  <advance width="1279"/>
  <unicode hex="00AE"/>
  <outline>
    <contour>
      <point x="640" y="424" type="curve" smooth="yes"/>
      <point x="986" y="424"/>
      <point x="1239" y="677"/>
      <point x="1239" y="1023" type="curve" smooth="yes"/>
      <point x="1239" y="1368"/>
      <point x="986" y="1621"/>
      <point x="640" y="1621" type="curve" smooth="yes"/>
      <point x="293" y="1621"/>
      <point x="40" y="1368"/>
      <point x="40" y="1023" type="curve" smooth="yes"/>
      <point x="40" y="677"/>
      <point x="293" y="424"/>
    </contour>
    <contour>
      <point x="640" y="463" type="curve" smooth="yes"/>
      <point x="318" y="463"/>
      <point x="82" y="699"/>
      <point x="82" y="1021" type="curve" smooth="yes"/>
      <point x="82" y="1345"/>
      <point x="320" y="1583"/>
      <point x="640" y="1583" type="curve" smooth="yes"/>
      <point x="959" y="1583"/>
      <point x="1197" y="1344"/>
      <point x="1197" y="1021" type="curve" smooth="yes"/>
      <point x="1197" y="700"/>
      <point x="961" y="463"/>
    </contour>
    <contour>
      <point x="935" y="700" type="line"/>
      <point x="786" y="985" type="line"/>
      <point x="866" y="1010"/>
      <point x="913" y="1073"/>
      <point x="913" y="1159" type="curve" smooth="yes"/>
      <point x="913" y="1273"/>
      <point x="829" y="1345"/>
      <point x="695" y="1345" type="curve" smooth="yes"/>
      <point x="428" y="1345" type="line"/>
      <point x="428" y="703" type="line"/>
      <point x="588" y="703" type="line"/>
      <point x="588" y="973" type="line"/>
      <point x="629" y="973" type="line"/>
      <point x="759" y="700" type="line"/>
    </contour>
    <contour>
      <point x="588" y="1011" type="line"/>
      <point x="588" y="1307" type="line"/>
      <point x="622" y="1307" type="line" smooth="yes"/>
      <point x="700" y="1307"/>
      <point x="748" y="1253"/>
      <point x="748" y="1162" type="curve" smooth="yes"/>
      <point x="748" y="1070"/>
      <point x="699" y="1011"/>
      <point x="622" y="1011" type="curve" smooth="yes"/>
    </contour>
  </outline>
</glyph>
<glyph name="degree" format="1">
  <advance width="700"/>
  <unicode hex="00B0"/>
  <outline>
    <contour>
      <point x="350" y="900" type="curve" smooth="yes" name="at02"/>
      <point x="529" y="900"/>
      <point x="660" y="1031"/>
      <point x="660" y="1210" type="curve" smooth="yes" name="sh03"/>
      <point x="660" y="1389"/>
      <point x="529" y="1520"/>
      <point x="350" y="1520" type="curve" smooth="yes" name="at01"/>
      <point x="171" y="1520"/>
      <point x="40" y="1390"/>
      <point x="40" y="1210" type="curve" smooth="yes" name="sh01"/>
      <point x="40" y="1030"/>
      <point x="170" y="900"/>
    </contour>
    <contour>
      <point x="350" y="938" type="curve" smooth="yes"/>
      <point x="286" y="938"/>
      <point x="240" y="1051"/>
      <point x="240" y="1210" type="curve" smooth="yes" name="sh02"/>
      <point x="240" y="1369"/>
      <point x="286" y="1482"/>
      <point x="350" y="1482" type="curve" smooth="yes"/>
      <point x="413" y="1482"/>
      <point x="460" y="1367"/>
      <point x="460" y="1210" type="curve" smooth="yes" name="ah01"/>
      <point x="460" y="1053"/>
      <point x="413" y="938"/>
    </contour>
  </outline>
</glyph>
<glyph name="plusminus" format="2">
  <advance width="1146"/>
  <unicode hex="00B1"/>
  <outline>
    <contour>
      <point x="733" y="161" type="line"/>
      <point x="733" y="571" type="line"/>
      <point x="1026" y="571" type="line"/>
      <point x="1026" y="610" type="line"/>
      <point x="733" y="610" type="line"/>
      <point x="733" y="1020" type="line"/>
      <point x="413" y="1020" type="line"/>
      <point x="413" y="610" type="line"/>
      <point x="120" y="610" type="line"/>
      <point x="120" y="571" type="line"/>
      <point x="413" y="571" type="line"/>
      <point x="413" y="161" type="line"/>
    </contour>
    <contour>
      <point x="1026" y="0" type="line"/>
      <point x="1026" y="38" type="line"/>
      <point x="120" y="38" type="line" name="dv02"/>
      <point x="120" y="0" type="line" name="dv01"/>
    </contour>
  </outline>
</glyph>
<glyph name="twosuperior" format="2">
  <advance width="708"/>
  <unicode hex="00B2"/>
  <outline>
    <contour>
      <point x="587" y="790" type="line"/>
      <point x="587" y="953" type="line"/>
      <point x="303" y="953" type="line"/>
      <point x="533" y="1121"/>
      <point x="598" y="1208"/>
      <point x="598" y="1316" type="curve" smooth="yes"/>
      <point x="598" y="1441"/>
      <point x="512" y="1520"/>
      <point x="379" y="1520" type="curve" smooth="yes"/>
      <point x="296" y="1520"/>
      <point x="208" y="1490"/>
      <point x="128" y="1436" type="curve"/>
      <point x="139" y="1419" type="line"/>
      <point x="186" y="1448"/>
      <point x="233" y="1462"/>
      <point x="273" y="1462" type="curve" smooth="yes"/>
      <point x="357" y="1462"/>
      <point x="408" y="1396"/>
      <point x="408" y="1287" type="curve" smooth="yes"/>
      <point x="408" y="1142"/>
      <point x="319" y="1006"/>
      <point x="120" y="850" type="curve"/>
      <point x="120" y="790" type="line"/>
    </contour>
  </outline>
</glyph>
<glyph name="threesuperior" format="2">
  <advance width="717"/>
  <unicode hex="00B3"/>
  <outline>
    <contour>
      <point x="110" y="862" type="line"/>
      <point x="175" y="815"/>
      <point x="254" y="790"/>
      <point x="338" y="790" type="curve" smooth="yes"/>
      <point x="492" y="790"/>
      <point x="607" y="875"/>
      <point x="607" y="989" type="curve" smooth="yes"/>
      <point x="607" y="1080"/>
      <point x="534" y="1146"/>
      <point x="417" y="1166" type="curve"/>
      <point x="510" y="1191"/>
      <point x="573" y="1259"/>
      <point x="573" y="1343" type="curve" smooth="yes"/>
      <point x="573" y="1446"/>
      <point x="476" y="1520"/>
      <point x="338" y="1520" type="curve" smooth="yes"/>
      <point x="254" y="1520"/>
      <point x="180" y="1493"/>
      <point x="120" y="1445" type="curve"/>
      <point x="133" y="1430" type="line"/>
      <point x="168" y="1458"/>
      <point x="205" y="1472"/>
      <point x="246" y="1472" type="curve" smooth="yes"/>
      <point x="330" y="1472"/>
      <point x="388" y="1412"/>
      <point x="388" y="1327" type="curve" smooth="yes"/>
      <point x="388" y="1240"/>
      <point x="326" y="1174"/>
      <point x="244" y="1174" type="curve" smooth="yes"/>
      <point x="213" y="1174" type="line"/>
      <point x="213" y="1153" type="line"/>
      <point x="243" y="1153" type="line" smooth="yes"/>
      <point x="343" y="1153"/>
      <point x="410" y="1093"/>
      <point x="410" y="1002" type="curve" smooth="yes"/>
      <point x="410" y="908"/>
      <point x="339" y="838"/>
      <point x="240" y="838" type="curve" smooth="yes"/>
      <point x="197" y="838"/>
      <point x="155" y="851"/>
      <point x="121" y="878" type="curve"/>
    </contour>
  </outline>
</glyph>
<glyph name="mu" format="2">
  <advance width="1334"/>
  <unicode hex="00B5"/>
  <outline>
    <contour>
      <point x="1304" y="-20" type="curve"/>
      <point x="1304" y="56" type="line"/>
      <point x="1204" y="56"/>
      <point x="1157" y="103"/>
      <point x="1157" y="204" type="curve" smooth="yes"/>
      <point x="1157" y="1000" type="line"/>
      <point x="788" y="1000" type="line"/>
      <point x="788" y="337" type="line" smooth="yes"/>
      <point x="788" y="209"/>
      <point x="730" y="133"/>
      <point x="633" y="133" type="curve" smooth="yes"/>
      <point x="541" y="133"/>
      <point x="487" y="202"/>
      <point x="487" y="317" type="curve" smooth="yes"/>
      <point x="487" y="1000" type="line"/>
      <point x="120" y="1000" type="line"/>
      <point x="120" y="-500" type="line"/>
      <point x="356" y="-500" type="line"/>
      <point x="356" y="17" type="line"/>
      <point x="402" y="-8"/>
      <point x="457" y="-20"/>
      <point x="519" y="-20" type="curve" smooth="yes"/>
      <point x="679" y="-20"/>
      <point x="786" y="64"/>
      <point x="830" y="232" type="curve"/>
      <point x="887" y="50"/>
      <point x="1041" y="-20"/>
    </contour>
  </outline>
</glyph>
<glyph name="paragraph" format="1">
  <advance width="1379"/>
  <unicode hex="00B6"/>
  <outline>
    <contour>
      <point x="1259" y="-150" type="line" name="av01"/>
      <point x="1259" y="1500" type="line" name="at01"/>
      <point x="625" y="1500" type="line" smooth="yes" name="sh03"/>
      <point x="307" y="1500"/>
      <point x="100" y="1336"/>
      <point x="100" y="1084" type="curve" smooth="yes"/>
      <point x="100" y="824"/>
      <point x="319" y="640"/>
      <point x="629" y="640" type="curve"/>
      <point x="629" y="-150" type="line" name="sh02"/>
      <point x="879" y="-150" type="line" name="av02"/>
      <point x="879" y="1458" type="line"/>
      <point x="1009" y="1458" type="line" name="sv01"/>
      <point x="1009" y="-150" type="line" name="sh01"/>
    </contour>
  </outline>
</glyph>
<glyph name="periodcentered" format="1">
  <advance width="540"/>
  <unicode hex="00B7"/>
  <outline>
    <contour>
      <point x="270" y="360" type="curve" smooth="yes"/>
      <point x="366" y="360"/>
      <point x="430" y="424"/>
      <point x="430" y="520" type="curve" smooth="yes"/>
      <point x="430" y="616"/>
      <point x="366" y="680"/>
      <point x="270" y="680" type="curve" smooth="yes"/>
      <point x="174" y="680"/>
      <point x="110" y="616"/>
      <point x="110" y="520" type="curve" smooth="yes"/>
      <point x="110" y="424"/>
      <point x="174" y="360"/>
    </contour>
  </outline>
</glyph>
<glyph name="onesuperior" format="1">
  <advance width="499"/>
  <unicode hex="00B9"/>
  <outline>
    <contour>
      <point x="379" y="780" type="line" name="ab01"/>
      <point x="379" y="1500" type="line" name="dh02"/>
      <point x="348" y="1500" type="line"/>
      <point x="40" y="1438" type="line"/>
      <point x="45" y="1417" type="line"/>
      <point x="179" y="1444" type="line" name="dh01"/>
      <point x="179" y="780" type="line"/>
    </contour>
  </outline>
</glyph>
<glyph name="ordmasculine" format="1">
  <advance width="810"/>
  <unicode hex="00BA"/>
  <outline>
    <contour>
      <point x="406" y="800" type="curve" smooth="yes" name="av01"/>
      <point x="617" y="800"/>
      <point x="770" y="952"/>
      <point x="770" y="1160" type="curve" smooth="yes" name="sh03"/>
      <point x="770" y="1369"/>
      <point x="617" y="1520"/>
      <point x="406" y="1520" type="curve" smooth="yes" name="at01"/>
      <point x="195" y="1520"/>
      <point x="40" y="1368"/>
      <point x="40" y="1160" type="curve" smooth="yes" name="sh01"/>
      <point x="40" y="952"/>
      <point x="195" y="800"/>
    </contour>
    <contour>
      <point x="406" y="838" type="curve" smooth="yes"/>
      <point x="314" y="838"/>
      <point x="245" y="976"/>
      <point x="245" y="1160" type="curve" smooth="yes" name="sh02"/>
      <point x="245" y="1345"/>
      <point x="314" y="1482"/>
      <point x="406" y="1482" type="curve" smooth="yes"/>
      <point x="498" y="1482"/>
      <point x="565" y="1346"/>
      <point x="565" y="1160" type="curve" smooth="yes" name="ah01"/>
      <point x="565" y="974"/>
      <point x="498" y="838"/>
    </contour>
  </outline>
</glyph>
<glyph name="guillemotright" format="1">
  <advance width="1286"/>
  <unicode hex="00BB"/>
  <outline>
    <contour>
      <point x="459" y="111" type="line"/>
      <point x="782" y="497" type="line"/>
      <point x="459" y="882" type="line"/>
      <point x="120" y="882" type="line"/>
      <point x="462" y="496" type="line"/>
      <point x="120" y="111" type="line"/>
    </contour>
    <contour>
      <point x="923" y="111" type="line"/>
      <point x="1246" y="497" type="line"/>
      <point x="923" y="882" type="line"/>
      <point x="584" y="882" type="line"/>
      <point x="927" y="496" type="line"/>
      <point x="584" y="111" type="line"/>
    </contour>
  </outline>
</glyph>
<glyph name="onequarter" format="2">
  <advance width="1664"/>
  <unicode hex="00BC"/>
  <outline>
    <contour>
      <point x="371" y="0" type="line" name="av01.1"/>
      <point x="1382" y="1540" type="line" name="at01.1"/>
      <point x="1340" y="1540" type="line"/>
      <point x="322" y="0" type="line"/>
    </contour>
    <contour>
      <point x="429" y="780" type="line" name="ab01.1"/>
      <point x="429" y="1500" type="line" name="dh02.1"/>
      <point x="398" y="1500" type="line"/>
      <point x="87" y="1437" type="line"/>
      <point x="95" y="1400" type="line"/>
      <point x="229" y="1427" type="line" name="dh01.1"/>
      <point x="229" y="780" type="line"/>
    </contour>
    <contour>
      <point x="1486" y="0" type="line"/>
      <point x="1486" y="152" type="line"/>
      <point x="1574" y="152" type="line"/>
      <point x="1574" y="190" type="line"/>
      <point x="1486" y="190" type="line"/>
      <point x="1486" y="720" type="line"/>
      <point x="1422" y="720" type="line"/>
      <point x="988" y="190" type="line"/>
      <point x="988" y="151" type="line"/>
      <point x="1296" y="151" type="line"/>
      <point x="1296" y="0" type="line"/>
    </contour>
    <contour>
      <point x="1037" y="190" type="line"/>
      <point x="1296" y="506" type="line"/>
      <point x="1296" y="190" type="line"/>
    </contour>
  </outline>
</glyph>
<glyph name="onehalf" format="2">
  <advance width="1705"/>
  <unicode hex="00BD"/>
  <outline>
    <contour>
      <point x="371" y="0" type="line" name="av01"/>
      <point x="1382" y="1540" type="line" name="at01"/>
      <point x="1340" y="1540" type="line"/>
      <point x="322" y="0" type="line"/>
    </contour>
    <contour>
      <point x="429" y="780" type="line" name="ab01.1"/>
      <point x="429" y="1500" type="line" name="dh02.1"/>
      <point x="398" y="1500" type="line"/>
      <point x="90" y="1438" type="line"/>
      <point x="95" y="1417" type="line"/>
      <point x="229" y="1444" type="line" name="dh01.1"/>
      <point x="229" y="780" type="line"/>
    </contour>
    <contour>
      <point x="1604" y="0" type="line"/>
      <point x="1604" y="167" type="line"/>
      <point x="1312" y="167" type="line"/>
      <point x="1548" y="340"/>
      <point x="1615" y="428"/>
      <point x="1615" y="536" type="curve" smooth="yes"/>
      <point x="1615" y="661"/>
      <point x="1527" y="740"/>
      <point x="1390" y="740" type="curve" smooth="yes"/>
      <point x="1305" y="740"/>
      <point x="1215" y="710"/>
      <point x="1133" y="654" type="curve"/>
      <point x="1144" y="636" type="line"/>
      <point x="1193" y="666"/>
      <point x="1239" y="680"/>
      <point x="1281" y="680" type="curve" smooth="yes"/>
      <point x="1368" y="680"/>
      <point x="1421" y="613"/>
      <point x="1421" y="504" type="curve" smooth="yes"/>
      <point x="1421" y="359"/>
      <point x="1329" y="221"/>
      <point x="1124" y="61" type="curve"/>
      <point x="1124" y="0" type="line"/>
    </contour>
  </outline>
</glyph>
<glyph name="questiondown" format="1">
  <advance width="990"/>
  <unicode hex="00BF"/>
  <outline>
    <contour>
      <point x="630" y="1030" type="curve" smooth="yes"/>
      <point x="534" y="1030"/>
      <point x="470" y="966"/>
      <point x="470" y="870" type="curve" smooth="yes"/>
      <point x="470" y="774"/>
      <point x="534" y="710"/>
      <point x="630" y="710" type="curve" smooth="yes"/>
      <point x="726" y="710"/>
      <point x="790" y="774"/>
      <point x="790" y="870" type="curve" smooth="yes"/>
      <point x="790" y="966"/>
      <point x="726" y="1030"/>
    </contour>
    <contour>
      <point x="925" y="-343" type="line"/>
      <point x="832" y="-411"/>
      <point x="736" y="-447"/>
      <point x="651" y="-447" type="curve" smooth="yes"/>
      <point x="507" y="-447"/>
      <point x="415" y="-344"/>
      <point x="415" y="-179" type="curve" smooth="yes"/>
      <point x="415" y="-66"/>
      <point x="458" y="2"/>
      <point x="507" y="80" type="curve" smooth="yes"/>
      <point x="573" y="186"/>
      <point x="652" y="310"/>
      <point x="652" y="590" type="curve"/>
      <point x="608" y="590" type="line"/>
      <point x="608" y="347"/>
      <point x="460" y="254"/>
      <point x="320" y="166" type="curve" smooth="yes"/>
      <point x="192" y="86"/>
      <point x="70" y="9"/>
      <point x="70" y="-165" type="curve" smooth="yes"/>
      <point x="70" y="-378"/>
      <point x="252" y="-520"/>
      <point x="512" y="-520" type="curve" smooth="yes"/>
      <point x="665" y="-520"/>
      <point x="820" y="-470"/>
      <point x="950" y="-379" type="curve"/>
    </contour>
  </outline>
</glyph>
<glyph name="AE" format="1">
  <advance width="2078"/>
  <unicode hex="00C6"/>
  <outline>
    <contour>
      <point x="2008" y="0" type="line"/>
      <point x="2002" y="42" type="line"/>
      <point x="1443" y="42" type="line"/>
      <point x="1346" y="747" type="line"/>
      <point x="1856" y="747" type="line"/>
      <point x="1850" y="790" type="line"/>
      <point x="1341" y="790" type="line"/>
      <point x="1249" y="1458" type="line"/>
      <point x="1809" y="1458" type="line"/>
      <point x="1803" y="1500" type="line"/>
      <point x="832" y="1500" type="line"/>
      <point x="30" y="0" type="line"/>
      <point x="80" y="0" type="line"/>
      <point x="320" y="448" type="line"/>
      <point x="988" y="448" type="line"/>
      <point x="1049" y="0" type="line"/>
    </contour>
    <contour>
      <point x="342" y="490" type="line"/>
      <point x="851" y="1444" type="line"/>
      <point x="852" y="1444" type="line"/>
      <point x="982" y="490" type="line"/>
    </contour>
  </outline>
</glyph>
<glyph name="Igrave" format="1">
  <advance width="636"/>
  <unicode hex="00CC"/>
  <outline>
    <contour>
      <point x="466" y="1660" type="line"/>
      <point x="205" y="1660" type="line" name="av01"/>
      <point x="5" y="2000" type="line" name="at01.1"/>
      <point x="335" y="2000" type="line"/>
    </contour>
    <contour>
      <point x="516" y="1500" type="line" name="at01"/>
      <point x="516" y="0" type="line" name="ab01"/>
      <point x="120" y="0" type="line" name="dh01"/>
      <point x="120" y="1500" type="line"/>
    </contour>
  </outline>
</glyph>
<glyph name="Iacute" format="1">
  <advance width="636"/>
  <unicode hex="00CD"/>
  <outline>
    <contour>
      <point x="451" y="1660" type="line" name="av01"/>
      <point x="190" y="1660" type="line"/>
      <point x="322" y="2000" type="line"/>
      <point x="651" y="2000" type="line" name="at01.1"/>
    </contour>
    <contour>
      <point x="516" y="1500" type="line" name="at01"/>
      <point x="516" y="0" type="line" name="ab01"/>
      <point x="120" y="0" type="line" name="dh01"/>
      <point x="120" y="1500" type="line"/>
    </contour>
  </outline>
</glyph>
<glyph name="Icircumflex" format="1">
  <advance width="737"/>
  <unicode hex="00CE"/>
  <outline>
    <contour>
      <point x="740" y="1660" type="line"/>
      <point x="469" y="1660" type="line" name="av01.1"/>
      <point x="368" y="1851" type="line"/>
      <point x="267" y="1660" type="line" name="av01"/>
      <point x="-3" y="1660" type="line"/>
      <point x="222" y="2000" type="line" name="at01.1"/>
      <point x="515" y="2000" type="line" name="at01.2"/>
    </contour>
    <contour>
      <point x="566" y="1500" type="line" name="at01"/>
      <point x="566" y="0" type="line" name="ab01"/>
      <point x="170" y="0" type="line" name="dh01"/>
      <point x="170" y="1500" type="line"/>
    </contour>
  </outline>
</glyph>
<glyph name="Ocircumflex" format="1">
  <advance width="1730"/>
  <unicode hex="00D4"/>
  <outline>
    <contour>
      <point x="1237" y="1660" type="line"/>
      <point x="1012" y="2000" type="line" name="at01.1"/>
      <point x="718" y="2000" type="line" name="at01.1.1"/>
      <point x="493" y="1660" type="line"/>
      <point x="764" y="1660" type="line" name="av01"/>
      <point x="865" y="1851" type="line"/>
      <point x="966" y="1660" type="line" name="av01.1"/>
    </contour>
    <contour>
      <point x="860" y="-30" type="curve" smooth="yes" name="dv01"/>
      <point x="1313" y="-30"/>
      <point x="1660" y="303"/>
      <point x="1660" y="750" type="curve" smooth="yes" name="sh03"/>
      <point x="1660" y="1197"/>
      <point x="1313" y="1530"/>
      <point x="860" y="1530" type="curve" smooth="yes" name="at01"/>
      <point x="407" y="1530"/>
      <point x="70" y="1197"/>
      <point x="70" y="750" type="curve" smooth="yes" name="sh01"/>
      <point x="70" y="303"/>
      <point x="407" y="-30"/>
    </contour>
    <contour>
      <point x="860" y="12" type="curve" smooth="yes" name="dv02"/>
      <point x="636" y="12"/>
      <point x="475" y="323"/>
      <point x="475" y="752" type="curve" smooth="yes" name="sh02"/>
      <point x="475" y="1181"/>
      <point x="636" y="1488"/>
      <point x="860" y="1488" type="curve" smooth="yes" name="sv01"/>
      <point x="1084" y="1488"/>
      <point x="1255" y="1181"/>
      <point x="1255" y="752" type="curve" smooth="yes" name="ah01"/>
      <point x="1255" y="323"/>
      <point x="1084" y="12"/>
    </contour>
  </outline>
</glyph>
<glyph name="Otilde" format="1">
  <advance width="1730"/>
  <unicode hex="00D5"/>
  <outline>
    <contour>
      <point x="1268" y="1981" type="curve"/>
      <point x="1140" y="1981" type="line"/>
      <point x="1136" y="1905"/>
      <point x="1100" y="1865"/>
      <point x="1038" y="1865" type="curve" smooth="yes"/>
      <point x="989" y="1865"/>
      <point x="951" y="1889"/>
      <point x="908" y="1918" type="curve" smooth="yes"/>
      <point x="857" y="1952"/>
      <point x="798" y="1990"/>
      <point x="700" y="1990" type="curve" smooth="yes" name="av01"/>
      <point x="543" y="1990"/>
      <point x="463" y="1889"/>
      <point x="463" y="1696" type="curve"/>
      <point x="591" y="1696" type="line"/>
      <point x="595" y="1771"/>
      <point x="636" y="1813"/>
      <point x="705" y="1813" type="curve" smooth="yes"/>
      <point x="759" y="1813"/>
      <point x="798" y="1788"/>
      <point x="840" y="1758" type="curve" smooth="yes"/>
      <point x="887" y="1724"/>
      <point x="942" y="1688"/>
      <point x="1036" y="1688" type="curve" smooth="yes" name="av02"/>
      <point x="1190" y="1688"/>
      <point x="1268" y="1787"/>
    </contour>
    <contour>
      <point x="860" y="-30" type="curve" smooth="yes" name="dv01"/>
      <point x="1313" y="-30"/>
      <point x="1660" y="303"/>
      <point x="1660" y="750" type="curve" smooth="yes" name="sh03"/>
      <point x="1660" y="1197"/>
      <point x="1313" y="1530"/>
      <point x="860" y="1530" type="curve" smooth="yes" name="at01"/>
      <point x="407" y="1530"/>
      <point x="70" y="1197"/>
      <point x="70" y="750" type="curve" smooth="yes" name="sh01"/>
      <point x="70" y="303"/>
      <point x="407" y="-30"/>
    </contour>
    <contour>
      <point x="860" y="12" type="curve" smooth="yes" name="dv02"/>
      <point x="636" y="12"/>
      <point x="475" y="323"/>
      <point x="475" y="752" type="curve" smooth="yes" name="sh02"/>
      <point x="475" y="1181"/>
      <point x="636" y="1488"/>
      <point x="860" y="1488" type="curve" smooth="yes" name="sv01"/>
      <point x="1084" y="1488"/>
      <point x="1255" y="1181"/>
      <point x="1255" y="752" type="curve" smooth="yes" name="ah01"/>
      <point x="1255" y="323"/>
      <point x="1084" y="12"/>
    </contour>
  </outline>
</glyph>
<glyph name="multiply" format="1">
  <advance width="1166"/>
  <unicode hex="00D7"/>
  <outline>
    <contour>
      <point x="841" y="22" type="line"/>
      <point x="1046" y="227" type="line"/>
      <point x="788" y="485" type="line"/>
      <point x="1046" y="743" type="line"/>
      <point x="841" y="948" type="line"/>
      <point x="582" y="690" type="line"/>
      <point x="325" y="948" type="line"/>
      <point x="120" y="743" type="line"/>
      <point x="378" y="485" type="line"/>
      <point x="120" y="227" type="line"/>
      <point x="325" y="22" type="line"/>
      <point x="583" y="280" type="line"/>
    </contour>
  </outline>
</glyph>
<glyph name="Ucircumflex" format="1">
  <advance width="1584"/>
  <unicode hex="00DB"/>
  <outline>
    <contour>
      <point x="1164" y="1660" type="line"/>
      <point x="939" y="2000" type="line" name="at01"/>
      <point x="645" y="2000" type="line" name="at01.1"/>
      <point x="420" y="1660" type="line"/>
      <point x="691" y="1660" type="line" name="av01"/>
      <point x="792" y="1851" type="line"/>
      <point x="893" y="1660" type="line" name="av01.1"/>
    </contour>
    <contour>
      <point x="1464" y="1500" type="line"/>
      <point x="1068" y="1500" type="line"/>
      <point x="1068" y="557" type="line" smooth="yes"/>
      <point x="1068" y="191"/>
      <point x="977" y="12"/>
      <point x="792" y="12" type="curve" smooth="yes"/>
      <point x="607" y="12"/>
      <point x="516" y="191"/>
      <point x="516" y="557" type="curve" smooth="yes"/>
      <point x="516" y="1500" type="line"/>
      <point x="120" y="1500" type="line"/>
      <point x="120" y="657" type="line" smooth="yes"/>
      <point x="120" y="222"/>
      <point x="367" y="-30"/>
      <point x="792" y="-30" type="curve" smooth="yes"/>
      <point x="1217" y="-30"/>
      <point x="1464" y="222"/>
      <point x="1464" y="657" type="curve" smooth="yes"/>
    </contour>
  </outline>
</glyph>
<glyph name="Thorn" format="2">
  <advance width="1282"/>
  <unicode hex="00DE"/>
  <outline>
    <contour>
      <point x="490" y="0" type="line" name="ab01.1"/>
      <point x="490" y="290" type="line"/>
      <point x="665" y="290" type="line" smooth="yes" name="dv01"/>
      <point x="976" y="290"/>
      <point x="1182" y="475"/>
      <point x="1182" y="754" type="curve" smooth="yes" name="dh03"/>
      <point x="1182" y="1031"/>
      <point x="979" y="1210"/>
      <point x="665" y="1210" type="curve" smooth="yes" name="sv02"/>
      <point x="490" y="1210" type="line"/>
      <point x="490" y="1500" type="line" name="dh01.1"/>
      <point x="120" y="1500" type="line" name="at01.1"/>
      <point x="120" y="0" type="line"/>
    </contour>
    <contour>
      <point x="490" y="328" type="line"/>
      <point x="490" y="1172" type="line"/>
      <point x="553" y="1172" type="line" smooth="yes" name="sv01"/>
      <point x="709" y="1172"/>
      <point x="804" y="1012"/>
      <point x="804" y="751" type="curve" smooth="yes" name="dh02"/>
      <point x="804" y="490"/>
      <point x="709" y="328"/>
      <point x="554" y="328" type="curve" smooth="yes" name="dv02"/>
    </contour>
  </outline>
</glyph>
<glyph name="germandbls" format="1">
  <advance width="1354"/>
  <unicode hex="00DF"/>
  <outline>
    <contour>
      <point x="516" y="0" type="line"/>
      <point x="516" y="1149" type="line" smooth="yes"/>
      <point x="516" y="1346"/>
      <point x="581" y="1488"/>
      <point x="671" y="1488" type="curve" smooth="yes"/>
      <point x="762" y="1488"/>
      <point x="827" y="1346"/>
      <point x="827" y="1151" type="curve" smooth="yes"/>
      <point x="827" y="937"/>
      <point x="748" y="877"/>
      <point x="692" y="835" type="curve" smooth="yes"/>
      <point x="670" y="818"/>
      <point x="650" y="804"/>
      <point x="650" y="778" type="curve" smooth="yes"/>
      <point x="650" y="744"/>
      <point x="681" y="724"/>
      <point x="721" y="697" type="curve" smooth="yes"/>
      <point x="840" y="617"/>
      <point x="889" y="540"/>
      <point x="889" y="400" type="curve" smooth="yes"/>
      <point x="889" y="199"/>
      <point x="786" y="52"/>
      <point x="633" y="30" type="curve"/>
      <point x="640" y="-20" type="line"/>
      <point x="1048" y="-20"/>
      <point x="1284" y="127"/>
      <point x="1284" y="379" type="curve" smooth="yes"/>
      <point x="1284" y="599"/>
      <point x="1107" y="662"/>
      <point x="984" y="706" type="curve" smooth="yes"/>
      <point x="919" y="729"/>
      <point x="870" y="747"/>
      <point x="870" y="779" type="curve" smooth="yes"/>
      <point x="870" y="809"/>
      <point x="912" y="825"/>
      <point x="966" y="848" type="curve" smooth="yes"/>
      <point x="1066" y="890"/>
      <point x="1208" y="949"/>
      <point x="1208" y="1135" type="curve" smooth="yes"/>
      <point x="1208" y="1365"/>
      <point x="987" y="1530"/>
      <point x="679" y="1530" type="curve" smooth="yes"/>
      <point x="349" y="1530"/>
      <point x="120" y="1340"/>
      <point x="120" y="1066" type="curve" smooth="yes"/>
      <point x="120" y="0" type="line"/>
    </contour>
  </outline>
</glyph>
<glyph name="ae" format="2">
  <advance width="1852"/>
  <unicode hex="00E6"/>
  <outline>
    <contour>
      <point x="1701" y="105" type="curve"/>
      <point x="1684" y="135" type="line"/>
      <point x="1573" y="75"/>
      <point x="1472" y="43"/>
      <point x="1388" y="43" type="curve" smooth="yes"/>
      <point x="1187" y="43"/>
      <point x="1051" y="219"/>
      <point x="1051" y="498" type="curve"/>
      <point x="1782" y="498" type="line"/>
      <point x="1782" y="501" type="line" smooth="yes"/>
      <point x="1782" y="808"/>
      <point x="1567" y="1020"/>
      <point x="1259" y="1020" type="curve" smooth="yes"/>
      <point x="1105" y="1020"/>
      <point x="969" y="967"/>
      <point x="873" y="872" type="curve"/>
      <point x="792" y="968"/>
      <point x="670" y="1020"/>
      <point x="518" y="1020" type="curve" smooth="yes"/>
      <point x="388" y="1020"/>
      <point x="243" y="982"/>
      <point x="151" y="924" type="curve" name="n7.1"/>
      <point x="168" y="890" type="line" name="n8.1"/>
      <point x="262" y="932"/>
      <point x="349" y="953"/>
      <point x="426" y="953" type="curve" smooth="yes"/>
      <point x="619" y="953"/>
      <point x="735" y="822"/>
      <point x="757" y="577" type="curve" smooth="yes"/>
      <point x="759" y="560" type="line"/>
      <point x="669" y="610"/>
      <point x="567" y="637"/>
      <point x="466" y="637" type="curve" smooth="yes"/>
      <point x="236" y="637"/>
      <point x="70" y="499"/>
      <point x="70" y="307" type="curve" smooth="yes"/>
      <point x="70" y="121"/>
      <point x="228" y="-20"/>
      <point x="435" y="-20" type="curve" smooth="yes"/>
      <point x="593" y="-20"/>
      <point x="733" y="62"/>
      <point x="817" y="202" type="curve"/>
      <point x="920" y="62"/>
      <point x="1093" y="-20"/>
      <point x="1295" y="-20" type="curve" smooth="yes"/>
      <point x="1443" y="-20"/>
      <point x="1582" y="23"/>
    </contour>
    <contour>
      <point x="1051" y="536" type="line"/>
      <point x="1051" y="776"/>
      <point x="1147" y="982"/>
      <point x="1252" y="982" type="curve" smooth="yes"/>
      <point x="1351" y="982"/>
      <point x="1430" y="798"/>
      <point x="1444" y="536" type="curve"/>
    </contour>
    <contour>
      <point x="763" y="517" type="curve" name="n13"/>
      <point x="783" y="285" type="line"/>
      <point x="783" y="174"/>
      <point x="698" y="86"/>
      <point x="591" y="86" type="curve" smooth="yes"/>
      <point x="477" y="86"/>
      <point x="396" y="188"/>
      <point x="396" y="325" type="curve" smooth="yes"/>
      <point x="396" y="469"/>
      <point x="484" y="568"/>
      <point x="610" y="568" type="curve" smooth="yes"/>
      <point x="663" y="568"/>
      <point x="717" y="550"/>
    </contour>
  </outline>
</glyph>
<glyph name="ccedilla" format="1">
  <advance width="1054"/>
  <unicode hex="00E7"/>
  <outline>
    <contour>
      <point x="994" y="118" type="curve"/>
      <point x="968" y="148" type="line"/>
      <point x="900" y="80"/>
      <point x="809" y="40"/>
      <point x="725" y="40" type="curve" smooth="yes" name="sv01"/>
      <point x="551" y="40"/>
      <point x="448" y="212"/>
      <point x="448" y="500" type="curve" smooth="yes" name="sh02"/>
      <point x="448" y="789"/>
      <point x="552" y="960"/>
      <point x="727" y="960" type="curve" smooth="yes" name="sv01.1"/>
      <point x="809" y="960"/>
      <point x="896" y="921"/>
      <point x="968" y="852" type="curve"/>
      <point x="994" y="882" type="line"/>
      <point x="895" y="971"/>
      <point x="762" y="1020"/>
      <point x="615" y="1020" type="curve" smooth="yes" name="at01"/>
      <point x="300" y="1020"/>
      <point x="70" y="800"/>
      <point x="70" y="500" type="curve" smooth="yes" name="sh01"/>
      <point x="70" y="220"/>
      <point x="270" y="10"/>
      <point x="552" y="-17" type="curve"/>
      <point x="506" y="-135" type="line"/>
      <point x="519" y="-133"/>
      <point x="531" y="-132"/>
      <point x="542" y="-132" type="curve" smooth="yes"/>
      <point x="610" y="-132"/>
      <point x="628" y="-164"/>
      <point x="628" y="-200" type="curve" smooth="yes"/>
      <point x="628" y="-251"/>
      <point x="593" y="-282"/>
      <point x="543" y="-282" type="curve" smooth="yes"/>
      <point x="519" y="-282"/>
      <point x="494" y="-276"/>
      <point x="470" y="-263" type="curve"/>
      <point x="422" y="-395" type="line"/>
      <point x="473" y="-419"/>
      <point x="527" y="-432"/>
      <point x="578" y="-432" type="curve" smooth="yes"/>
      <point x="703" y="-432"/>
      <point x="795" y="-357"/>
      <point x="795" y="-255" type="curve" smooth="yes"/>
      <point x="795" y="-170"/>
      <point x="732" y="-113"/>
      <point x="632" y="-102" type="curve"/>
      <point x="672" y="-18" type="line" name="ih01"/>
      <point x="797" y="-7"/>
      <point x="908" y="40"/>
    </contour>
  </outline>
</glyph>
<glyph name="iacute" format="1">
  <advance width="609"/>
  <unicode hex="00ED"/>
  <outline>
    <contour>
      <point x="421" y="1160" type="line" name="av01"/>
      <point x="621" y="1500" type="line" name="at01"/>
      <point x="291" y="1500" type="line"/>
      <point x="160" y="1160" type="line"/>
    </contour>
    <contour>
      <point x="489" y="0" type="line" name="sh01"/>
      <point x="489" y="1000" type="line"/>
      <point x="120" y="1000" type="line"/>
      <point x="120" y="0" type="line" name="ab01"/>
    </contour>
  </outline>
</glyph>
<glyph name="icircumflex" format="1">
  <advance width="610"/>
  <unicode hex="00EE"/>
  <outline>
    <contour>
      <point x="677" y="1160" type="line"/>
      <point x="452" y="1500" type="line" name="at01"/>
      <point x="158" y="1500" type="line" name="at01.1"/>
      <point x="-67" y="1160" type="line"/>
      <point x="204" y="1160" type="line" name="av01"/>
      <point x="305" y="1351" type="line"/>
      <point x="406" y="1160" type="line" name="av01.1"/>
    </contour>
    <contour>
      <point x="489" y="0" type="line" name="sh01"/>
      <point x="489" y="1000" type="line"/>
      <point x="121" y="1000" type="line"/>
      <point x="121" y="0" type="line" name="ab01"/>
    </contour>
  </outline>
</glyph>
<glyph name="ntilde" format="1">
  <advance width="1259"/>
  <unicode hex="00F1"/>
  <outline>
    <contour>
      <point x="1055" y="1481" type="curve"/>
      <point x="927" y="1481" type="line"/>
      <point x="923" y="1405"/>
      <point x="887" y="1365"/>
      <point x="825" y="1365" type="curve" smooth="yes"/>
      <point x="776" y="1365"/>
      <point x="739" y="1390"/>
      <point x="697" y="1417" type="curve" smooth="yes"/>
      <point x="644" y="1451"/>
      <point x="586" y="1490"/>
      <point x="488" y="1490" type="curve" smooth="yes" name="av01"/>
      <point x="331" y="1490"/>
      <point x="250" y="1389"/>
      <point x="250" y="1196" type="curve"/>
      <point x="378" y="1196" type="line"/>
      <point x="382" y="1271"/>
      <point x="424" y="1313"/>
      <point x="493" y="1313" type="curve" smooth="yes"/>
      <point x="547" y="1313"/>
      <point x="585" y="1287"/>
      <point x="626" y="1259" type="curve" smooth="yes"/>
      <point x="675" y="1225"/>
      <point x="729" y="1188"/>
      <point x="823" y="1188" type="curve" smooth="yes" name="av02"/>
      <point x="977" y="1188"/>
      <point x="1055" y="1287"/>
    </contour>
    <contour>
      <point x="1159" y="0" type="line" name="ab02"/>
      <point x="1159" y="583" type="line" smooth="yes"/>
      <point x="1159" y="852"/>
      <point x="1016" y="1020"/>
      <point x="787" y="1020" type="curve" smooth="yes" name="at02"/>
      <point x="625" y="1020"/>
      <point x="509" y="935"/>
      <point x="457" y="783" type="curve"/>
      <point x="440" y="1000" type="line"/>
      <point x="120" y="1000" type="line" name="dh01"/>
      <point x="120" y="0" type="line" name="at01"/>
      <point x="489" y="0" type="line"/>
      <point x="489" y="669" type="line" smooth="yes"/>
      <point x="489" y="793"/>
      <point x="547" y="867"/>
      <point x="643" y="867" type="curve" smooth="yes" name="sv01"/>
      <point x="737" y="867"/>
      <point x="790" y="796"/>
      <point x="790" y="669" type="curve" smooth="yes"/>
      <point x="790" y="0" type="line" name="dh02"/>
    </contour>
  </outline>
</glyph>
<glyph name="ocircumflex" format="1">
  <advance width="1227"/>
  <unicode hex="00F4"/>
  <outline>
    <contour>
      <point x="985" y="1160" type="line"/>
      <point x="760" y="1500" type="line" name="at01.1"/>
      <point x="467" y="1500" type="line" name="at01.1.1"/>
      <point x="242" y="1160" type="line"/>
      <point x="512" y="1160" type="line" name="av01"/>
      <point x="613" y="1351" type="line"/>
      <point x="715" y="1160" type="line" name="av01.1"/>
    </contour>
    <contour>
      <point x="614" y="-20" type="curve" smooth="yes" name="dv01"/>
      <point x="932" y="-20"/>
      <point x="1157" y="195"/>
      <point x="1157" y="500" type="curve" smooth="yes" name="sh03"/>
      <point x="1157" y="800"/>
      <point x="927" y="1020"/>
      <point x="614" y="1020" type="curve" smooth="yes" name="at01"/>
      <point x="300" y="1020"/>
      <point x="70" y="800"/>
      <point x="70" y="500" type="curve" smooth="yes" name="sh01"/>
      <point x="70" y="200"/>
      <point x="300" y="-20"/>
    </contour>
    <contour>
      <point x="614" y="18" type="curve" smooth="yes" name="dv02"/>
      <point x="507" y="18"/>
      <point x="448" y="190"/>
      <point x="448" y="500" type="curve" smooth="yes" name="sh02"/>
      <point x="448" y="810"/>
      <point x="507" y="982"/>
      <point x="614" y="982" type="curve" smooth="yes" name="sv01"/>
      <point x="721" y="982"/>
      <point x="780" y="810"/>
      <point x="780" y="500" type="curve" smooth="yes" name="ah01"/>
      <point x="780" y="190"/>
      <point x="721" y="18"/>
    </contour>
  </outline>
</glyph>
<glyph name="otilde" format="1">
  <advance width="1227"/>
  <unicode hex="00F5"/>
  <outline>
    <contour>
      <point x="1002" y="1481" type="curve"/>
      <point x="874" y="1481" type="line"/>
      <point x="870" y="1405"/>
      <point x="834" y="1365"/>
      <point x="772" y="1365" type="curve" smooth="yes"/>
      <point x="723" y="1365"/>
      <point x="686" y="1390"/>
      <point x="644" y="1417" type="curve" smooth="yes"/>
      <point x="591" y="1451"/>
      <point x="533" y="1490"/>
      <point x="435" y="1490" type="curve" smooth="yes" name="av01"/>
      <point x="278" y="1490"/>
      <point x="197" y="1389"/>
      <point x="197" y="1196" type="curve"/>
      <point x="325" y="1196" type="line"/>
      <point x="329" y="1271"/>
      <point x="371" y="1313"/>
      <point x="440" y="1313" type="curve" smooth="yes"/>
      <point x="494" y="1313"/>
      <point x="532" y="1287"/>
      <point x="573" y="1259" type="curve" smooth="yes"/>
      <point x="622" y="1225"/>
      <point x="676" y="1188"/>
      <point x="770" y="1188" type="curve" smooth="yes" name="av02"/>
      <point x="924" y="1188"/>
      <point x="1002" y="1287"/>
    </contour>
    <contour>
      <point x="614" y="-20" type="curve" smooth="yes" name="dv01"/>
      <point x="932" y="-20"/>
      <point x="1157" y="195"/>
      <point x="1157" y="500" type="curve" smooth="yes" name="sh03"/>
      <point x="1157" y="800"/>
      <point x="927" y="1020"/>
      <point x="614" y="1020" type="curve" smooth="yes" name="at01"/>
      <point x="300" y="1020"/>
      <point x="70" y="800"/>
      <point x="70" y="500" type="curve" smooth="yes" name="sh01"/>
      <point x="70" y="200"/>
      <point x="300" y="-20"/>
    </contour>
    <contour>
      <point x="614" y="18" type="curve" smooth="yes" name="dv02"/>
      <point x="507" y="18"/>
      <point x="448" y="190"/>
      <point x="448" y="500" type="curve" smooth="yes" name="sh02"/>
      <point x="448" y="810"/>
      <point x="507" y="982"/>
      <point x="614" y="982" type="curve" smooth="yes" name="sv01"/>
      <point x="721" y="982"/>
      <point x="780" y="810"/>
      <point x="780" y="500" type="curve" smooth="yes" name="ah01"/>
      <point x="780" y="190"/>
      <point x="721" y="18"/>
    </contour>
  </outline>
</glyph>
<glyph name="divide" format="2">
  <advance width="1040"/>
  <unicode hex="00F7"/>
  <outline>
    <contour>
      <point x="514" y="658" type="curve" smooth="yes"/>
      <point x="604" y="658"/>
      <point x="675" y="729"/>
      <point x="675" y="819" type="curve" smooth="yes"/>
      <point x="675" y="908"/>
      <point x="604" y="980"/>
      <point x="514" y="980" type="curve" smooth="yes"/>
      <point x="424" y="980"/>
      <point x="355" y="908"/>
      <point x="355" y="819" type="curve" smooth="yes"/>
      <point x="355" y="729"/>
      <point x="424" y="658"/>
    </contour>
    <contour>
      <point x="920" y="390" type="line"/>
      <point x="920" y="570" type="line"/>
      <point x="120" y="570" type="line" name="dv02"/>
      <point x="120" y="390" type="line" name="dv01"/>
    </contour>
    <contour>
      <point x="514" y="-20" type="curve" smooth="yes"/>
      <point x="604" y="-20"/>
      <point x="675" y="51"/>
      <point x="675" y="141" type="curve" smooth="yes"/>
      <point x="675" y="230"/>
      <point x="604" y="301"/>
      <point x="514" y="301" type="curve" smooth="yes"/>
      <point x="424" y="301"/>
      <point x="355" y="230"/>
      <point x="355" y="141" type="curve" smooth="yes"/>
      <point x="355" y="51"/>
      <point x="424" y="-20"/>
    </contour>
  </outline>
</glyph>
<glyph name="oslash" format="1">
  <advance width="1227"/>
  <unicode hex="00F8"/>
  <outline>
    <contour>
      <point x="404" y="-59" type="line" name="av01"/>
      <point x="431" y="7" type="line"/>
      <point x="488" y="-11"/>
      <point x="549" y="-20"/>
      <point x="614" y="-20" type="curve" smooth="yes" name="dv01"/>
      <point x="932" y="-20"/>
      <point x="1157" y="195"/>
      <point x="1157" y="500" type="curve" smooth="yes" name="sh03"/>
      <point x="1157" y="724"/>
      <point x="1029" y="903"/>
      <point x="834" y="980" type="curve"/>
      <point x="860" y="1044" type="line" name="at01"/>
      <point x="823" y="1059" type="line"/>
      <point x="795" y="993" type="line"/>
      <point x="739" y="1010"/>
      <point x="678" y="1020"/>
      <point x="614" y="1020" type="curve" smooth="yes" name="at01.1"/>
      <point x="300" y="1020"/>
      <point x="70" y="800"/>
      <point x="70" y="500" type="curve" smooth="yes" name="sh01"/>
      <point x="70" y="276"/>
      <point x="199" y="97"/>
      <point x="394" y="20" type="curve"/>
      <point x="367" y="-45" type="line"/>
    </contour>
    <contour>
      <point x="472" y="211" type="line"/>
      <point x="456" y="287"/>
      <point x="448" y="384"/>
      <point x="448" y="500" type="curve" smooth="yes" name="sh02"/>
      <point x="448" y="810"/>
      <point x="507" y="982"/>
      <point x="614" y="982" type="curve" smooth="yes" name="sv01"/>
      <point x="668" y="982"/>
      <point x="710" y="938"/>
      <point x="738" y="854" type="curve"/>
    </contour>
    <contour>
      <point x="614" y="18" type="curve" smooth="yes" name="dv02"/>
      <point x="559" y="18"/>
      <point x="517" y="63"/>
      <point x="489" y="148" type="curve"/>
      <point x="755" y="790" type="line"/>
      <point x="771" y="714"/>
      <point x="780" y="617"/>
      <point x="780" y="500" type="curve" smooth="yes" name="ah01"/>
      <point x="780" y="190"/>
      <point x="721" y="18"/>
    </contour>
  </outline>
</glyph>
<glyph name="ugrave" format="1">
  <advance width="1259"/>
  <unicode hex="00F9"/>
  <outline>
    <contour>
      <point x="760" y="1160" type="line"/>
      <point x="628" y="1500" type="line"/>
      <point x="299" y="1500" type="line" name="at01.1"/>
      <point x="499" y="1160" type="line" name="av01"/>
    </contour>
    <contour>
      <point x="1139" y="0" type="line" name="dh01"/>
      <point x="1139" y="1000" type="line" name="at01"/>
      <point x="770" y="1000" type="line"/>
      <point x="770" y="331" type="line" smooth="yes"/>
      <point x="770" y="207"/>
      <point x="712" y="133"/>
      <point x="616" y="133" type="curve" smooth="yes" name="sv01"/>
      <point x="522" y="133"/>
      <point x="469" y="204"/>
      <point x="469" y="331" type="curve" smooth="yes"/>
      <point x="469" y="1000" type="line" name="dh02"/>
      <point x="100" y="1000" type="line" name="ab02"/>
      <point x="100" y="417" type="line" smooth="yes"/>
      <point x="100" y="148"/>
      <point x="243" y="-20"/>
      <point x="472" y="-20" type="curve" smooth="yes" name="at02"/>
      <point x="634" y="-20"/>
      <point x="750" y="65"/>
      <point x="802" y="217" type="curve"/>
      <point x="819" y="0" type="line"/>
    </contour>
  </outline>
</glyph>
<glyph name="cacute" format="1">
  <advance width="1054"/>
  <unicode hex="0107"/>
  <outline>
    <contour>
      <point x="682" y="1160" type="line" name="av01"/>
      <point x="883" y="1500" type="line" name="at01.2"/>
      <point x="553" y="1500" type="line"/>
      <point x="422" y="1160" type="line"/>
    </contour>
    <contour>
      <point x="994" y="118" type="curve"/>
      <point x="968" y="148" type="line"/>
      <point x="900" y="80"/>
      <point x="809" y="40"/>
      <point x="725" y="40" type="curve" smooth="yes" name="sv01"/>
      <point x="551" y="40"/>
      <point x="448" y="212"/>
      <point x="448" y="500" type="curve" smooth="yes" name="sh02"/>
      <point x="448" y="789"/>
      <point x="552" y="960"/>
      <point x="727" y="960" type="curve" smooth="yes" name="sv01.1"/>
      <point x="809" y="960"/>
      <point x="896" y="921"/>
      <point x="968" y="852" type="curve"/>
      <point x="994" y="882" type="line"/>
      <point x="895" y="971"/>
      <point x="762" y="1020"/>
      <point x="615" y="1020" type="curve" smooth="yes" name="at01"/>
      <point x="300" y="1020"/>
      <point x="70" y="800"/>
      <point x="70" y="500" type="curve" smooth="yes" name="sh01"/>
      <point x="70" y="200"/>
      <point x="300" y="-20"/>
      <point x="615" y="-20" type="curve" smooth="yes" name="at01.1"/>
      <point x="762" y="-20"/>
      <point x="895" y="29"/>
    </contour>
  </outline>
</glyph>
<glyph name="Ccircumflex" format="1">
  <advance width="1494"/>
  <unicode hex="0108"/>
  <outline>
    <contour>
      <point x="1219" y="1660" type="line"/>
      <point x="994" y="2000" type="line" name="at01.2"/>
      <point x="700" y="2000" type="line" name="at01.1.1"/>
      <point x="475" y="1660" type="line"/>
      <point x="746" y="1660" type="line" name="av01"/>
      <point x="847" y="1851" type="line"/>
      <point x="948" y="1660" type="line" name="av01.1"/>
    </contour>
    <contour>
      <point x="1424" y="191" type="curve"/>
      <point x="1394" y="221" type="line"/>
      <point x="1278" y="103"/>
      <point x="1114" y="31"/>
      <point x="963" y="31" type="curve" smooth="yes" name="sv01"/>
      <point x="666" y="31"/>
      <point x="475" y="314"/>
      <point x="475" y="752" type="curve" smooth="yes" name="sh02"/>
      <point x="475" y="1187"/>
      <point x="667" y="1469"/>
      <point x="963" y="1469" type="curve" smooth="yes" name="sv01.1"/>
      <point x="1114" y="1469"/>
      <point x="1278" y="1397"/>
      <point x="1394" y="1279" type="curve"/>
      <point x="1424" y="1309" type="line"/>
      <point x="1278" y="1452"/>
      <point x="1079" y="1530"/>
      <point x="860" y="1530" type="curve" smooth="yes" name="at01"/>
      <point x="407" y="1530"/>
      <point x="70" y="1197"/>
      <point x="70" y="750" type="curve" smooth="yes" name="sh01"/>
      <point x="70" y="303"/>
      <point x="407" y="-30"/>
      <point x="860" y="-30" type="curve" smooth="yes" name="at01.1"/>
      <point x="1079" y="-30"/>
      <point x="1278" y="48"/>
    </contour>
  </outline>
</glyph>
<glyph name="dcaron" format="2">
  <advance width="1869"/>
  <unicode hex="010F"/>
  <outline>
    <contour>
      <point x="1604" y="1070" type="line"/>
      <point x="1749" y="1520" type="line"/>
      <point x="1499" y="1520" type="line" name="av01"/>
      <point x="1398" y="1070" type="line"/>
    </contour>
    <component base="d"/>
  </outline>
</glyph>
<glyph name="Dcroat" format="2">
  <advance width="1689"/>
  <unicode hex="0110"/>
  <outline>
    <contour>
      <point x="199" y="0" type="line"/>
      <point x="725" y="0" type="line" smooth="yes"/>
      <point x="1285" y="0"/>
      <point x="1619" y="280"/>
      <point x="1619" y="750" type="curve" smooth="yes"/>
      <point x="1619" y="1220"/>
      <point x="1285" y="1500"/>
      <point x="725" y="1500" type="curve" smooth="yes"/>
      <point x="199" y="1500" type="line"/>
      <point x="199" y="769" type="line"/>
      <point x="30" y="769" type="line" name="dv02"/>
      <point x="30" y="731" type="line" name="dv01"/>
      <point x="199" y="731" type="line"/>
    </contour>
    <contour>
      <point x="830" y="731" type="line"/>
      <point x="830" y="769" type="line"/>
      <point x="595" y="769" type="line"/>
      <point x="595" y="1458" type="line"/>
      <point x="724" y="1458" type="line" smooth="yes"/>
      <point x="1035" y="1458"/>
      <point x="1214" y="1199"/>
      <point x="1214" y="750" type="curve" smooth="yes"/>
      <point x="1214" y="302"/>
      <point x="1034" y="42"/>
      <point x="724" y="42" type="curve" smooth="yes"/>
      <point x="595" y="42" type="line"/>
      <point x="595" y="731" type="line"/>
    </contour>
  </outline>
</glyph>
<glyph name="dcroat" format="2">
  <advance width="1297"/>
  <unicode hex="0111"/>
  <outline>
    <contour>
      <point x="1176" y="0" type="line" name="dh01"/>
      <point x="1176" y="1134" type="line"/>
      <point x="1272" y="1134" type="line"/>
      <point x="1272" y="1339" type="line"/>
      <point x="1176" y="1339" type="line"/>
      <point x="1176" y="1500" type="line" name="at01"/>
      <point x="808" y="1500" type="line"/>
      <point x="808" y="1339" type="line"/>
      <point x="574" y="1339" type="line"/>
      <point x="574" y="1134" type="line"/>
      <point x="808" y="1134" type="line"/>
      <point x="808" y="878" type="line"/>
      <point x="728" y="967"/>
      <point x="617" y="1020"/>
      <point x="489" y="1020" type="curve" smooth="yes" name="at01.1"/>
      <point x="228" y="1020"/>
      <point x="40" y="800"/>
      <point x="40" y="500" type="curve" smooth="yes" name="sh03"/>
      <point x="40" y="200"/>
      <point x="228" y="-20"/>
      <point x="489" y="-20" type="curve" smooth="yes" name="dv01"/>
      <point x="620" y="-20"/>
      <point x="734" y="35"/>
      <point x="814" y="129" type="curve"/>
      <point x="853" y="0" type="line"/>
    </contour>
    <contour>
      <point x="659" y="86" type="curve" smooth="yes" name="dv02"/>
      <point x="520" y="86"/>
      <point x="418" y="258"/>
      <point x="418" y="497" type="curve" smooth="yes" name="ah01"/>
      <point x="418" y="736"/>
      <point x="520" y="913"/>
      <point x="659" y="913" type="curve" smooth="yes" name="sv01"/>
      <point x="717" y="913"/>
      <point x="768" y="883"/>
      <point x="808" y="831" type="curve"/>
      <point x="808" y="166" type="line" name="dh02"/>
      <point x="768" y="115"/>
      <point x="717" y="86"/>
    </contour>
  </outline>
</glyph>
<glyph name="Ebreve" format="1">
  <advance width="1250"/>
  <unicode hex="0114"/>
  <outline>
    <contour>
      <point x="949" y="2000" type="curve" name="at01.1"/>
      <point x="749" y="2000" type="line" name="ah01"/>
      <point x="749" y="1899"/>
      <point x="704" y="1840"/>
      <point x="626" y="1840" type="curve" smooth="yes"/>
      <point x="548" y="1840"/>
      <point x="502" y="1899"/>
      <point x="502" y="2000" type="curve" name="sh01"/>
      <point x="301" y="2000" type="line" name="at02"/>
      <point x="301" y="1804"/>
      <point x="433" y="1670"/>
      <point x="625" y="1670" type="curve" smooth="yes" name="av01"/>
      <point x="817" y="1670"/>
      <point x="949" y="1804"/>
    </contour>
    <contour>
      <point x="120" y="0" type="line" name="ab01"/>
      <point x="1130" y="0" type="line"/>
      <point x="1130" y="42" type="line" name="sv01"/>
      <point x="516" y="42" type="line" name="dh01"/>
      <point x="516" y="736" type="line" name="dv01"/>
      <point x="1080" y="736" type="line"/>
      <point x="1080" y="778" type="line"/>
      <point x="516" y="778" type="line" name="dv02"/>
      <point x="516" y="1458" type="line" name="sv02"/>
      <point x="1120" y="1458" type="line"/>
      <point x="1120" y="1500" type="line" name="at01"/>
      <point x="120" y="1500" type="line"/>
    </contour>
  </outline>
</glyph>
<glyph name="Eogonek" format="1">
  <advance width="1240"/>
  <unicode hex="0118"/>
  <outline>
    <contour>
      <point x="120" y="0" type="line" name="ab01"/>
      <point x="1051" y="0" type="line" name="ab01.1"/>
      <point x="907" y="-32"/>
      <point x="813" y="-121"/>
      <point x="813" y="-225" type="curve" smooth="yes"/>
      <point x="813" y="-337"/>
      <point x="920" y="-416"/>
      <point x="1072" y="-416" type="curve" name="av01"/>
      <point x="1101" y="-238" type="line"/>
      <point x="1016" y="-238"/>
      <point x="959" y="-198"/>
      <point x="959" y="-139" type="curve" smooth="yes"/>
      <point x="959" y="-77"/>
      <point x="1019" y="-22"/>
      <point x="1106" y="0" type="curve"/>
      <point x="1130" y="0" type="line"/>
      <point x="1130" y="42" type="line" name="sv01"/>
      <point x="516" y="42" type="line" name="dh01"/>
      <point x="516" y="736" type="line" name="dv01"/>
      <point x="1080" y="736" type="line"/>
      <point x="1080" y="778" type="line"/>
      <point x="516" y="778" type="line" name="dv02"/>
      <point x="516" y="1458" type="line" name="sv02"/>
      <point x="1120" y="1458" type="line"/>
      <point x="1120" y="1500" type="line" name="at01"/>
      <point x="120" y="1500" type="line"/>
    </contour>
  </outline>
</glyph>
<glyph name="Ecaron" format="1">
  <advance width="1240"/>
  <unicode hex="011A"/>
  <outline>
    <contour>
      <point x="791" y="1660" type="line" name="at01.1"/>
      <point x="1016" y="2000" type="line"/>
      <point x="746" y="2000" type="line" name="av01"/>
      <point x="645" y="1809" type="line"/>
      <point x="544" y="2000" type="line" name="av01.1"/>
      <point x="274" y="2000" type="line"/>
      <point x="499" y="1660" type="line" name="at01.1.1"/>
    </contour>
    <contour>
      <point x="120" y="0" type="line" name="ab01"/>
      <point x="1130" y="0" type="line"/>
      <point x="1130" y="42" type="line" name="sv01"/>
      <point x="516" y="42" type="line" name="dh01"/>
      <point x="516" y="736" type="line" name="dv01"/>
      <point x="1080" y="736" type="line"/>
      <point x="1080" y="778" type="line"/>
      <point x="516" y="778" type="line" name="dv02"/>
      <point x="516" y="1458" type="line" name="sv02"/>
      <point x="1120" y="1458" type="line"/>
      <point x="1120" y="1500" type="line" name="at01"/>
      <point x="120" y="1500" type="line"/>
    </contour>
  </outline>
</glyph>
<glyph name="Gcommaaccent" format="1">
  <advance width="1708"/>
  <unicode hex="0122"/>
  <outline>
    <contour>
      <point x="1393" y="1291" type="curve"/>
      <point x="1427" y="1325" type="line"/>
      <point x="1286" y="1456"/>
      <point x="1084" y="1530"/>
      <point x="871" y="1530" type="curve" smooth="yes"/>
      <point x="416" y="1530"/>
      <point x="70" y="1192"/>
      <point x="70" y="747" type="curve" smooth="yes"/>
      <point x="70" y="304"/>
      <point x="413" y="-30"/>
      <point x="871" y="-30" type="curve" smooth="yes"/>
      <point x="1321" y="-30"/>
      <point x="1638" y="293"/>
      <point x="1638" y="750" type="curve"/>
      <point x="1637" y="763" type="line"/>
      <point x="882" y="763" type="line"/>
      <point x="882" y="721" type="line"/>
      <point x="1248" y="721" type="line" name="ah01"/>
      <point x="1248" y="257"/>
      <point x="1126" y="12"/>
      <point x="906" y="12" type="curve" smooth="yes" name="dv02"/>
      <point x="658" y="12"/>
      <point x="475" y="320"/>
      <point x="475" y="739" type="curve" smooth="yes"/>
      <point x="475" y="1180"/>
      <point x="678" y="1464"/>
      <point x="998" y="1464" type="curve" smooth="yes"/>
      <point x="1142" y="1464"/>
      <point x="1275" y="1406"/>
    </contour>
    <contour>
      <point x="817" y="-548" type="line"/>
      <point x="941" y="-484"/>
      <point x="1019" y="-345"/>
      <point x="1019" y="-190" type="curve" smooth="yes"/>
      <point x="1019" y="-139"/>
      <point x="1010" y="-86"/>
      <point x="992" y="-35" type="curve"/>
      <point x="720" y="-90" type="line"/>
      <point x="753" y="-135"/>
      <point x="769" y="-191"/>
      <point x="769" y="-247" type="curve" smooth="yes"/>
      <point x="769" y="-320"/>
      <point x="742" y="-392"/>
      <point x="689" y="-437" type="curve"/>
    </contour>
  </outline>
</glyph>
<glyph name="hcircumflex" format="1">
  <advance width="1259"/>
  <unicode hex="0125"/>
  <outline>
    <contour>
      <point x="676" y="1660" type="line"/>
      <point x="451" y="2000" type="line" name="at01.1"/>
      <point x="158" y="2000" type="line" name="at01.1.1"/>
      <point x="-67" y="1660" type="line"/>
      <point x="203" y="1660" type="line" name="av01"/>
      <point x="304" y="1851" type="line"/>
      <point x="405" y="1660" type="line" name="av01.1"/>
    </contour>
    <contour>
      <point x="120" y="0" type="line" name="at01"/>
      <point x="489" y="0" type="line"/>
      <point x="489" y="669" type="line" smooth="yes"/>
      <point x="489" y="793"/>
      <point x="547" y="867"/>
      <point x="644" y="867" type="curve" smooth="yes" name="sv01"/>
      <point x="737" y="867"/>
      <point x="790" y="796"/>
      <point x="790" y="669" type="curve" smooth="yes"/>
      <point x="790" y="0" type="line" name="dh02"/>
      <point x="1159" y="0" type="line" name="ab02"/>
      <point x="1159" y="583" type="line" smooth="yes"/>
      <point x="1159" y="852"/>
      <point x="1016" y="1020"/>
      <point x="787" y="1020" type="curve" smooth="yes" name="at02"/>
      <point x="652" y="1020"/>
      <point x="550" y="962"/>
      <point x="489" y="855" type="curve"/>
      <point x="489" y="1500" type="line"/>
      <point x="120" y="1500" type="line" name="dh01"/>
    </contour>
  </outline>
</glyph>
<glyph name="Hbar" format="2">
  <advance width="1610"/>
  <unicode hex="0126"/>
  <outline>
    <contour>
      <point x="1580" y="1108" type="line"/>
      <point x="1580" y="1151" type="line"/>
      <point x="1462" y="1151" type="line"/>
      <point x="1462" y="1500" type="line" name="at01"/>
      <point x="1066" y="1500" type="line" name="sh03"/>
      <point x="1066" y="1151" type="line"/>
      <point x="543" y="1151" type="line"/>
      <point x="543" y="1500" type="line" name="at02"/>
      <point x="147" y="1500" type="line" name="sh01"/>
      <point x="147" y="1151" type="line"/>
      <point x="30" y="1151" type="line"/>
      <point x="30" y="1108" type="line"/>
      <point x="147" y="1108" type="line"/>
      <point x="147" y="0" type="line"/>
      <point x="543" y="0" type="line" name="ab01"/>
      <point x="543" y="717" type="line" name="dv01"/>
      <point x="1066" y="717" type="line"/>
      <point x="1066" y="0" type="line" name="ab02"/>
      <point x="1462" y="0" type="line" name="sh02"/>
      <point x="1462" y="1108" type="line"/>
    </contour>
    <contour>
      <point x="543" y="759" type="line" name="dv02"/>
      <point x="543" y="1108" type="line"/>
      <point x="1066" y="1108" type="line"/>
      <point x="1066" y="759" type="line"/>
    </contour>
  </outline>
</glyph>
<glyph name="hbar" format="1">
  <advance width="1284"/>
  <unicode hex="0127"/>
  <outline>
    <contour>
      <point x="730" y="1240" type="line" name="av02"/>
      <point x="730" y="1278" type="line"/>
      <point x="514" y="1278" type="line"/>
      <point x="514" y="1500" type="line"/>
      <point x="145" y="1500" type="line" name="dh01"/>
      <point x="145" y="1278" type="line"/>
      <point x="30" y="1278" type="line" name="av01"/>
      <point x="30" y="1240" type="line"/>
      <point x="145" y="1240" type="line"/>
      <point x="145" y="0" type="line" name="at01"/>
      <point x="514" y="0" type="line"/>
      <point x="514" y="669" type="line" smooth="yes"/>
      <point x="514" y="793"/>
      <point x="572" y="867"/>
      <point x="669" y="867" type="curve" smooth="yes" name="sv01"/>
      <point x="762" y="867"/>
      <point x="815" y="796"/>
      <point x="815" y="669" type="curve" smooth="yes"/>
      <point x="815" y="0" type="line" name="dh02"/>
      <point x="1184" y="0" type="line" name="ab02"/>
      <point x="1184" y="583" type="line" smooth="yes"/>
      <point x="1184" y="852"/>
      <point x="1041" y="1020"/>
      <point x="812" y="1020" type="curve" smooth="yes" name="at02"/>
      <point x="677" y="1020"/>
      <point x="575" y="962"/>
      <point x="514" y="855" type="curve"/>
      <point x="514" y="1240" type="line"/>
    </contour>
  </outline>
</glyph>
<glyph name="itilde" format="1">
  <advance width="610"/>
  <unicode hex="0129"/>
  <outline>
    <contour>
      <point x="708" y="1481" type="curve"/>
      <point x="580" y="1481" type="line"/>
      <point x="576" y="1405"/>
      <point x="540" y="1365"/>
      <point x="478" y="1365" type="curve" smooth="yes"/>
      <point x="429" y="1365"/>
      <point x="392" y="1390"/>
      <point x="350" y="1417" type="curve" smooth="yes"/>
      <point x="297" y="1451"/>
      <point x="238" y="1490"/>
      <point x="140" y="1490" type="curve" smooth="yes" name="av01"/>
      <point x="-17" y="1490"/>
      <point x="-97" y="1389"/>
      <point x="-97" y="1196" type="curve"/>
      <point x="31" y="1196" type="line"/>
      <point x="35" y="1271"/>
      <point x="76" y="1313"/>
      <point x="145" y="1313" type="curve" smooth="yes"/>
      <point x="199" y="1313"/>
      <point x="237" y="1287"/>
      <point x="278" y="1259" type="curve" smooth="yes"/>
      <point x="327" y="1225"/>
      <point x="382" y="1188"/>
      <point x="476" y="1188" type="curve" smooth="yes" name="av02"/>
      <point x="630" y="1188"/>
      <point x="708" y="1287"/>
    </contour>
    <contour>
      <point x="490" y="0" type="line" name="sh01"/>
      <point x="490" y="1000" type="line"/>
      <point x="121" y="1000" type="line"/>
      <point x="121" y="0" type="line" name="ab01"/>
    </contour>
  </outline>
</glyph>
<glyph name="Imacron" format="1">
  <advance width="636"/>
  <unicode hex="012A"/>
  <outline>
    <contour>
      <point x="667" y="1725" type="line"/>
      <point x="-31" y="1725" type="line"/>
      <point x="-31" y="1930" type="line"/>
      <point x="667" y="1930" type="line"/>
    </contour>
    <contour>
      <point x="516" y="1500" type="line" name="at01"/>
      <point x="516" y="0" type="line" name="ab01"/>
      <point x="120" y="0" type="line" name="dh01"/>
      <point x="120" y="1500" type="line"/>
    </contour>
  </outline>
</glyph>
<glyph name="Iogonek" format="1">
  <advance width="636"/>
  <unicode hex="012E"/>
  <outline>
    <contour>
      <point x="516" y="1500" type="line" name="at01"/>
      <point x="516" y="0" type="line" name="ab01"/>
      <point x="456" y="0" type="line"/>
      <point x="369" y="-22"/>
      <point x="309" y="-77"/>
      <point x="309" y="-139" type="curve" smooth="yes"/>
      <point x="309" y="-198"/>
      <point x="365" y="-238"/>
      <point x="450" y="-238" type="curve"/>
      <point x="422" y="-416" type="line" name="av01"/>
      <point x="270" y="-416"/>
      <point x="162" y="-337"/>
      <point x="162" y="-225" type="curve" smooth="yes"/>
      <point x="162" y="-121"/>
      <point x="256" y="-32"/>
      <point x="400" y="0" type="curve" name="ab01.1"/>
      <point x="120" y="0" type="line" name="dh01"/>
      <point x="120" y="1500" type="line"/>
    </contour>
  </outline>
</glyph>
<glyph name="dotlessi" format="1">
  <advance width="609"/>
  <unicode hex="0131"/>
  <outline>
    <contour>
      <point x="489" y="0" type="line" name="sh01"/>
      <point x="489" y="1000" type="line"/>
      <point x="120" y="1000" type="line"/>
      <point x="120" y="0" type="line" name="ab01"/>
    </contour>
  </outline>
</glyph>
<glyph name="idotless" format="2">
  <advance width="609"/>
  <unicode hex="0131"/>
  <anchor x="305" y="0" name="bottom"/>
  <anchor x="460" y="0" name="ogonek"/>
  <anchor x="305" y="1000" name="top"/>
  <outline>
    <contour>
      <point x="489" y="0" type="line" name="sh01"/>
      <point x="489" y="1000" type="line"/>
      <point x="120" y="1000" type="line"/>
      <point x="120" y="0" type="line" name="ab01"/>
    </contour>
  </outline>
</glyph>
<glyph name="IJ" format="1">
  <advance width="1232"/>
  <unicode hex="0132"/>
  <outline>
    <contour>
      <point x="516" y="1500" type="line" name="at01"/>
      <point x="516" y="0" type="line" name="ab01"/>
      <point x="120" y="0" type="line" name="dh01"/>
      <point x="120" y="1500" type="line"/>
    </contour>
    <contour>
      <point x="431" y="-360" type="curve"/>
      <point x="429" y="-318" type="line"/>
      <point x="620" y="-318"/>
      <point x="716" y="-165"/>
      <point x="716" y="142" type="curve" smooth="yes"/>
      <point x="716" y="1500" type="line"/>
      <point x="1112" y="1500" type="line"/>
      <point x="1112" y="142" type="line" smooth="yes"/>
      <point x="1112" y="-222"/>
      <point x="925" y="-360"/>
    </contour>
  </outline>
</glyph>
<glyph name="Kcommaaccent" format="1">
  <advance width="1589"/>
  <unicode hex="0136"/>
  <outline>
    <contour>
      <point x="516" y="0" type="line"/>
      <point x="516" y="432" type="line"/>
      <point x="603" y="541" type="line"/>
      <point x="1042" y="0" type="line"/>
      <point x="1559" y="0" type="line"/>
      <point x="859" y="863" type="line"/>
      <point x="1365" y="1500" type="line"/>
      <point x="1310" y="1500" type="line"/>
      <point x="605" y="613" type="line" smooth="yes"/>
      <point x="575" y="575"/>
      <point x="546" y="538"/>
      <point x="516" y="500" type="curve"/>
      <point x="516" y="1500" type="line"/>
      <point x="120" y="1500" type="line"/>
      <point x="120" y="0" type="line"/>
    </contour>
    <contour>
      <point x="703" y="-548" type="line"/>
      <point x="827" y="-484"/>
      <point x="905" y="-345"/>
      <point x="905" y="-191.232" type="curve" smooth="yes"/>
      <point x="905" y="-139"/>
      <point x="896" y="-86"/>
      <point x="878" y="-35" type="curve"/>
      <point x="606" y="-90" type="line"/>
      <point x="639" y="-135"/>
      <point x="655" y="-191"/>
      <point x="655" y="-247" type="curve" smooth="yes"/>
      <point x="655" y="-320"/>
      <point x="628" y="-392"/>
      <point x="575" y="-437" type="curve"/>
    </contour>
  </outline>
</glyph>
<glyph name="uni013B" format="1">
  <advance width="1180"/>
  <unicode hex="013B"/>
  <outline>
    <contour>
      <point x="1140" y="0" type="line"/>
      <point x="1140" y="42" type="line"/>
      <point x="516" y="42" type="line"/>
      <point x="516" y="1500" type="line"/>
      <point x="120" y="1500" type="line"/>
      <point x="120" y="0" type="line"/>
    </contour>
    <contour>
      <point x="593" y="-548" type="line"/>
      <point x="717" y="-484"/>
      <point x="795" y="-345"/>
      <point x="795" y="-190" type="curve" smooth="yes"/>
      <point x="795" y="-139"/>
      <point x="786" y="-86"/>
      <point x="768" y="-35" type="curve"/>
      <point x="496" y="-90" type="line"/>
      <point x="529" y="-135"/>
      <point x="545" y="-191"/>
      <point x="545" y="-247" type="curve" smooth="yes"/>
      <point x="545" y="-320"/>
      <point x="518" y="-392"/>
      <point x="465" y="-437" type="curve"/>
    </contour>
  </outline>
</glyph>
<glyph name="Lcaron" format="1">
  <advance width="1180"/>
  <unicode hex="013D"/>
  <outline>
    <contour>
      <point x="926" y="1050" type="line"/>
      <point x="1070" y="1500" type="line"/>
      <point x="820" y="1500" type="line" name="av01.1"/>
      <point x="719" y="1050" type="line"/>
    </contour>
    <contour>
      <point x="1140" y="0" type="line"/>
      <point x="1140" y="42" type="line"/>
      <point x="516" y="42" type="line"/>
      <point x="516" y="1500" type="line"/>
      <point x="120" y="1500" type="line"/>
      <point x="120" y="0" type="line"/>
    </contour>
  </outline>
</glyph>
<glyph name="lcaron" format="1">
  <advance width="1031"/>
  <unicode hex="013E"/>
  <outline>
    <contour>
      <point x="516" y="0" type="line"/>
      <point x="516" y="1540" type="line" name="av01"/>
      <point x="120" y="1540" type="line" name="dh01"/>
      <point x="120" y="0" type="line" name="ab01"/>
    </contour>
    <contour>
      <point x="857" y="1050" type="line"/>
      <point x="1001" y="1500" type="line"/>
      <point x="751" y="1500" type="line" name="av01.1"/>
      <point x="650" y="1050" type="line"/>
    </contour>
  </outline>
</glyph>
<glyph name="ldot" format="1">
  <advance width="990"/>
  <unicode hex="0140"/>
  <outline>
    <contour>
      <point x="516" y="0" type="line"/>
      <point x="516" y="1540" type="line" name="av01"/>
      <point x="120" y="1540" type="line" name="dh01"/>
      <point x="120" y="0" type="line" name="ab01"/>
    </contour>
    <contour>
      <point x="820" y="630" type="curve" smooth="yes"/>
      <point x="904" y="630"/>
      <point x="960" y="686"/>
      <point x="960" y="770" type="curve" smooth="yes"/>
      <point x="960" y="854"/>
      <point x="904" y="910"/>
      <point x="820" y="910" type="curve" smooth="yes"/>
      <point x="736" y="910"/>
      <point x="680" y="854"/>
      <point x="680" y="770" type="curve" smooth="yes"/>
      <point x="680" y="686"/>
      <point x="736" y="630"/>
    </contour>
  </outline>
</glyph>
<glyph name="Lslash" format="1">
  <advance width="1140"/>
  <unicode hex="0141"/>
  <outline>
    <contour>
      <point x="-90" y="502" type="line"/>
      <point x="80" y="600" type="line"/>
      <point x="80" y="0" type="line"/>
      <point x="1100" y="0" type="line"/>
      <point x="1100" y="42" type="line"/>
      <point x="476" y="42" type="line"/>
      <point x="476" y="829" type="line"/>
      <point x="704" y="960" type="line" name="dv01"/>
      <point x="684" y="998" type="line" name="dv02"/>
      <point x="476" y="877" type="line"/>
      <point x="476" y="1500" type="line"/>
      <point x="80" y="1500" type="line"/>
      <point x="80" y="649" type="line"/>
      <point x="-110" y="540" type="line"/>
    </contour>
  </outline>
</glyph>
<glyph name="Nacute" format="1">
  <advance width="1479"/>
  <unicode hex="0143"/>
  <outline>
    <contour>
      <point x="870" y="1660" type="line" name="av01"/>
      <point x="1070" y="2000" type="line" name="at01"/>
      <point x="741" y="2000" type="line"/>
      <point x="609" y="1660" type="line"/>
    </contour>
    <contour>
      <point x="1359" y="0" type="line"/>
      <point x="1359" y="1500" type="line"/>
      <point x="1315" y="1500" type="line"/>
      <point x="1315" y="520" type="line"/>
      <point x="164" y="1500" type="line"/>
      <point x="120" y="1500" type="line"/>
      <point x="120" y="0" type="line"/>
      <point x="164" y="0" type="line"/>
      <point x="164" y="980" type="line"/>
      <point x="1315" y="0" type="line"/>
    </contour>
  </outline>
</glyph>
<glyph name="uni0145" format="1">
  <advance width="1479"/>
  <unicode hex="0145"/>
  <outline>
    <contour>
      <point x="1359" y="0" type="line"/>
      <point x="1359" y="1500" type="line"/>
      <point x="1315" y="1500" type="line"/>
      <point x="1315" y="520" type="line"/>
      <point x="164" y="1500" type="line"/>
      <point x="120" y="1500" type="line"/>
      <point x="120" y="0" type="line"/>
      <point x="164" y="0" type="line"/>
      <point x="164" y="980" type="line"/>
      <point x="1315" y="0" type="line"/>
    </contour>
    <contour>
      <point x="703" y="-548" type="line"/>
      <point x="827" y="-484"/>
      <point x="905" y="-345"/>
      <point x="905" y="-190" type="curve" smooth="yes"/>
      <point x="905" y="-139"/>
      <point x="896" y="-86"/>
      <point x="878" y="-35" type="curve"/>
      <point x="606" y="-90" type="line"/>
      <point x="639" y="-135"/>
      <point x="655" y="-191"/>
      <point x="655" y="-247" type="curve" smooth="yes"/>
      <point x="655" y="-320"/>
      <point x="628" y="-392"/>
      <point x="575" y="-437" type="curve"/>
    </contour>
  </outline>
</glyph>
<glyph name="ncommaaccent" format="1">
  <advance width="1259"/>
  <unicode hex="0146"/>
  <outline>
    <contour>
      <point x="1159" y="0" type="line" name="ab02"/>
      <point x="1159" y="583" type="line" smooth="yes"/>
      <point x="1159" y="852"/>
      <point x="1016" y="1020"/>
      <point x="787" y="1020" type="curve" smooth="yes" name="at02"/>
      <point x="625" y="1020"/>
      <point x="509" y="935"/>
      <point x="457" y="783" type="curve"/>
      <point x="440" y="1000" type="line"/>
      <point x="120" y="1000" type="line" name="dh01"/>
      <point x="120" y="0" type="line" name="at01"/>
      <point x="489" y="0" type="line"/>
      <point x="489" y="669" type="line" smooth="yes"/>
      <point x="489" y="793"/>
      <point x="547" y="867"/>
      <point x="643" y="867" type="curve" smooth="yes" name="sv01"/>
      <point x="737" y="867"/>
      <point x="790" y="796"/>
      <point x="790" y="669" type="curve" smooth="yes"/>
      <point x="790" y="0" type="line" name="dh02"/>
    </contour>
    <contour>
      <point x="593" y="-548" type="line"/>
      <point x="717" y="-484"/>
      <point x="795" y="-345"/>
      <point x="795" y="-190" type="curve" smooth="yes"/>
      <point x="795" y="-139"/>
      <point x="786" y="-86"/>
      <point x="768" y="-35" type="curve"/>
      <point x="496" y="-90" type="line"/>
      <point x="529" y="-135"/>
      <point x="545" y="-191"/>
      <point x="545" y="-247" type="curve" smooth="yes"/>
      <point x="545" y="-320"/>
      <point x="518" y="-392"/>
      <point x="465" y="-437" type="curve"/>
    </contour>
  </outline>
</glyph>
<glyph name="napostrophe" format="1">
  <advance width="1259"/>
  <unicode hex="0149"/>
  <outline>
    <contour>
      <point x="248" y="1028" type="line"/>
      <point x="372" y="1092"/>
      <point x="450" y="1231"/>
      <point x="450" y="1386" type="curve" smooth="yes"/>
      <point x="450" y="1437"/>
      <point x="441" y="1490"/>
      <point x="423" y="1541" type="curve"/>
      <point x="151" y="1486" type="line"/>
      <point x="184" y="1441"/>
      <point x="200" y="1385"/>
      <point x="200" y="1329" type="curve" smooth="yes"/>
      <point x="200" y="1256"/>
      <point x="173" y="1184"/>
      <point x="120" y="1139" type="curve"/>
    </contour>
    <contour>
      <point x="1159" y="0" type="line" name="ab02"/>
      <point x="1159" y="583" type="line" smooth="yes"/>
      <point x="1159" y="852"/>
      <point x="1016" y="1020"/>
      <point x="787" y="1020" type="curve" smooth="yes" name="at02"/>
      <point x="625" y="1020"/>
      <point x="509" y="935"/>
      <point x="457" y="783" type="curve"/>
      <point x="440" y="1000" type="line"/>
      <point x="120" y="1000" type="line" name="dh01"/>
      <point x="120" y="0" type="line" name="at01"/>
      <point x="489" y="0" type="line"/>
      <point x="489" y="669" type="line" smooth="yes"/>
      <point x="489" y="793"/>
      <point x="547" y="867"/>
      <point x="643" y="867" type="curve" smooth="yes" name="sv01"/>
      <point x="737" y="867"/>
      <point x="790" y="796"/>
      <point x="790" y="669" type="curve" smooth="yes"/>
      <point x="790" y="0" type="line" name="dh02"/>
    </contour>
  </outline>
</glyph>
<glyph name="eng" format="2">
  <advance width="1259"/>
  <unicode hex="014B"/>
  <outline>
    <contour>
      <point x="516" y="-497" type="line"/>
      <point x="585" y="-513"/>
      <point x="650" y="-520"/>
      <point x="713" y="-520" type="curve" smooth="yes"/>
      <point x="1000" y="-520"/>
      <point x="1159" y="-361"/>
      <point x="1159" y="-69" type="curve" smooth="yes"/>
      <point x="1159" y="583" type="line" smooth="yes"/>
      <point x="1159" y="852"/>
      <point x="1016" y="1020"/>
      <point x="787" y="1020" type="curve" smooth="yes" name="at02"/>
      <point x="625" y="1020"/>
      <point x="509" y="935"/>
      <point x="457" y="783" type="curve"/>
      <point x="440" y="1000" type="line"/>
      <point x="120" y="1000" type="line" name="dh01"/>
      <point x="120" y="0" type="line" name="at01"/>
      <point x="489" y="0" type="line"/>
      <point x="489" y="669" type="line" smooth="yes"/>
      <point x="489" y="793"/>
      <point x="547" y="867"/>
      <point x="643" y="867" type="curve" smooth="yes" name="sv01"/>
      <point x="737" y="867"/>
      <point x="790" y="796"/>
      <point x="790" y="669" type="curve" smooth="yes"/>
      <point x="790" y="-197" type="line" smooth="yes"/>
      <point x="790" y="-367"/>
      <point x="711" y="-463"/>
      <point x="573" y="-463" type="curve" smooth="yes"/>
      <point x="556" y="-463"/>
      <point x="539" y="-462"/>
      <point x="522" y="-459" type="curve"/>
    </contour>
  </outline>
</glyph>
<glyph name="Obreve" format="1">
  <advance width="1730"/>
  <unicode hex="014E"/>
  <outline>
    <contour>
      <point x="1189" y="2000" type="curve" name="at01.1"/>
      <point x="989" y="2000" type="line" name="ah01.1"/>
      <point x="989" y="1899"/>
      <point x="944" y="1840"/>
      <point x="866" y="1840" type="curve" smooth="yes"/>
      <point x="788" y="1840"/>
      <point x="742" y="1899"/>
      <point x="742" y="2000" type="curve" name="sh01.1"/>
      <point x="541" y="2000" type="line" name="at02"/>
      <point x="541" y="1804"/>
      <point x="673" y="1670"/>
      <point x="865" y="1670" type="curve" smooth="yes" name="av01"/>
      <point x="1057" y="1670"/>
      <point x="1189" y="1804"/>
    </contour>
    <contour>
      <point x="860" y="-30" type="curve" smooth="yes" name="dv01"/>
      <point x="1313" y="-30"/>
      <point x="1660" y="303"/>
      <point x="1660" y="750" type="curve" smooth="yes" name="sh03"/>
      <point x="1660" y="1197"/>
      <point x="1313" y="1530"/>
      <point x="860" y="1530" type="curve" smooth="yes" name="at01"/>
      <point x="407" y="1530"/>
      <point x="70" y="1197"/>
      <point x="70" y="750" type="curve" smooth="yes" name="sh01"/>
      <point x="70" y="303"/>
      <point x="407" y="-30"/>
    </contour>
    <contour>
      <point x="860" y="12" type="curve" smooth="yes" name="dv02"/>
      <point x="636" y="12"/>
      <point x="475" y="323"/>
      <point x="475" y="752" type="curve" smooth="yes" name="sh02"/>
      <point x="475" y="1181"/>
      <point x="636" y="1488"/>
      <point x="860" y="1488" type="curve" smooth="yes" name="sv01"/>
      <point x="1084" y="1488"/>
      <point x="1255" y="1181"/>
      <point x="1255" y="752" type="curve" smooth="yes" name="ah01"/>
      <point x="1255" y="323"/>
      <point x="1084" y="12"/>
    </contour>
  </outline>
</glyph>
<glyph name="obreve" format="1">
  <advance width="1227"/>
  <unicode hex="014F"/>
  <outline>
    <contour>
      <point x="937" y="1500" type="curve" name="at01.1"/>
      <point x="737" y="1500" type="line" name="ah01.1"/>
      <point x="737" y="1399"/>
      <point x="692" y="1340"/>
      <point x="614" y="1340" type="curve" smooth="yes"/>
      <point x="536" y="1340"/>
      <point x="490" y="1399"/>
      <point x="490" y="1500" type="curve" name="sh01.1"/>
      <point x="290" y="1500" type="line" name="at02"/>
      <point x="290" y="1304"/>
      <point x="422" y="1170"/>
      <point x="614" y="1170" type="curve" smooth="yes" name="av01"/>
      <point x="806" y="1170"/>
      <point x="937" y="1304"/>
    </contour>
    <contour>
      <point x="614" y="-20" type="curve" smooth="yes" name="dv01"/>
      <point x="932" y="-20"/>
      <point x="1157" y="195"/>
      <point x="1157" y="500" type="curve" smooth="yes" name="sh03"/>
      <point x="1157" y="800"/>
      <point x="927" y="1020"/>
      <point x="614" y="1020" type="curve" smooth="yes" name="at01"/>
      <point x="300" y="1020"/>
      <point x="70" y="800"/>
      <point x="70" y="500" type="curve" smooth="yes" name="sh01"/>
      <point x="70" y="200"/>
      <point x="300" y="-20"/>
    </contour>
    <contour>
      <point x="614" y="18" type="curve" smooth="yes" name="dv02"/>
      <point x="507" y="18"/>
      <point x="448" y="190"/>
      <point x="448" y="500" type="curve" smooth="yes" name="sh02"/>
      <point x="448" y="810"/>
      <point x="507" y="982"/>
      <point x="614" y="982" type="curve" smooth="yes" name="sv01"/>
      <point x="721" y="982"/>
      <point x="780" y="810"/>
      <point x="780" y="500" type="curve" smooth="yes" name="ah01"/>
      <point x="780" y="190"/>
      <point x="721" y="18"/>
    </contour>
  </outline>
</glyph>
<glyph name="Ohungarumlaut" format="1">
  <advance width="1730"/>
  <unicode hex="0150"/>
  <outline>
    <contour>
      <point x="771" y="1660" type="line" name="av01"/>
      <point x="971" y="2000" type="line" name="at01.1"/>
      <point x="642" y="2000" type="line"/>
      <point x="510" y="1660" type="line"/>
    </contour>
    <contour>
      <point x="1191" y="1660" type="line" name="av01.1"/>
      <point x="1392" y="2000" type="line" name="at01.1.1"/>
      <point x="1062" y="2000" type="line"/>
      <point x="931" y="1660" type="line"/>
    </contour>
    <contour>
      <point x="860" y="-30" type="curve" smooth="yes" name="dv01"/>
      <point x="1313" y="-30"/>
      <point x="1660" y="303"/>
      <point x="1660" y="750" type="curve" smooth="yes" name="sh03"/>
      <point x="1660" y="1197"/>
      <point x="1313" y="1530"/>
      <point x="860" y="1530" type="curve" smooth="yes" name="at01"/>
      <point x="407" y="1530"/>
      <point x="70" y="1197"/>
      <point x="70" y="750" type="curve" smooth="yes" name="sh01"/>
      <point x="70" y="303"/>
      <point x="407" y="-30"/>
    </contour>
    <contour>
      <point x="860" y="12" type="curve" smooth="yes" name="dv02"/>
      <point x="636" y="12"/>
      <point x="475" y="323"/>
      <point x="475" y="752" type="curve" smooth="yes" name="sh02"/>
      <point x="475" y="1181"/>
      <point x="636" y="1488"/>
      <point x="860" y="1488" type="curve" smooth="yes" name="sv01"/>
      <point x="1084" y="1488"/>
      <point x="1255" y="1181"/>
      <point x="1255" y="752" type="curve" smooth="yes" name="ah01"/>
      <point x="1255" y="323"/>
      <point x="1084" y="12"/>
    </contour>
  </outline>
</glyph>
<glyph name="OE" format="1">
  <advance width="2404"/>
  <unicode hex="0152"/>
  <outline>
    <contour>
      <point x="800" y="-30" type="curve" smooth="yes" name="dv01.1"/>
      <point x="988" y="-30"/>
      <point x="1156" y="37"/>
      <point x="1284" y="151" type="curve"/>
      <point x="1284" y="0" type="line" name="ab01"/>
      <point x="2294" y="0" type="line"/>
      <point x="2294" y="42" type="line" name="sv01"/>
      <point x="1680" y="42" type="line" name="dh01"/>
      <point x="1680" y="736" type="line" name="dv01"/>
      <point x="2244" y="736" type="line"/>
      <point x="2244" y="778" type="line"/>
      <point x="1680" y="778" type="line" name="dv02"/>
      <point x="1680" y="1458" type="line" name="sv02"/>
      <point x="2284" y="1458" type="line"/>
      <point x="2284" y="1500" type="line" name="at01"/>
      <point x="1284" y="1500" type="line"/>
      <point x="1284" y="1349" type="line"/>
      <point x="1156" y="1463"/>
      <point x="988" y="1530"/>
      <point x="800" y="1530" type="curve" smooth="yes" name="at01.1"/>
      <point x="382" y="1530"/>
      <point x="70" y="1197"/>
      <point x="70" y="750" type="curve" smooth="yes" name="sh01"/>
      <point x="70" y="303"/>
      <point x="382" y="-30"/>
    </contour>
    <contour>
      <point x="874" y="12" type="curve" smooth="yes" name="dv02.1"/>
      <point x="642" y="12"/>
      <point x="475" y="322"/>
      <point x="475" y="752" type="curve" smooth="yes" name="sh02"/>
      <point x="475" y="1181"/>
      <point x="641" y="1488"/>
      <point x="874" y="1488" type="curve" smooth="yes" name="sv01.1"/>
      <point x="1110" y="1488"/>
      <point x="1284" y="1175"/>
      <point x="1284" y="752" type="curve" smooth="yes" name="ah01"/>
      <point x="1284" y="328"/>
      <point x="1109" y="12"/>
    </contour>
  </outline>
</glyph>
<glyph name="oe" format="2">
  <advance width="2121"/>
  <unicode hex="0153"/>
  <outline>
    <contour>
      <point x="1970" y="105" type="curve"/>
      <point x="1953" y="135" type="line"/>
      <point x="1842" y="75"/>
      <point x="1741" y="43"/>
      <point x="1657" y="43" type="curve" smooth="yes"/>
      <point x="1456" y="43"/>
      <point x="1320" y="220"/>
      <point x="1320" y="499" type="curve"/>
      <point x="2051" y="499" type="line"/>
      <point x="2051" y="502" type="line" smooth="yes"/>
      <point x="2051" y="808"/>
      <point x="1830" y="1020"/>
      <point x="1512" y="1020" type="curve" smooth="yes"/>
      <point x="1316" y="1020"/>
      <point x="1154" y="939"/>
      <point x="1059" y="808" type="curve"/>
      <point x="963" y="939"/>
      <point x="804" y="1020"/>
      <point x="614" y="1020" type="curve" smooth="yes" name="at01"/>
      <point x="300" y="1020"/>
      <point x="70" y="800"/>
      <point x="70" y="500" type="curve" smooth="yes" name="sh01"/>
      <point x="70" y="200"/>
      <point x="300" y="-20"/>
      <point x="614" y="-20" type="curve" smooth="yes" name="dv01"/>
      <point x="813" y="-20"/>
      <point x="975" y="64"/>
      <point x="1069" y="202" type="curve"/>
      <point x="1172" y="65"/>
      <point x="1347" y="-20"/>
      <point x="1557" y="-20" type="curve" smooth="yes"/>
      <point x="1707" y="-20"/>
      <point x="1849" y="23"/>
    </contour>
    <contour>
      <point x="614" y="18" type="curve" smooth="yes" name="dv02"/>
      <point x="507" y="18"/>
      <point x="448" y="190"/>
      <point x="448" y="500" type="curve" smooth="yes" name="sh02"/>
      <point x="448" y="810"/>
      <point x="507" y="982"/>
      <point x="614" y="982" type="curve" smooth="yes" name="sv01"/>
      <point x="721" y="982"/>
      <point x="780" y="810"/>
      <point x="780" y="500" type="curve" smooth="yes" name="ah01"/>
      <point x="780" y="190"/>
      <point x="721" y="18"/>
    </contour>
    <contour>
      <point x="1320" y="536" type="line"/>
      <point x="1320" y="776"/>
      <point x="1415" y="982"/>
      <point x="1520" y="982" type="curve" smooth="yes"/>
      <point x="1619" y="982"/>
      <point x="1699" y="798"/>
      <point x="1713" y="536" type="curve"/>
    </contour>
  </outline>
</glyph>
<glyph name="rcommaaccent" format="1">
  <advance width="939"/>
  <unicode hex="0157"/>
  <outline>
    <contour>
      <point x="489" y="0" type="line"/>
      <point x="489" y="654" type="line" smooth="yes"/>
      <point x="489" y="847"/>
      <point x="611" y="982"/>
      <point x="786" y="982" type="curve" smooth="yes"/>
      <point x="823" y="982"/>
      <point x="860" y="977"/>
      <point x="898" y="965" type="curve"/>
      <point x="909" y="1005" type="line"/>
      <point x="866" y="1015"/>
      <point x="825" y="1020"/>
      <point x="787" y="1020" type="curve" smooth="yes"/>
      <point x="618" y="1020"/>
      <point x="503" y="923"/>
      <point x="459" y="751" type="curve"/>
      <point x="440" y="1000" type="line"/>
      <point x="120" y="1000" type="line" name="dh01"/>
      <point x="120" y="0" type="line" name="at01"/>
    </contour>
    <contour>
      <point x="272" y="-548" type="line"/>
      <point x="396" y="-484"/>
      <point x="474" y="-345"/>
      <point x="474" y="-190" type="curve" smooth="yes"/>
      <point x="474" y="-139"/>
      <point x="465" y="-86"/>
      <point x="447" y="-35" type="curve"/>
      <point x="175" y="-90" type="line"/>
      <point x="208" y="-135"/>
      <point x="224" y="-191"/>
      <point x="224" y="-247" type="curve" smooth="yes"/>
      <point x="224" y="-320"/>
      <point x="197" y="-392"/>
      <point x="144" y="-437" type="curve"/>
    </contour>
  </outline>
</glyph>
<glyph name="rcaron" format="1">
  <advance width="941"/>
  <unicode hex="0159"/>
  <outline>
    <contour>
      <point x="617" y="1160" type="line" name="at01.1"/>
      <point x="842" y="1500" type="line"/>
      <point x="573" y="1500" type="line" name="av01"/>
      <point x="471" y="1309" type="line"/>
      <point x="370" y="1500" type="line" name="av01.1"/>
      <point x="100" y="1500" type="line"/>
      <point x="325" y="1160" type="line" name="at01.1.1"/>
    </contour>
    <contour>
      <point x="491" y="0" type="line"/>
      <point x="491" y="654" type="line" smooth="yes"/>
      <point x="491" y="847"/>
      <point x="613" y="982"/>
      <point x="788" y="982" type="curve" smooth="yes"/>
      <point x="825" y="982"/>
      <point x="862" y="977"/>
      <point x="900" y="965" type="curve"/>
      <point x="911" y="1005" type="line"/>
      <point x="868" y="1015"/>
      <point x="827" y="1020"/>
      <point x="789" y="1020" type="curve" smooth="yes"/>
      <point x="620" y="1020"/>
      <point x="505" y="923"/>
      <point x="461" y="751" type="curve"/>
      <point x="442" y="1000" type="line"/>
      <point x="122" y="1000" type="line" name="dh01"/>
      <point x="122" y="0" type="line" name="at01"/>
    </contour>
  </outline>
</glyph>
<glyph name="scircumflex" format="1">
  <advance width="969"/>
  <unicode hex="015D"/>
  <outline>
    <contour>
      <point x="886" y="1160" type="line"/>
      <point x="661" y="1500" type="line" name="at01"/>
      <point x="368" y="1500" type="line" name="at01.1"/>
      <point x="143" y="1160" type="line"/>
      <point x="413" y="1160" type="line" name="av01"/>
      <point x="514" y="1351" type="line"/>
      <point x="615" y="1160" type="line" name="av01.1"/>
    </contour>
    <contour>
      <point x="70" y="84" type="line"/>
      <point x="192" y="16"/>
      <point x="332" y="-20"/>
      <point x="470" y="-20" type="curve" smooth="yes"/>
      <point x="715" y="-20"/>
      <point x="919" y="97"/>
      <point x="919" y="299" type="curve" smooth="yes"/>
      <point x="919" y="462"/>
      <point x="787" y="537"/>
      <point x="664" y="607" type="curve" smooth="yes"/>
      <point x="556" y="668"/>
      <point x="455" y="726"/>
      <point x="455" y="835" type="curve" smooth="yes"/>
      <point x="455" y="918"/>
      <point x="514" y="968"/>
      <point x="611" y="968" type="curve" smooth="yes"/>
      <point x="685" y="968"/>
      <point x="788" y="939"/>
      <point x="859" y="897" type="curve"/>
      <point x="876" y="933" type="line"/>
      <point x="762" y="989"/>
      <point x="636" y="1020"/>
      <point x="515" y="1020" type="curve" smooth="yes"/>
      <point x="264" y="1020"/>
      <point x="87" y="892"/>
      <point x="87" y="710" type="curve" smooth="yes"/>
      <point x="87" y="555"/>
      <point x="214" y="485"/>
      <point x="335" y="417" type="curve" smooth="yes"/>
      <point x="445" y="355"/>
      <point x="551" y="297"/>
      <point x="551" y="179" type="curve" smooth="yes"/>
      <point x="551" y="86"/>
      <point x="485" y="29"/>
      <point x="376" y="29" type="curve" smooth="yes"/>
      <point x="298" y="29"/>
      <point x="207" y="58"/>
      <point x="87" y="120" type="curve"/>
    </contour>
  </outline>
</glyph>
<glyph name="Tcedilla" format="1">
  <advance width="1348"/>
  <unicode hex="0162"/>
  <outline>
    <contour>
      <point x="872" y="0" type="line"/>
      <point x="872" y="1458" type="line"/>
      <point x="1318" y="1458" type="line"/>
      <point x="1318" y="1500" type="line"/>
      <point x="30" y="1500" type="line"/>
      <point x="30" y="1458" type="line"/>
      <point x="476" y="1458" type="line"/>
      <point x="476" y="0" type="line"/>
      <point x="624" y="0" type="line"/>
      <point x="571" y="-135" type="line"/>
      <point x="584" y="-133"/>
      <point x="596" y="-132"/>
      <point x="607" y="-132" type="curve" smooth="yes"/>
      <point x="675" y="-132"/>
      <point x="693" y="-164"/>
      <point x="693" y="-200" type="curve" smooth="yes"/>
      <point x="693" y="-251"/>
      <point x="659" y="-282"/>
      <point x="609" y="-282" type="curve" smooth="yes"/>
      <point x="585" y="-282"/>
      <point x="559" y="-276"/>
      <point x="535" y="-263" type="curve"/>
      <point x="488" y="-395" type="line"/>
      <point x="539" y="-419"/>
      <point x="593" y="-432"/>
      <point x="644" y="-432" type="curve" smooth="yes"/>
      <point x="769" y="-432"/>
      <point x="860" y="-357"/>
      <point x="860" y="-255" type="curve" smooth="yes"/>
      <point x="860" y="-170"/>
      <point x="797" y="-113"/>
      <point x="697" y="-102" type="curve"/>
      <point x="745" y="0" type="line" name="ih01"/>
    </contour>
  </outline>
</glyph>
<glyph name="tcedilla" format="1">
  <advance width="911"/>
  <unicode hex="0163"/>
  <outline>
    <contour>
      <point x="861" y="28" type="curve"/>
      <point x="852" y="64" type="line"/>
      <point x="816" y="54"/>
      <point x="785" y="49"/>
      <point x="756" y="49" type="curve" smooth="yes"/>
      <point x="650" y="49"/>
      <point x="594" y="118"/>
      <point x="594" y="243" type="curve" smooth="yes"/>
      <point x="594" y="962" type="line"/>
      <point x="857" y="962" type="line"/>
      <point x="857" y="1000" type="line"/>
      <point x="594" y="1000" type="line"/>
      <point x="594" y="1250" type="line"/>
      <point x="225" y="1250" type="line"/>
      <point x="225" y="1000" type="line"/>
      <point x="50" y="1000" type="line"/>
      <point x="50" y="962" type="line"/>
      <point x="225" y="962" type="line"/>
      <point x="225" y="399" type="line" smooth="yes"/>
      <point x="225" y="182"/>
      <point x="314" y="45"/>
      <point x="474" y="0" type="curve"/>
      <point x="422" y="-135" type="line"/>
      <point x="435" y="-133"/>
      <point x="447" y="-132"/>
      <point x="458" y="-132" type="curve" smooth="yes"/>
      <point x="526" y="-132"/>
      <point x="544" y="-164"/>
      <point x="544" y="-200" type="curve" smooth="yes"/>
      <point x="544" y="-251"/>
      <point x="509" y="-282"/>
      <point x="459" y="-282" type="curve" smooth="yes"/>
      <point x="435" y="-282"/>
      <point x="410" y="-276"/>
      <point x="386" y="-263" type="curve"/>
      <point x="338" y="-395" type="line"/>
      <point x="389" y="-419"/>
      <point x="443" y="-432"/>
      <point x="494" y="-432" type="curve" smooth="yes"/>
      <point x="619" y="-432"/>
      <point x="711" y="-357"/>
      <point x="711" y="-255" type="curve" smooth="yes"/>
      <point x="711" y="-170"/>
      <point x="648" y="-113"/>
      <point x="548" y="-102" type="curve"/>
      <point x="588" y="-16" type="line"/>
      <point x="593" y="-16"/>
      <point x="599" y="-16"/>
      <point x="604" y="-16" type="curve" smooth="yes" name="ih01"/>
      <point x="680" y="-16"/>
      <point x="766" y="-1"/>
    </contour>
  </outline>
</glyph>
<glyph name="tcaron" format="2">
  <advance width="1275"/>
  <unicode hex="0165"/>
  <anchor x="525" y="0" name="bottom"/>
  <anchor x="448" y="500" name="center"/>
  <anchor x="448" y="1000" name="top"/>
  <anchor x="876" y="1500" name="topright"/>
  <outline>
    <contour>
      <point x="1105" y="1070" type="line"/>
      <point x="1250" y="1520" type="line"/>
      <point x="1000" y="1520" type="line" name="av01"/>
      <point x="899" y="1070" type="line"/>
    </contour>
    <component base="t"/>
  </outline>
</glyph>
<glyph name="Tbar" format="2">
  <advance width="1348"/>
  <unicode hex="0166"/>
  <outline>
    <contour>
      <point x="1084" y="731" type="line" name="av02"/>
      <point x="1084" y="769" type="line"/>
      <point x="872" y="769" type="line"/>
      <point x="872" y="1458" type="line"/>
      <point x="1318" y="1458" type="line"/>
      <point x="1318" y="1500" type="line"/>
      <point x="30" y="1500" type="line"/>
      <point x="30" y="1458" type="line"/>
      <point x="476" y="1458" type="line"/>
      <point x="476" y="769" type="line"/>
      <point x="264" y="769" type="line" name="av01"/>
      <point x="264" y="731" type="line"/>
      <point x="476" y="731" type="line"/>
      <point x="476" y="0" type="line"/>
      <point x="872" y="0" type="line"/>
      <point x="872" y="731" type="line"/>
    </contour>
  </outline>
</glyph>
<glyph name="tbar" format="1">
  <advance width="911"/>
  <unicode hex="0167"/>
  <outline>
    <contour>
      <point x="858" y="556" type="line" name="av02"/>
      <point x="858" y="594" type="line"/>
      <point x="594" y="594" type="line"/>
      <point x="594" y="962" type="line"/>
      <point x="857" y="962" type="line"/>
      <point x="857" y="1000" type="line"/>
      <point x="594" y="1000" type="line"/>
      <point x="594" y="1250" type="line"/>
      <point x="225" y="1250" type="line"/>
      <point x="225" y="1000" type="line"/>
      <point x="50" y="1000" type="line"/>
      <point x="50" y="962" type="line"/>
      <point x="225" y="962" type="line"/>
      <point x="225" y="594" type="line"/>
      <point x="53" y="594" type="line" name="av01"/>
      <point x="53" y="556" type="line"/>
      <point x="225" y="556" type="line"/>
      <point x="225" y="399" type="line" smooth="yes"/>
      <point x="225" y="129"/>
      <point x="363" y="-16"/>
      <point x="604" y="-16" type="curve" smooth="yes"/>
      <point x="680" y="-16"/>
      <point x="766" y="-1"/>
      <point x="861" y="28" type="curve"/>
      <point x="852" y="64" type="line"/>
      <point x="816" y="54"/>
      <point x="785" y="49"/>
      <point x="756" y="49" type="curve" smooth="yes"/>
      <point x="650" y="49"/>
      <point x="594" y="118"/>
      <point x="594" y="243" type="curve" smooth="yes"/>
      <point x="594" y="556" type="line"/>
    </contour>
  </outline>
</glyph>
<glyph name="Utilde" format="1">
  <advance width="1584"/>
  <unicode hex="0168"/>
  <outline>
    <contour>
      <point x="1195" y="1981" type="curve"/>
      <point x="1067" y="1981" type="line"/>
      <point x="1063" y="1905"/>
      <point x="1027" y="1865"/>
      <point x="965" y="1865" type="curve" smooth="yes"/>
      <point x="916" y="1865"/>
      <point x="878" y="1889"/>
      <point x="835" y="1918" type="curve" smooth="yes"/>
      <point x="784" y="1952"/>
      <point x="725" y="1990"/>
      <point x="627" y="1990" type="curve" smooth="yes" name="av01"/>
      <point x="470" y="1990"/>
      <point x="390" y="1889"/>
      <point x="390" y="1696" type="curve"/>
      <point x="518" y="1696" type="line"/>
      <point x="522" y="1771"/>
      <point x="563" y="1813"/>
      <point x="632" y="1813" type="curve" smooth="yes"/>
      <point x="686" y="1813"/>
      <point x="725" y="1788"/>
      <point x="767" y="1758" type="curve" smooth="yes"/>
      <point x="814" y="1724"/>
      <point x="869" y="1688"/>
      <point x="963" y="1688" type="curve" smooth="yes" name="av02"/>
      <point x="1117" y="1688"/>
      <point x="1195" y="1787"/>
    </contour>
    <contour>
      <point x="1464" y="1500" type="line"/>
      <point x="1068" y="1500" type="line"/>
      <point x="1068" y="557" type="line" smooth="yes"/>
      <point x="1068" y="191"/>
      <point x="977" y="12"/>
      <point x="792" y="12" type="curve" smooth="yes"/>
      <point x="607" y="12"/>
      <point x="516" y="191"/>
      <point x="516" y="557" type="curve" smooth="yes"/>
      <point x="516" y="1500" type="line"/>
      <point x="120" y="1500" type="line"/>
      <point x="120" y="657" type="line" smooth="yes"/>
      <point x="120" y="222"/>
      <point x="367" y="-30"/>
      <point x="792" y="-30" type="curve" smooth="yes"/>
      <point x="1217" y="-30"/>
      <point x="1464" y="222"/>
      <point x="1464" y="657" type="curve" smooth="yes"/>
    </contour>
  </outline>
</glyph>
<glyph name="utilde" format="1">
  <advance width="1259"/>
  <unicode hex="0169"/>
  <outline>
    <contour>
      <point x="1032" y="1481" type="curve"/>
      <point x="904" y="1481" type="line"/>
      <point x="900" y="1405"/>
      <point x="864" y="1365"/>
      <point x="802" y="1365" type="curve" smooth="yes"/>
      <point x="753" y="1365"/>
      <point x="716" y="1390"/>
      <point x="674" y="1417" type="curve" smooth="yes"/>
      <point x="621" y="1451"/>
      <point x="562" y="1490"/>
      <point x="464" y="1490" type="curve" smooth="yes" name="av01"/>
      <point x="307" y="1490"/>
      <point x="227" y="1389"/>
      <point x="227" y="1196" type="curve"/>
      <point x="355" y="1196" type="line"/>
      <point x="359" y="1271"/>
      <point x="400" y="1313"/>
      <point x="469" y="1313" type="curve" smooth="yes"/>
      <point x="523" y="1313"/>
      <point x="561" y="1287"/>
      <point x="602" y="1259" type="curve" smooth="yes"/>
      <point x="651" y="1225"/>
      <point x="706" y="1188"/>
      <point x="800" y="1188" type="curve" smooth="yes" name="av02"/>
      <point x="954" y="1188"/>
      <point x="1032" y="1287"/>
    </contour>
    <contour>
      <point x="1139" y="0" type="line" name="dh01"/>
      <point x="1139" y="1000" type="line" name="at01"/>
      <point x="770" y="1000" type="line"/>
      <point x="770" y="331" type="line" smooth="yes"/>
      <point x="770" y="207"/>
      <point x="712" y="133"/>
      <point x="616" y="133" type="curve" smooth="yes" name="sv01"/>
      <point x="522" y="133"/>
      <point x="469" y="204"/>
      <point x="469" y="331" type="curve" smooth="yes"/>
      <point x="469" y="1000" type="line" name="dh02"/>
      <point x="100" y="1000" type="line" name="ab02"/>
      <point x="100" y="417" type="line" smooth="yes"/>
      <point x="100" y="148"/>
      <point x="243" y="-20"/>
      <point x="472" y="-20" type="curve" smooth="yes" name="at02"/>
      <point x="634" y="-20"/>
      <point x="750" y="65"/>
      <point x="802" y="217" type="curve"/>
      <point x="819" y="0" type="line"/>
    </contour>
  </outline>
</glyph>
<glyph name="Umacron" format="1">
  <advance width="1584"/>
  <unicode hex="016A"/>
  <outline>
    <contour>
      <point x="1141" y="1725" type="line"/>
      <point x="1141" y="1930" type="line"/>
      <point x="443" y="1930" type="line"/>
      <point x="443" y="1725" type="line"/>
    </contour>
    <contour>
      <point x="1464" y="1500" type="line"/>
      <point x="1068" y="1500" type="line"/>
      <point x="1068" y="557" type="line" smooth="yes"/>
      <point x="1068" y="191"/>
      <point x="977" y="12"/>
      <point x="792" y="12" type="curve" smooth="yes"/>
      <point x="607" y="12"/>
      <point x="516" y="191"/>
      <point x="516" y="557" type="curve" smooth="yes"/>
      <point x="516" y="1500" type="line"/>
      <point x="120" y="1500" type="line"/>
      <point x="120" y="657" type="line" smooth="yes"/>
      <point x="120" y="222"/>
      <point x="367" y="-30"/>
      <point x="792" y="-30" type="curve" smooth="yes"/>
      <point x="1217" y="-30"/>
      <point x="1464" y="222"/>
      <point x="1464" y="657" type="curve" smooth="yes"/>
    </contour>
  </outline>
</glyph>
<glyph name="uhungarumlaut" format="1">
  <advance width="1260"/>
  <unicode hex="0171"/>
  <outline>
    <contour>
      <point x="519" y="1160" type="line" name="av01"/>
      <point x="719" y="1500" type="line" name="at01.1"/>
      <point x="390" y="1500" type="line"/>
      <point x="258" y="1160" type="line"/>
    </contour>
    <contour>
      <point x="939" y="1160" type="line" name="av01.1"/>
      <point x="1140" y="1500" type="line" name="at01.1.1"/>
      <point x="810" y="1500" type="line"/>
      <point x="679" y="1160" type="line"/>
    </contour>
    <contour>
      <point x="1139" y="0" type="line" name="dh01"/>
      <point x="1139" y="1000" type="line" name="at01"/>
      <point x="770" y="1000" type="line"/>
      <point x="770" y="331" type="line" smooth="yes"/>
      <point x="770" y="207"/>
      <point x="712" y="133"/>
      <point x="616" y="133" type="curve" smooth="yes" name="sv01"/>
      <point x="522" y="133"/>
      <point x="469" y="204"/>
      <point x="469" y="331" type="curve" smooth="yes"/>
      <point x="469" y="1000" type="line" name="dh02"/>
      <point x="100" y="1000" type="line" name="ab02"/>
      <point x="100" y="417" type="line" smooth="yes"/>
      <point x="100" y="148"/>
      <point x="243" y="-20"/>
      <point x="472" y="-20" type="curve" smooth="yes" name="at02"/>
      <point x="634" y="-20"/>
      <point x="750" y="65"/>
      <point x="802" y="217" type="curve"/>
      <point x="819" y="0" type="line"/>
    </contour>
  </outline>
</glyph>
<glyph name="Uogonek" format="1">
  <advance width="1584"/>
  <unicode hex="0172"/>
  <outline>
    <contour>
      <point x="1464" y="1500" type="line"/>
      <point x="1068" y="1500" type="line"/>
      <point x="1068" y="557" type="line" smooth="yes"/>
      <point x="1068" y="191"/>
      <point x="977" y="12"/>
      <point x="792" y="12" type="curve" smooth="yes"/>
      <point x="607" y="12"/>
      <point x="516" y="191"/>
      <point x="516" y="557" type="curve" smooth="yes"/>
      <point x="516" y="1500" type="line"/>
      <point x="120" y="1500" type="line"/>
      <point x="120" y="657" type="line" smooth="yes"/>
      <point x="120" y="222"/>
      <point x="367" y="-30"/>
      <point x="792" y="-30" type="curve" smooth="yes"/>
      <point x="827" y="-30"/>
      <point x="860" y="-28"/>
      <point x="892" y="-25" type="curve"/>
      <point x="793" y="-67"/>
      <point x="733" y="-141"/>
      <point x="733" y="-225" type="curve" smooth="yes"/>
      <point x="733" y="-337"/>
      <point x="840" y="-416"/>
      <point x="992" y="-416" type="curve" name="av01"/>
      <point x="1021" y="-238" type="line"/>
      <point x="936" y="-238"/>
      <point x="879" y="-198"/>
      <point x="879" y="-139" type="curve" smooth="yes"/>
      <point x="879" y="-80"/>
      <point x="933" y="-28"/>
      <point x="1013" y="-4" type="curve" smooth="yes" name="ab01"/>
      <point x="1285" y="78"/>
      <point x="1464" y="315"/>
      <point x="1464" y="657" type="curve" smooth="yes"/>
    </contour>
  </outline>
</glyph>
<glyph name="wcircumflex" format="1">
  <advance width="1635"/>
  <unicode hex="0175"/>
  <outline>
    <contour>
      <point x="1296" y="1160" type="line"/>
      <point x="1071" y="1500" type="line" name="at01"/>
      <point x="778" y="1500" type="line" name="at01.1"/>
      <point x="553" y="1160" type="line"/>
      <point x="823" y="1160" type="line" name="av01"/>
      <point x="924" y="1351" type="line"/>
      <point x="1026" y="1160" type="line" name="av01.1"/>
    </contour>
    <contour>
      <point x="1196" y="0" type="line"/>
      <point x="1605" y="1000" type="line"/>
      <point x="1563" y="1000" type="line"/>
      <point x="1314" y="390" type="line"/>
      <point x="1028" y="1000" type="line"/>
      <point x="928" y="1000" type="line"/>
      <point x="679" y="390" type="line"/>
      <point x="443" y="1000" type="line"/>
      <point x="30" y="1000" type="line"/>
      <point x="463" y="0" type="line"/>
      <point x="562" y="0" type="line"/>
      <point x="807" y="598" type="line"/>
      <point x="1097" y="0" type="line"/>
    </contour>
  </outline>
</glyph>
